<?xml version="1.0" encoding="utf-8"?>
<!-- Generator: Adobe Illustrator 17.1.0, SVG Export Plug-In . SVG Version: 6.00 Build 0)  -->
<!DOCTYPE svg PUBLIC "-//W3C//DTD SVG 1.1//EN" "http://www.w3.org/Graphics/SVG/1.1/DTD/svg11.dtd">
<svg version="1.1" id="Layer_1" xmlns="http://www.w3.org/2000/svg" xmlns:xlink="http://www.w3.org/1999/xlink" x="0px" y="0px"
	 viewBox="0 147 889 301.3" enable-background="new 0 147 889 301.3" xml:space="preserve">
<g>
	<path fill="#CE1126" d="M35.1,354.2v16.7h31.3V387H35.1v31.5H15.7v-81.1h53.3v16.7h-34V354.2z"/>
	<path fill="#CE1126" d="M166,377.6c0,6.4-1.1,12.3-3.3,17.6c-2.2,5.3-5.3,9.8-9.2,13.6c-3.9,3.7-8.6,6.7-14,8.7
		c-5.5,2-11.2,3.1-17.6,3.1c-6.4,0-12.2-1.1-17.6-3.1c-5.3-2-10-5-14-8.7c-3.9-3.7-7-8.3-9.2-13.6s-3.3-11.2-3.3-17.6
		c0-6.5,1.1-12.3,3.3-17.6c2.2-5.3,5.3-9.7,9.2-13.3c3.9-3.6,8.6-6.5,14-8.4c5.3-2,11.2-3,17.6-3c6.4,0,12.2,0.9,17.6,3
		s10.1,4.8,14,8.4c3.9,3.6,7,8.1,9.2,13.3C164.9,365.3,166,371.1,166,377.6z M145.1,377.6c0-3.4-0.6-6.9-1.7-9.8
		c-1.1-3.1-2.8-5.6-4.7-7.8c-2-2.2-4.5-3.9-7.3-5.1c-2.8-1.2-6.1-1.9-9.5-1.9s-6.5,0.6-9.4,1.9c-2.8,1.2-5.3,3-7.3,5.1
		s-3.6,4.8-4.7,7.8c-1.1,3.1-1.7,6.4-1.7,9.8c0,3.6,0.6,7,1.7,10.1c1.1,3.1,2.7,5.8,4.7,8c2,2.2,4.4,3.9,7.3,5.1
		c2.8,1.2,5.9,1.9,9.4,1.9s6.5-0.6,9.4-1.9s5.3-3,7.3-5.1c2-2.2,3.6-4.8,4.8-8C144.5,384.6,145.1,381.4,145.1,377.6z"/>
	<path fill="#CE1126" d="M222.3,418.5l-17.6-32.1H198v32.1h-19.2v-81.1h30.9c3.9,0,7.6,0.5,11.4,1.2c3.7,0.8,7,2.2,10,4.1
		c3,1.9,5.3,4.4,7,7.5c1.7,3.1,2.7,7,2.7,11.7c0,5.5-1.6,10.1-4.5,13.9c-3,3.7-7,6.4-12.3,8l21.2,34.6h-22.8V418.5z M221.5,362.3
		c0-1.9-0.5-3.4-1.2-4.7c-0.8-1.2-1.9-2-3.1-2.8c-1.2-0.6-2.7-1.1-4.2-1.2c-1.6-0.2-3.1-0.3-4.5-0.3H198v18.9h9.4
		c1.6,0,3.3-0.2,5-0.5c1.7-0.3,3.3-0.8,4.5-1.4c1.4-0.6,2.5-1.7,3.4-3C221.1,366.1,221.5,364.4,221.5,362.3z"/>
	<path fill="#CE1126" d="M254.7,418.5v-81.1h19.6v81.1H254.7z"/>
	<path fill="#CE1126" d="M333.9,358.4c-1.7-2.2-3.9-3.9-6.5-5.1s-5.3-1.9-7.8-1.9c-1.2,0-2.7,0.2-3.9,0.3c-1.4,0.2-2.5,0.6-3.6,1.2
		s-2,1.6-2.7,2.5c-0.8,1.1-1.1,2.3-1.1,3.9c0,1.4,0.3,2.5,0.8,3.4c0.5,0.9,1.4,1.7,2.5,2.3c1.1,0.6,2.5,1.2,3.9,1.9
		c1.6,0.6,3.3,1.1,5.1,1.7c2.8,0.9,5.6,1.9,8.6,3s5.6,2.7,8.1,4.4c2.5,1.9,4.5,4.1,6.1,6.9c1.6,2.7,2.3,6.1,2.3,10.1
		c0,4.7-0.8,8.7-2.7,12c-1.7,3.4-4.1,6.2-6.9,8.4c-3,2.2-6.2,3.9-10,5s-7.6,1.6-11.5,1.6c-5.8,0-11.4-0.9-16.8-3
		c-5.5-2-10-4.8-13.6-8.6l12.8-13.1c2,2.5,4.5,4.5,7.8,6.1c3.3,1.7,6.4,2.5,9.7,2.5c1.4,0,2.8-0.2,4.2-0.5c1.4-0.3,2.7-0.8,3.6-1.6
		c0.9-0.8,1.9-1.6,2.5-2.8c0.6-1.1,0.9-2.5,0.9-4.1s-0.3-2.8-1.1-3.9c-0.8-1.1-1.9-2-3.3-3c-1.4-0.9-3.1-1.7-5.3-2.3
		c-2-0.8-4.5-1.6-7.2-2.3c-2.7-0.8-5.1-1.9-7.6-3s-4.7-2.7-6.7-4.4c-1.9-1.7-3.6-3.9-4.7-6.5c-1.2-2.5-1.7-5.6-1.7-9.4
		c0-4.5,0.9-8.4,2.8-11.5c1.9-3.3,4.2-5.8,7.2-8c3-2,6.4-3.6,10.1-4.5c3.7-0.9,7.5-1.4,11.4-1.4c4.5,0,9.2,0.8,14,2.5
		c4.8,1.7,8.9,4.2,12.5,7.5L333.9,358.4z"/>
</g>
<g id="gear-9-icon_8_">
	<path fill="#B3B3B3" d="M608.4,325.2c4.7,2.3,8.3,6.4,9.7,11.5l0,0c1.4,5,0.6,10.4-2,14.8l-7.2,11.5l14.8,18.7l12.9-4.5
		c4.8-1.7,10.3-1.2,14.8,1.4l0,0c4.5,2.5,8,7,9,12l3.1,13.3l23.7,2.7l6.1-12.3c2.3-4.7,6.4-8.1,11.5-9.7l0,0c5-1.4,10.4-0.6,14.8,2
		l11.5,7.2l18.7-14.8l-4.4-12.9c-1.7-5-1.2-10.4,1.2-15l0,0c2.5-4.5,6.9-7.8,12-9l13.3-3.1l2.7-23.7l-12.3-6.1
		c-4.7-2.3-8.1-6.4-9.7-11.5l0,0c-1.4-5-0.6-10.4,2-14.8l7.2-11.5l-14.8-18.7l-12.9,4.4c-5,1.7-10.3,1.2-15-1.4l0,0
		c-4.5-2.5-7.8-6.9-9-12l-3.1-13.3l-23.5-2l-6.1,12.3c-2.3,4.7-6.4,8.1-11.5,9.7l0,0c-5,1.4-10.4,0.6-14.8-2l-11.5-7.2l-18.7,14.8
		l4.4,12.9c1.7,5,1.2,10.3-1.4,15l0,0c-2.5,4.5-6.9,7.8-12,9l-13.3,3.1l-2.7,23.7L608.4,325.2z M653.1,313.9
		c2-17.8,18.1-30.6,35.9-28.5c17.8,2,30.6,18.1,28.5,35.9c-2,17.8-18.1,30.6-35.9,28.5C663.9,347.7,651.1,331.6,653.1,313.9z
		 M515.3,382.9c2.5,1.2,4.4,3.4,5.1,6.1l0,0c0.8,2.7,0.3,5.5-1.1,8l-3.9,6.2l8,10l6.9-2.3c2.7-0.9,5.5-0.6,7.8,0.6l0,0
		c2.5,1.4,4.2,3.7,4.8,6.4l1.6,7l12.6,1.4l3.3-6.5c1.2-2.5,3.4-4.4,6.1-5.1l0,0c2.7-0.8,5.6-0.3,8,1.1l6.1,3.9l10-8l-2.3-6.9
		c-0.9-2.7-0.6-5.5,0.8-8l0,0c1.4-2.5,3.6-4.2,6.4-4.8l7-1.7l1.4-12.6l-6.5-3.3c-2.5-1.2-4.4-3.4-5.1-6.1l0,0
		c-0.8-2.7-0.3-5.6,1.1-8l3.9-6.2l-8-10l-6.9,2.3c-2.7,0.9-5.5,0.6-8-0.8l0,0c-2.5-1.4-4.2-3.6-4.8-6.4l-1.7-7l-12.6-1.4l-3.3,6.5
		c-1.2,2.5-3.4,4.4-6.1,5.1l0,0c-2.7,0.8-5.5,0.3-8-1.1l-6.2-3.9l-10,8l2.3,6.9c0.9,2.7,0.6,5.5-0.8,8l0,0c-1.4,2.5-3.6,4.2-6.4,4.8
		l-7,1.7l-1.4,12.6L515.3,382.9z M539.2,376.8c1.1-9.5,9.7-16.2,19-15.1c9.5,1.1,16.2,9.7,15.1,19c-1.1,9.5-9.7,16.2-19,15.1
		C544.9,394.8,538.1,386.4,539.2,376.8z"/>
	<path fill="#4D4D4D" d="M558.8,429.5l-16.8-1.9l-2-9.1c-0.4-1.8-1.7-3.5-3.4-4.4c-1.6-0.8-3.6-1-5.3-0.4l-8.9,3l-10.6-13.3l5-8
		c1-1.9,1.3-3.8,0.8-5.6c-0.5-1.8-1.8-3.4-3.6-4.2l-8.9-4.3l1.9-16.8l9.1-2.2c2-0.4,3.5-1.6,4.5-3.4c1-1.8,1.2-3.7,0.6-5.5l-3-8.9
		l13.3-10.6l8,5c1.8,1,3.8,1.3,5.6,0.8c1.8-0.5,3.4-1.8,4.2-3.6l4.2-8.4l16.8,1.9l2.2,9.1c0.4,2,1.6,3.5,3.4,4.5
		c1.8,1,3.7,1.2,5.5,0.6l8.9-3l10.6,13.3l-5,8c-1,1.6-1.3,3.7-0.8,5.5c0.5,1.8,1.8,3.4,3.6,4.2l8.4,4.2l-1.9,16.8l-9.1,2.2
		c-2,0.4-3.5,1.6-4.5,3.4c-1,1.8-1.2,3.7-0.6,5.5l3,8.9l-13.3,10.6l-7.9-5.1c-1.5-0.9-3.7-1.3-5.5-0.7c-1.8,0.5-3.4,1.8-4.2,3.6
		L558.8,429.5z M546.9,422.1l8.4,0.9l2.3-4.7c1.6-3.2,4.5-5.7,7.9-6.7c3.4-1,7.2-0.5,10.3,1.4l4.3,2.8l6.6-5.3l-1.7-4.9
		c-1.2-3.4-0.8-7.1,1-10.4c1.9-3.3,4.8-5.5,8.4-6.3l4.9-1.2l0.9-8.5l-4.7-2.3c-3.2-1.6-5.7-4.5-6.7-7.9c-1-3.4-0.5-7.2,1.4-10.3
		l2.8-4.5l-5.3-6.7l-4.9,1.7c-3.3,1.2-7.1,0.8-10.4-1c-3.3-1.9-5.5-4.8-6.3-8.4l-1.2-4.9l-8.5-0.9l-2.3,4.7
		c-1.6,3.2-4.5,5.7-7.9,6.7c-3.3,1-7,0.5-10.3-1.4l-0.1-0.1l-4.4-2.8l-6.7,5.3l1.7,4.9c1.2,3.4,0.8,7.1-1,10.4
		c-1.9,3.3-4.8,5.5-8.4,6.3l-4.9,1.2l-0.9,8.4l5.1,2.5c3.3,1.6,5.7,4.5,6.7,7.9c1,3.3,0.5,7-1.4,10.3l-0.1,0.1l-2.8,4.4l5.3,6.7
		l4.9-1.7c3.2-1.1,7-0.9,10.2,0.8c3.2,1.8,5.5,4.8,6.3,8.4L546.9,422.1z M689,409.8l-27.9-3.1l-3.6-15.3c-0.9-4.1-3.8-8-7.6-10.1
		c-3.8-2.2-8.4-2.6-12.4-1.2l-15,5.2l-17.4-22l8.3-13.3c2.2-3.6,2.8-8.3,1.7-12.4c-1.1-4.2-4-7.6-8.1-9.6l-14.4-6.5l3.1-28l15.3-3.6
		c4.3-1,8-3.8,10.1-7.6c2.2-3.9,2.6-8.4,1.2-12.5l-5-15l22-17.4l13.3,8.3c2.4,1.5,5.3,2.3,8.2,2.3c1.4,0,2.9-0.2,4.2-0.6
		c4.2-1.3,7.7-4.2,9.7-8.1l7-14.1l27.7,2.4l3.6,15.4c1,4.3,3.8,8,7.6,10.1c3.9,2.2,8.3,2.6,12.5,1.2l15-5l17.4,22l-8.3,13.3
		c-2.2,3.6-2.8,8.3-1.7,12.4c1.3,4.2,4.2,7.7,8.1,9.7l14.2,7l-3.1,27.9l-15.3,3.6c-4.3,1-8,3.8-10.1,7.6c-2.1,3.8-2.5,8.4-1,12.5
		l5,15l-22,17.4l-13.3-8.3c-2.4-1.5-5.3-2.3-8.2-2.3c-1.4,0-2.9,0.2-4.2,0.6c-4.2,1.3-7.7,4.2-9.7,8.1L689,409.8z M666,401.2
		l19.5,2.2l5.1-10.4c2.7-5.4,7.5-9.4,13.4-11.2c5.9-1.7,12.2-0.7,17.2,2.3l9.8,6.1l15.4-12.2l-3.7-10.9c-2-5.8-1.4-12.1,1.5-17.4
		c2.9-5.2,8-9.1,13.9-10.5l11.2-2.6l2.2-19.5l-10.4-5.1c-5.4-2.7-9.4-7.5-11.2-13.4c-1.6-5.8-0.8-12.1,2.3-17.2l6.1-9.8l-12.2-15.4
		l-10.9,3.7c-5.7,2-12.1,1.4-17.4-1.6c-5.2-2.9-9-7.9-10.5-13.9l-2.6-11.2l-19.3-1.7l-5.2,10.5c-2.7,5.4-7.5,9.4-13.4,11.2
		c-5.9,1.7-12.2,0.7-17.2-2.3l-9.8-6.1l-15.4,12.2l3.7,10.9c2,5.8,1.4,12-1.6,17.4c-2.9,5.2-7.9,9-13.9,10.5l-11.2,2.6l-2.2,19.4
		l10.6,4.8c5.6,2.8,9.6,7.6,11.2,13.4c1.6,5.8,0.8,12-2.4,17.2l-6.1,9.8l12.2,15.4l10.9-3.8c5.6-2,12.1-1.4,17.3,1.6
		c5.2,2.9,9.2,8.1,10.5,14L666,401.2z M556.3,399c-0.8,0-1.6,0-2.3-0.1c-11.1-1.3-19-11.3-17.8-22.3c1.2-10.2,9.8-17.9,20-17.9
		c0.8,0,1.6,0,2.3,0.1c5.4,0.6,10.2,3.3,13.5,7.5c3.3,4.2,4.8,9.5,4.2,14.8C575.1,391.3,566.5,399,556.3,399z M556.2,364.6
		c-7.2,0-13.2,5.4-14,12.6c-0.9,7.8,4.7,14.8,12.5,15.7c0.5,0.1,1.1,0.1,1.6,0.1c7.2,0,13.2-5.4,14-12.6c0.4-3.8-0.6-7.5-3-10.4
		c-2.4-3-5.7-4.8-9.5-5.3C557.3,364.6,556.7,364.6,556.2,364.6z M685.4,352.9c-1.3,0-2.7-0.1-4-0.2c-19.4-2.2-33.4-19.8-31.2-39.2
		c2-17.9,17.1-31.4,35.1-31.4c1.3,0,2.7,0.1,4,0.2c19.4,2.2,33.4,19.8,31.2,39.2C718.5,339.4,703.4,352.9,685.4,352.9z M685.3,288.1
		c-14.9,0-27.5,11.2-29.2,26.1c-1.8,16.1,9.8,30.7,25.9,32.5c1.1,0.1,2.2,0.2,3.4,0.2c14.9,0,27.5-11.2,29.2-26.1
		c1.8-16.1-9.8-30.7-25.9-32.5C687.5,288.2,686.4,288.1,685.3,288.1z"/>
</g>
<g>
	<path fill="#333333" d="M40.7,210l-3.1-8H21.8l-3,8H8.3l17-40.5h9.5L51.6,210H40.7z M29.8,180.2l-5.1,13.9h10.1L29.8,180.2z"/>
	<path fill="#333333" d="M93.9,189.6c0,3.6-0.6,6.5-2,9.2c-1.2,2.7-3.1,4.7-5.1,6.4c-2.2,1.7-4.5,2.8-7.3,3.6
		c-2.7,0.8-5.5,1.2-8.3,1.2h-15v-40.5h14.7c2.8,0,5.6,0.3,8.4,0.9c2.8,0.6,5.3,1.7,7.5,3.3c2.2,1.6,3.9,3.6,5.3,6.2
		C93.2,182.6,93.9,185.9,93.9,189.6z M83.7,189.6c0-2.3-0.3-4.2-1.1-5.8c-0.8-1.6-1.7-2.7-3-3.6c-1.2-0.9-2.7-1.6-4.2-1.9
		c-1.6-0.3-3.3-0.6-4.8-0.6h-4.8v23.7h4.7c1.7,0,3.4-0.2,5-0.6c1.6-0.5,3.1-1.1,4.4-2c1.2-0.9,2.2-2.2,3-3.6
		C83.3,193.8,83.7,191.8,83.7,189.6z"/>
	<path fill="#333333" d="M138.1,210l0.2-28.7h-0.2L127.5,210h-6.9l-10-28.7h-0.2l0.2,28.7h-9.2v-40.5h13.9l9.2,26h0.2l8.9-26h14.2
		V210H138.1z"/>
	<path fill="#333333" d="M157.3,210v-40.5h9.8V210H157.3z"/>
	<path fill="#333333" d="M202.4,210L186,183.5h-0.2L186,210h-9.5v-40.5h11.2l16.2,26.5h0.2l-0.2-26.5h9.5V210H202.4z"/>
	<path fill="#333333" d="M222.9,210v-40.5h9.8V210H222.9z"/>
	<path fill="#333333" d="M263.6,179.9c-0.8-1.1-1.9-1.9-3.3-2.5c-1.4-0.6-2.7-0.9-3.9-0.9c-0.6,0-1.2,0-2,0.2
		c-0.6,0.2-1.2,0.3-1.9,0.6c-0.5,0.3-0.9,0.8-1.4,1.2c-0.3,0.5-0.5,1.2-0.5,2c0,0.6,0.2,1.2,0.5,1.7c0.3,0.5,0.8,0.9,1.2,1.2
		c0.5,0.3,1.2,0.6,2,0.9c0.8,0.3,1.6,0.6,2.7,0.9c1.4,0.5,2.8,0.9,4.4,1.6c1.6,0.6,2.8,1.2,4.1,2.2c1.2,0.9,2.2,2,3,3.4
		c0.8,1.4,1.2,3.1,1.2,5c0,2.3-0.5,4.4-1.2,6.1c-0.8,1.7-2,3.1-3.4,4.2s-3.1,1.9-5,2.5c-1.9,0.5-3.7,0.8-5.8,0.8
		c-3,0-5.8-0.5-8.4-1.6c-2.7-0.9-5-2.5-6.7-4.4l6.4-6.5c0.9,1.2,2.3,2.2,3.9,3.1c1.6,0.8,3.3,1.2,4.8,1.2c0.8,0,1.4,0,2.2-0.2
		c0.6-0.2,1.2-0.5,1.9-0.8c0.5-0.3,0.9-0.8,1.2-1.4c0.3-0.6,0.5-1.2,0.5-2s-0.2-1.4-0.6-1.9c-0.3-0.5-0.9-1.1-1.6-1.4
		c-0.8-0.5-1.6-0.8-2.7-1.2c-1.1-0.5-2.2-0.8-3.6-1.2c-1.2-0.5-2.5-0.9-3.7-1.6c-1.2-0.6-2.3-1.2-3.3-2.2c-0.9-0.9-1.7-2-2.3-3.3
		c-0.6-1.2-0.9-2.8-0.9-4.7c0-2.2,0.5-4.2,1.4-5.8c0.9-1.6,2.2-3,3.6-3.9c1.6-1.1,3.1-1.7,5-2.2c1.9-0.5,3.7-0.8,5.6-0.8
		c2.3,0,4.7,0.5,7,1.2c2.3,0.8,4.5,2,6.2,3.7L263.6,179.9z"/>
	<path fill="#333333" d="M293.7,177.7v32.1h-9.8v-32.1h-11.4v-8.4h32.7v8.4H293.7z"/>
	<path fill="#333333" d="M379.9,210l-3.1-8H361l-3,8h-10.6l17-40.5h9.5l16.8,40.5H379.9z M369,180.2l-5.1,13.9H374L369,180.2z"/>
	<path fill="#333333" d="M409.2,177.7v32.1h-9.8v-32.1H388v-8.4h32.7v8.4H409.2z"/>
	<path fill="#333333" d="M426.2,210v-40.5h9.8V210H426.2z"/>
	<path fill="#333333" d="M487.8,189.6c0,3.3-0.6,6.1-1.7,8.7c-1.1,2.7-2.7,5-4.7,6.9c-2,1.9-4.4,3.3-7,4.4s-5.6,1.6-8.9,1.6
		c-3.1,0-6.1-0.5-8.7-1.6c-2.7-1.1-5-2.5-7-4.4c-2-1.9-3.4-4.2-4.7-6.9c-1.1-2.7-1.7-5.6-1.7-8.7c0-3.3,0.6-6.2,1.7-8.7
		c1.1-2.7,2.7-4.8,4.7-6.7c2-1.9,4.4-3.3,7-4.2c2.7-0.9,5.6-1.6,8.7-1.6s6.1,0.5,8.9,1.6c2.7,0.9,5,2.3,7,4.2c2,1.9,3.4,4.1,4.7,6.7
		C487.1,183.4,487.8,186.3,487.8,189.6z M477.3,189.6c0-1.7-0.3-3.4-0.9-5c-0.6-1.6-1.4-2.8-2.3-3.9s-2.2-1.9-3.6-2.7
		c-1.4-0.6-3-0.9-4.7-0.9s-3.3,0.3-4.7,0.9c-1.4,0.6-2.7,1.6-3.6,2.7c-1.1,1.1-1.9,2.3-2.3,3.9c-0.6,1.6-0.8,3.1-0.8,5
		s0.3,3.6,0.9,5c0.6,1.6,1.4,2.8,2.3,4.1c0.9,1.1,2.2,2,3.6,2.7c1.4,0.6,3,0.9,4.7,0.9s3.3-0.3,4.7-0.9c1.4-0.6,2.7-1.6,3.6-2.7
		s1.9-2.5,2.3-4.1C477,193,477.3,191.3,477.3,189.6z"/>
	<path fill="#333333" d="M521.1,210l-16.4-26.5h-0.2l0.2,26.5h-9.5v-40.5h11.2l16.2,26.5h0.2l-0.2-26.5h9.5V210H521.1z"/>
	<path fill="#333333" d="M557.1,210v-40.5h9.8V210H557.1z"/>
	<path fill="#333333" d="M602.2,210l-16.4-26.5h-0.2l0.2,26.5h-9.5v-40.5h11.2l16.2,26.5h0.2l-0.2-26.5h9.5V210H602.2z"/>
	<path fill="#333333" d="M640.1,177.7v32.1h-9.8v-32.1h-11.4v-8.4h32.7v8.4H640.1z"/>
	<path fill="#333333" d="M657.2,210v-40.5h27.3v8.3h-17.8v7.6h16.8v7.8h-16.8v8.4h18.9v8.4H657.2z"/>
	<path fill="#333333" d="M714.8,210l-8.9-16.1h-3.3V210h-9.5v-40.5h15.4c1.9,0,3.9,0.2,5.8,0.6c1.9,0.5,3.4,1.1,5,2
		c1.4,0.9,2.7,2.2,3.6,3.7c0.9,1.6,1.2,3.6,1.2,5.8c0,2.8-0.8,5-2.2,6.9c-1.6,1.9-3.6,3.3-6.2,4.1l10.6,17.3h-11.5V210z M714.3,182
		c0-0.9-0.2-1.7-0.6-2.3c-0.5-0.6-0.9-1.1-1.6-1.4s-1.4-0.5-2.2-0.6c-0.8-0.2-1.6-0.2-2.3-0.2h-5.3v9.5h4.7c0.8,0,1.6,0,2.5-0.2
		c0.8-0.2,1.6-0.3,2.3-0.8c0.8-0.5,1.2-0.8,1.7-1.6C714.1,183.8,714.3,182.9,714.3,182z"/>
	<path fill="#333333" d="M741.7,177.7v8.4h15.7v8.1h-15.7V210h-9.7v-40.5h26.7v8.4h-17V177.7z"/>
	<path fill="#333333" d="M790.5,210l-3.1-8h-15.7l-3,8h-10.6l17-40.5h9.5l16.8,40.5H790.5z M779.6,180.2l-5.1,13.9h10.1L779.6,180.2
		z"/>
	<path fill="#333333" d="M833.9,209.2c-2.7,1.2-5.6,1.9-9,1.9c-3.1,0-6.1-0.5-8.7-1.6s-5-2.5-6.9-4.4c-1.9-1.9-3.4-4.2-4.5-6.7
		c-1.1-2.7-1.7-5.5-1.7-8.7s0.6-6.2,1.7-8.9c1.1-2.7,2.7-4.8,4.7-6.7s4.4-3.3,7-4.2c2.7-0.9,5.6-1.6,8.6-1.6c2.8,0,5.6,0.5,8.4,1.6
		c2.8,0.9,5,2.5,6.7,4.4l-6.7,6.7c-0.9-1.2-2.2-2.2-3.6-2.8c-1.6-0.6-3-0.9-4.5-0.9c-1.7,0-3.3,0.3-4.7,0.9s-2.7,1.6-3.7,2.7
		c-1.1,1.1-1.9,2.3-2.3,3.9c-0.6,1.6-0.9,3.1-0.9,5s0.3,3.6,0.9,5c0.6,1.6,1.4,2.8,2.3,3.9c0.9,1.1,2.2,1.9,3.6,2.5s3,0.9,4.7,0.9
		c1.9,0,3.6-0.3,5.1-1.1c1.4-0.8,2.7-1.7,3.4-3l6.9,6.4C838.7,206.4,836.5,208,833.9,209.2z"/>
	<path fill="#333333" d="M845.9,210v-40.5h27.3v8.3h-17.8v7.6h16.8v7.8h-16.8v8.4h18.9v8.4H845.9z"/>
	<path fill="#333333" d="M55.5,275.3c0,3.3-0.6,6.1-1.7,8.7c-1.1,2.7-2.7,5-4.7,6.9c-2,1.9-4.4,3.3-7,4.4c-2.7,1.1-5.6,1.6-8.9,1.6
		c-3.1,0-6.1-0.5-8.7-1.6s-5-2.5-7-4.4c-1.9-1.9-3.4-4.2-4.5-6.9s-1.7-5.6-1.7-8.7c0-3.3,0.6-6.2,1.7-8.7c1.1-2.7,2.7-4.8,4.7-6.7
		c2-1.9,4.4-3.3,7-4.2s5.6-1.6,8.7-1.6s6.1,0.5,8.9,1.6c2.7,0.9,5,2.3,7,4.2c2,1.9,3.4,4.1,4.7,6.7
		C54.9,269.1,55.5,272.1,55.5,275.3z M44.9,275.3c0-1.7-0.3-3.4-0.9-5c-0.6-1.6-1.4-2.8-2.3-3.9s-2.2-1.9-3.6-2.7
		c-1.4-0.6-3-0.9-4.7-0.9s-3.3,0.3-4.7,0.9c-1.4,0.6-2.7,1.6-3.6,2.7c-1.1,1.1-1.9,2.3-2.3,3.9c-0.6,1.6-0.8,3.1-0.8,5
		c0,1.9,0.3,3.6,0.9,5c0.6,1.6,1.4,2.8,2.3,4.1c0.9,1.1,2.2,2,3.6,2.7c1.4,0.6,3,0.9,4.7,0.9s3.3-0.3,4.7-0.9s2.7-1.6,3.6-2.7
		s1.9-2.5,2.3-4.1C44.7,278.9,44.9,277.2,44.9,275.3z"/>
	<path fill="#333333" d="M72.7,263.7v8.3h15.7v8.1H72.7v15.7H63v-40.5h26.7v8.4H72.7z"/>
	<path fill="#333333" d="M134.2,295.8l-8.7-16.1h-3.3v16.1h-9.5v-40.5h15.4c1.9,0,3.9,0.2,5.8,0.6c1.9,0.5,3.3,1.1,4.8,2
		c1.4,0.9,2.7,2.2,3.6,3.7c0.9,1.6,1.2,3.6,1.2,5.8c0,2.8-0.8,5-2.2,6.9c-1.6,1.9-3.6,3.3-6.2,4.1l10.6,17.3h-11.5V295.8z
		 M133.9,267.7c0-0.9-0.2-1.7-0.6-2.3c-0.5-0.6-0.9-1.1-1.6-1.4c-0.6-0.3-1.4-0.5-2.2-0.6s-1.6-0.2-2.3-0.2h-5.3v9.5h4.7
		c0.8,0,1.6,0,2.5-0.2c0.8-0.2,1.6-0.3,2.3-0.8c0.8-0.5,1.2-0.8,1.7-1.6C133.6,269.6,133.9,268.6,133.9,267.7z"/>
	<path fill="#333333" d="M193.8,275.3c0,3.3-0.6,6.1-1.7,8.7s-2.7,5-4.7,6.9c-2,1.9-4.4,3.3-7,4.4s-5.6,1.6-8.9,1.6
		c-3.1,0-6.1-0.5-8.7-1.6s-5-2.5-7-4.4c-2-1.9-3.4-4.2-4.7-6.9c-1.1-2.7-1.7-5.6-1.7-8.7c0-3.3,0.6-6.2,1.7-8.7
		c1.1-2.7,2.7-4.8,4.7-6.7c2-1.9,4.4-3.3,7-4.2c2.7-0.9,5.6-1.6,8.7-1.6s6.1,0.5,8.9,1.6c2.7,0.9,5,2.3,7,4.2s3.4,4.1,4.7,6.7
		C193.3,269.1,193.8,272.1,193.8,275.3z M183.3,275.3c0-1.7-0.3-3.4-0.9-5s-1.4-2.8-2.3-3.9c-0.9-1.1-2.2-1.9-3.6-2.7
		c-1.4-0.6-3-0.9-4.7-0.9c-1.7,0-3.3,0.3-4.7,0.9s-2.7,1.6-3.6,2.7c-1.1,1.1-1.9,2.3-2.3,3.9c-0.6,1.6-0.8,3.1-0.8,5
		c0,1.9,0.3,3.6,0.9,5c0.6,1.6,1.4,2.8,2.3,4.1c0.9,1.1,2.2,2,3.6,2.7s3,0.9,4.7,0.9s3.3-0.3,4.7-0.9s2.7-1.6,3.6-2.7
		s1.9-2.5,2.3-4.1C183,278.9,183.3,277.2,183.3,275.3z"/>
	<path fill="#333333" d="M234.5,287.2c-0.8,2-2,3.7-3.6,5.1c-1.6,1.4-3.4,2.5-5.5,3.3c-2,0.8-4.5,1.2-7.2,1.2s-5.1-0.5-7.2-1.2
		c-2-0.8-3.9-1.9-5.5-3.3c-1.6-1.4-2.7-3.1-3.4-5.1c-0.8-2-1.2-4.2-1.2-6.7v-25.3h9.7v24.5c0,1.1,0.2,2.2,0.5,3.1
		c0.3,0.9,0.8,1.9,1.2,2.7c0.6,0.8,1.4,1.4,2.3,1.9c0.9,0.5,2.2,0.6,3.6,0.6c1.4,0,2.5-0.2,3.6-0.6c0.9-0.5,1.7-1.1,2.3-1.9
		c0.6-0.8,1.1-1.7,1.2-2.7c0.3-0.9,0.5-2,0.5-3.1v-24.5h9.8v25.3C235.7,283,235.4,285.2,234.5,287.2z"/>
	<path fill="#333333" d="M262.2,263.7v32.1h-9.8v-32.1H241v-8.4h32.7v8.4H262.2z"/>
	<path fill="#333333" d="M279.2,295.8v-40.5h27.3v8.3h-17.8v7.6h16.8v7.8h-16.8v8.4h18.9v8.4L279.2,295.8L279.2,295.8z"/>
	<path fill="#333333" d="M336.8,295.8l-8.7-16.1h-3.3v16.1h-9.5v-40.5h15.4c1.9,0,3.9,0.2,5.8,0.6c1.9,0.5,3.4,1.1,5,2
		c1.4,0.9,2.7,2.2,3.6,3.7c0.9,1.6,1.2,3.6,1.2,5.8c0,2.8-0.8,5-2.2,6.9c-1.6,1.9-3.6,3.3-6.2,4.1l10.6,17.3h-11.7V295.8z
		 M336.3,267.7c0-0.9-0.2-1.7-0.6-2.3c-0.5-0.6-0.9-1.1-1.6-1.4c-0.6-0.3-1.4-0.5-2.2-0.6s-1.6-0.2-2.3-0.2h-5.3v9.5h4.7
		c0.8,0,1.6,0,2.5-0.2c0.8-0.2,1.6-0.3,2.3-0.8c0.8-0.5,1.2-0.8,1.7-1.6C336.1,269.6,336.3,268.6,336.3,267.7z"/>
	<path fill="#333333" d="M385.6,263.7v32.1h-9.8v-32.1h-11.4v-8.4h32.7v8.4H385.6z"/>
	<path fill="#333333" d="M435.8,287.2c-0.8,2-2,3.7-3.6,5.1c-1.6,1.4-3.4,2.5-5.5,3.3c-2,0.8-4.7,1.2-7.3,1.2
		c-2.7,0-5.1-0.5-7.2-1.2c-2-0.8-3.9-1.9-5.5-3.3c-1.6-1.4-2.7-3.1-3.4-5.1c-0.8-2-1.2-4.2-1.2-6.7v-25.3h9.7v24.5
		c0,1.1,0.2,2.2,0.5,3.1c0.3,0.9,0.8,1.9,1.2,2.7c0.6,0.8,1.4,1.4,2.3,1.9c0.9,0.5,2.2,0.6,3.6,0.6s2.5-0.2,3.6-0.6
		c0.9-0.5,1.7-1.1,2.3-1.9c0.6-0.8,1.1-1.7,1.2-2.7c0.3-0.9,0.5-2,0.5-3.1v-24.5h9.8v25.3C436.8,283,436.5,285.2,435.8,287.2z"/>
	<path fill="#333333" d="M467.6,295.8l-8.7-16.1h-3.3v16.1h-9.7v-40.5h15.4c1.9,0,3.9,0.2,5.8,0.6c1.9,0.5,3.4,1.1,5,2
		c1.4,0.9,2.7,2.2,3.6,3.7c0.9,1.6,1.2,3.6,1.2,5.8c0,2.8-0.8,5-2.2,6.9c-1.6,1.9-3.6,3.3-6.2,4.1l10.6,17.3h-11.5V295.8z
		 M467.2,267.7c0-0.9-0.2-1.7-0.6-2.3c-0.5-0.6-0.9-1.1-1.6-1.4c-0.6-0.3-1.4-0.5-2.2-0.6s-1.6-0.2-2.3-0.2h-5.3v9.5h4.7
		c0.8,0,1.6,0,2.5-0.2c0.8-0.2,1.6-0.3,2.3-0.8c0.8-0.5,1.2-0.8,1.7-1.6C466.9,269.6,467.2,268.6,467.2,267.7z"/>
	<path fill="#333333" d="M506.7,295.8l-8.7-16.1h-3.3v16.1h-9.5v-40.5h15.4c1.9,0,3.9,0.2,5.8,0.6c1.9,0.5,3.4,1.1,5,2
		c1.4,0.9,2.7,2.2,3.6,3.7c0.9,1.6,1.2,3.6,1.2,5.8c0,2.8-0.8,5-2.2,6.9c-1.6,1.9-3.6,3.3-6.2,4.1l10.6,17.3h-11.7V295.8z
		 M506.2,267.7c0-0.9-0.2-1.7-0.6-2.3c-0.5-0.6-0.9-1.1-1.6-1.4c-0.6-0.3-1.4-0.5-2.2-0.6c-0.8-0.2-1.6-0.2-2.3-0.2h-5.3v9.5h4.7
		c0.8,0,1.6,0,2.5-0.2c0.8-0.2,1.6-0.3,2.3-0.8c0.8-0.5,1.2-0.8,1.7-1.6C506.1,269.6,506.2,268.6,506.2,267.7z"/>
	<path fill="#333333" d="M524.2,295.8v-40.5h9.8v40.5H524.2z"/>
	<path fill="#333333" d="M564.8,265.8c-0.8-1.1-1.9-1.9-3.3-2.5s-2.7-0.9-3.9-0.9c-0.6,0-1.2,0-2,0.2c-0.6,0.2-1.2,0.3-1.9,0.6
		c-0.5,0.3-0.9,0.8-1.4,1.2c-0.3,0.5-0.5,1.2-0.5,2c0,0.6,0.2,1.2,0.5,1.7c0.3,0.5,0.8,0.9,1.2,1.2c0.5,0.3,1.2,0.6,2,0.9
		c0.8,0.3,1.6,0.6,2.7,0.9c1.4,0.5,2.8,0.9,4.4,1.6c1.6,0.6,2.8,1.2,4.1,2.2c1.2,0.9,2.2,2,3,3.4c0.8,1.4,1.2,3.1,1.2,5
		c0,2.3-0.5,4.4-1.2,6.1s-2,3.1-3.4,4.2c-1.4,1.1-3.1,1.9-5,2.5c-1.9,0.5-3.7,0.8-5.8,0.8c-3,0-5.8-0.5-8.4-1.6
		c-2.7-0.9-5-2.5-6.7-4.4l6.4-6.5c0.9,1.2,2.3,2.2,3.9,3.1c1.6,0.8,3.3,1.2,4.8,1.2c0.8,0,1.4,0,2.2-0.2c0.6-0.2,1.2-0.5,1.9-0.8
		c0.5-0.3,0.9-0.8,1.2-1.4s0.5-1.2,0.5-2c0-0.8-0.2-1.4-0.6-1.9c-0.3-0.5-0.9-1.1-1.6-1.4c-0.8-0.5-1.6-0.8-2.7-1.2
		s-2.2-0.8-3.6-1.2c-1.2-0.5-2.5-0.9-3.7-1.6c-1.2-0.6-2.3-1.2-3.3-2.2s-1.7-2-2.3-3.3s-0.9-2.8-0.9-4.7c0-2.2,0.5-4.2,1.4-5.8
		c0.9-1.6,2.2-3,3.6-3.9c1.6-1.1,3.1-1.7,5-2.2c1.9-0.5,3.7-0.8,5.6-0.8c2.3,0,4.7,0.5,7,1.2c2.3,0.8,4.5,2,6.2,3.7L564.8,265.8z"/>
	<path fill="#333333" d="M333.2,209.5l-8.7-16.1h-3.3v16.1h-9.7V169H327c1.9,0,3.9,0.2,5.8,0.6c1.9,0.5,3.4,1.1,5,2
		c1.4,0.9,2.7,2.2,3.6,3.7c0.9,1.6,1.2,3.6,1.2,5.8c0,2.8-0.8,5-2.2,6.9c-1.6,1.9-3.6,3.3-6.2,4.1l10.6,17.3h-11.5V209.5z
		 M332.9,181.4c0-0.9-0.2-1.7-0.6-2.3c-0.5-0.6-0.9-1.1-1.6-1.4c-0.6-0.3-1.4-0.5-2.2-0.6c-0.8-0.2-1.6-0.2-2.3-0.2h-5.3v9.5h4.7
		c0.8,0,1.6,0,2.5-0.2c0.8-0.2,1.6-0.3,2.3-0.8c0.8-0.5,1.2-0.8,1.7-1.6C332.6,183.3,332.9,182.4,332.9,181.4z"/>
</g>
</svg>
