<?xml version="1.0" encoding="utf-8"?>
<!-- Generator: Adobe Illustrator 17.1.0, SVG Export Plug-In . SVG Version: 6.00 Build 0)  -->
<!DOCTYPE svg PUBLIC "-//W3C//DTD SVG 1.1//EN" "http://www.w3.org/Graphics/SVG/1.1/DTD/svg11.dtd">
<svg version="1.1" id="Layer_1" xmlns="http://www.w3.org/2000/svg" xmlns:xlink="http://www.w3.org/1999/xlink" x="0px" y="0px"
	 viewBox="0 212.6 841.9 170.1" enable-background="new 0 212.6 841.9 170.1" xml:space="preserve">
<g enable-background="new    ">
	<path fill="#CE1126" d="M24.9,261.7v10.2h19.2v9.9H24.9V301H13.1v-49.6h32.6v10.2H24.9z"/>
	<path fill="#CE1126" d="M105.1,276.1c0,3.9-0.7,7.5-2,10.7c-1.4,3.2-3.2,6-5.6,8.3c-2.4,2.3-5.3,4.1-8.6,5.4
		c-3.3,1.3-6.9,1.9-10.8,1.9c-3.9,0-7.5-0.6-10.7-1.9c-3.3-1.3-6.1-3-8.5-5.4c-2.4-2.3-4.3-5.1-5.6-8.3c-1.4-3.2-2-6.8-2-10.7
		c0-4,0.7-7.5,2-10.7c1.4-3.2,3.2-5.9,5.6-8.2c2.4-2.2,5.3-4,8.5-5.2c3.3-1.2,6.9-1.8,10.7-1.8c3.9,0,7.5,0.6,10.8,1.8
		c3.3,1.2,6.2,2.9,8.6,5.2c2.4,2.2,4.3,5,5.6,8.2C104.4,268.5,105.1,272.1,105.1,276.1z M92.2,276.1c0-2.1-0.4-4.2-1.1-6
		c-0.7-1.9-1.7-3.5-2.9-4.8c-1.2-1.3-2.7-2.4-4.5-3.2c-1.8-0.8-3.7-1.2-5.8-1.2c-2.1,0-4,0.4-5.7,1.2c-1.7,0.8-3.2,1.8-4.5,3.2
		s-2.2,2.9-2.9,4.8c-0.7,1.9-1,3.9-1,6c0,2.2,0.4,4.3,1.1,6.2c0.7,1.9,1.7,3.5,2.9,4.9c1.2,1.4,2.7,2.4,4.4,3.2
		c1.7,0.8,3.6,1.2,5.7,1.2c2.1,0,4-0.4,5.7-1.2c1.7-0.8,3.2-1.8,4.5-3.2c1.3-1.4,2.2-3,2.9-4.9C91.9,280.4,92.2,278.3,92.2,276.1z"
		/>
	<path fill="#CE1126" d="M139.5,301l-10.8-19.7h-4.1V301H113v-49.6h18.9c2.4,0,4.7,0.2,7,0.7c2.3,0.5,4.3,1.3,6.1,2.5
		c1.8,1.2,3.2,2.7,4.3,4.6c1.1,1.9,1.6,4.3,1.6,7.1c0,3.4-0.9,6.2-2.7,8.5c-1.8,2.3-4.3,3.9-7.6,4.9l13,21.2H139.5z M139,266.7
		c0-1.2-0.2-2.1-0.7-2.8c-0.5-0.7-1.1-1.3-1.9-1.7c-0.8-0.4-1.6-0.7-2.6-0.8s-1.9-0.2-2.8-0.2h-6.4v11.6h5.7c1,0,2-0.1,3-0.2
		c1-0.2,2-0.5,2.8-0.9c0.8-0.4,1.5-1,2.1-1.8C138.7,269,139,267.9,139,266.7z"/>
	<path fill="#CE1126" d="M159.4,301v-49.6h12V301H159.4z"/>
	<path fill="#CE1126" d="M207.8,264.4c-1-1.3-2.4-2.3-4-3.1c-1.7-0.8-3.3-1.2-4.8-1.2c-0.8,0-1.6,0.1-2.4,0.2
		c-0.8,0.1-1.6,0.4-2.2,0.8c-0.7,0.4-1.2,0.9-1.6,1.5c-0.4,0.6-0.7,1.4-0.7,2.4c0,0.8,0.2,1.5,0.5,2.1s0.9,1.1,1.5,1.5
		c0.7,0.4,1.5,0.8,2.4,1.2c0.9,0.4,2,0.7,3.2,1.1c1.7,0.6,3.4,1.2,5.3,1.9c1.8,0.7,3.5,1.6,5,2.7c1.5,1.1,2.7,2.5,3.7,4.2
		c1,1.7,1.5,3.7,1.5,6.2c0,2.8-0.5,5.3-1.6,7.4c-1.1,2.1-2.5,3.8-4.2,5.1c-1.8,1.4-3.8,2.4-6.1,3c-2.3,0.7-4.6,1-7.1,1
		c-3.5,0-7-0.6-10.3-1.9c-3.3-1.2-6.1-3-8.3-5.3l7.8-8c1.2,1.5,2.8,2.7,4.8,3.7c2,1,4,1.5,5.9,1.5c0.9,0,1.8-0.1,2.6-0.3
		c0.8-0.2,1.6-0.5,2.2-0.9c0.6-0.4,1.1-1,1.5-1.7c0.4-0.7,0.6-1.5,0.6-2.5c0-0.9-0.2-1.7-0.7-2.4c-0.5-0.7-1.1-1.2-2-1.8
		c-0.9-0.5-1.9-1-3.2-1.5c-1.3-0.4-2.7-0.9-4.4-1.4c-1.6-0.5-3.1-1.1-4.7-1.8c-1.5-0.7-2.9-1.6-4.1-2.7c-1.2-1.1-2.1-2.4-2.9-4
		c-0.7-1.6-1.1-3.5-1.1-5.7c0-2.8,0.6-5.1,1.7-7.1c1.1-2,2.6-3.6,4.4-4.8s3.9-2.2,6.2-2.8c2.3-0.6,4.6-0.9,6.9-0.9
		c2.8,0,5.7,0.5,8.6,1.5c2.9,1,5.5,2.5,7.7,4.6L207.8,264.4z"/>
</g>
<g id="gear-9-icon_7_">
	<path fill="#B3B3B3" d="M336.2,297.1c-1.5-2.7-1.7-6-0.7-9l0,0c1-3,3.3-5.3,6.2-6.6l7.6-3.2l-0.8-14.3l-8-2.4c-3-0.9-5.5-3-6.8-5.8
		l0,0c-1.4-2.8-1.5-6.1-0.2-9.1l3.1-7.6l-10.7-9.7l-7.3,4c-2.7,1.5-6,1.7-9,0.7l0,0c-3-1-5.3-3.3-6.6-6.2l-3.2-7.5l-14.3,0.8
		l-2.4,7.8c-0.9,3.1-3.1,5.6-5.9,6.8l0,0c-2.8,1.4-6.1,1.5-9,0.2l-7.6-3.2l-9.7,10.7l3.9,7.3c1.5,2.7,1.7,6,0.7,9l0,0
		c-1,3-3.3,5.3-6.2,6.6l-7.6,3.2l0.8,14.3l7.8,2.4c3.1,0.9,5.6,3.1,6.8,5.9l0,0c1.4,2.8,1.5,6.1,0.2,9l-3.2,7.6l10.7,9.7l7.3-4
		c2.7-1.5,6-1.7,9-0.7l0,0c3,1,5.3,3.3,6.6,6.2l3.2,7.6l14.3-0.8l2.4-7.8c0.9-3.1,3.1-5.6,5.9-6.8l0,0c2.8-1.4,6.1-1.5,9-0.2
		l7.6,3.2l9.7-10.7L336.2,297.1z M310.2,287.1c-7.3,8.1-19.5,8.6-27.6,1.5c-8.1-7.3-8.6-19.5-1.5-27.6c7.3-8.1,19.5-8.6,27.6-1.5
		C316.8,266.7,317.3,279,310.2,287.1z M402,301.3c-0.8-1.5-0.9-3.2-0.3-4.8l0,0c0.6-1.6,1.7-2.8,3.3-3.5l4.1-1.7l-0.5-7.6l-4.2-1.2
		c-1.6-0.5-3-1.6-3.6-3.1l0,0c-0.7-1.5-0.8-3.3-0.1-4.9l1.7-4l-5.7-5.1l-3.9,2c-1.5,0.8-3.2,0.9-4.8,0.3l0,0
		c-1.6-0.6-2.8-1.7-3.5-3.3l-1.7-4.1l-7.6,0.5l-1.2,4.2c-0.5,1.6-1.6,3-3.1,3.6l0,0c-1.5,0.7-3.3,0.8-4.8,0.1l-4.1-1.7l-5.1,5.7
		l2,3.9c0.8,1.5,0.9,3.2,0.3,4.8l0,0c-0.6,1.6-1.7,2.8-3.3,3.5l-4.1,1.7l0.5,7.6l4.2,1.2c1.6,0.5,3,1.6,3.6,3.1l0,0
		c0.7,1.5,0.8,3.3,0.1,4.8l-1.7,4.1l5.7,5.1l3.9-2c1.5-0.8,3.2-0.9,4.8-0.3l0,0c1.6,0.6,2.8,1.7,3.5,3.3l1.7,4.1l7.6-0.5l1.2-4.2
		c0.5-1.6,1.6-3,3.1-3.6l0,0c1.5-0.7,3.3-0.8,4.8-0.1l4.1,1.7l5.1-5.7L402,301.3z M388.2,295.9c-3.9,4.3-10.5,4.7-14.7,0.8
		c-4.3-3.9-4.7-10.5-0.8-14.7c3.9-4.3,10.5-4.7,14.7-0.8C391.6,285.1,392,291.7,388.2,295.9z"/>
	<path fill="#4D4D4D" d="M290.2,329.3l-3.6-8.7c-1-2.5-3.1-4.4-5.6-5.2l-0.2-0.1c-2.4-0.8-5.1-0.6-7.4,0.7l-8.3,4.5l-12.5-11.2
		l3.6-8.7c1-2.4,0.9-5.1-0.1-7.5l-0.1-0.1c-1.1-2.4-3.3-4.2-5.8-5l-9.1-2.7l-0.9-16.7l8.7-3.6c2.4-1,4.3-3,5.2-5.5v-0.1
		c0.9-2.5,0.7-5.3-0.6-7.6l-4.5-8.3l11.2-12.5l8.7,3.6c2.4,1,5.1,0.9,7.5-0.1h0.1c2.4-1.1,4.2-3.3,5-5.8l2.7-9.1l16.7-0.9l3.6,8.7
		c1,2.5,3.1,4.4,5.6,5.2l0.2,0.1c2.4,0.8,5.1,0.6,7.4-0.7l8.3-4.5l12.5,11.2l-3.5,8.6c-1,2.5-0.9,5.3,0.2,7.7v0.1
		c1.1,2.3,3.2,4.1,5.7,4.8l9.1,2.7l0.9,16.7l-8.7,3.6c-2.5,1-4.3,3.1-5.2,5.6c-0.9,2.5-0.7,5.3,0.6,7.6l4.5,8.3L331,317l-8.7-3.6
		c-2.4-1-5.1-0.9-7.4,0.1l-0.2,0.1c-2.4,1.1-4.2,3.3-5,5.8l-2.7,9.1L290.2,329.3z M282.4,312.3c3.2,1.2,5.8,3.7,7.2,7l2.7,6.5
		l11.9-0.7l2-6.7c1-3.3,3.3-6.1,6.4-7.7l0,0l0.5-0.2c3.2-1.6,7-1.6,10.5-0.2l6.5,2.7l8-8.9l-3.3-6.1c-1.7-3.2-2-6.9-0.8-10.3
		c1.2-3.4,3.9-6.1,7.2-7.6l6.5-2.7l-0.7-11.9l-6.8-2c-3.4-1-6.1-3.3-7.7-6.5l-0.3-0.3v-0.3c-1.4-3.2-1.5-6.8-0.1-10.1l2.6-6.5
		l-8.9-8l-6.1,3.3c-3.2,1.7-6.9,2-10.3,0.8l-0.2-0.1c-3.3-1.2-5.9-3.7-7.3-7l-2.8-6.4l-11.9,0.7l-2,6.7c-1,3.3-3.2,6-6.2,7.6l0,0
		l-0.6,0.2c-3.2,1.6-7,1.6-10.5,0.2l-6.5-2.7l-8,8.9l3.3,6.1c1.7,3.1,2,6.7,0.9,10.1l0,0l-0.1,0.2c-1.2,3.4-3.9,6.1-7.2,7.6
		l-6.5,2.7l0.7,11.9l6.7,2c3.4,1,6.2,3.4,7.8,6.5l0,0l0.1,0.2c1.6,3.3,1.7,7,0.2,10.5l-2.7,6.5l8.9,8l6.1-3.3c3.2-1.7,7-2,10.3-0.8
		L282.4,312.3z M377.1,319.3l-2.2-5.1c-0.5-1.1-1.4-1.9-2.5-2.4l0,0c-1.1-0.3-2.4-0.2-3.4,0.2l-4.9,2.6l-7.5-6.7l2.2-5.1
		c0.5-1.1,0.5-2.4-0.1-3.4c-0.6-1-1.5-1.9-2.6-2.3l-5.3-1.6l-0.6-10l5.1-2.2c1.1-0.5,1.9-1.4,2.4-2.5c0.3-1.1,0.3-2.4-0.2-3.4
		l-2.6-4.9l6.7-7.5l5.1,2.2c1,0.5,2.3,0.5,3.3,0l0.1-0.1c1-0.5,1.9-1.5,2.3-2.6l1.6-5.3l10-0.6l2.2,5.1c0.5,1.1,1.4,1.9,2.5,2.4
		c1.1,0.3,2.4,0.3,3.4-0.2l4.9-2.6l7.5,6.7l-2.2,5.1c-0.5,1.1-0.5,2.4,0.1,3.4c0.5,1,1.5,1.8,2.6,2.2l5.3,1.6l0.6,10l-5.1,2.2
		c-1.1,0.5-1.9,1.4-2.4,2.5c-0.3,1.1-0.3,2.4,0.2,3.4l2.6,4.9l-6.7,7.5l-5.1-2.2c-1.1-0.5-2.4-0.5-3.4,0.1c-1,0.6-1.9,1.5-2.3,2.6
		l-1.6,5.3L377.1,319.3z M373.7,308.7c1.9,0.7,3.5,2.3,4.4,4.2l1.2,3l5.2-0.2l0.9-3.1c0.6-2,2-3.7,4-4.7c1.9-0.9,4.2-1,6.1-0.1
		l3,1.2l3.5-3.9l-1.5-2.8c-1-1.9-1.2-4.1-0.5-6.1c0.7-2,2.3-3.6,4.2-4.5l3-1.2l-0.2-5.2l-3.1-0.9c-2-0.6-3.7-2-4.7-4
		c-0.9-1.9-1-4.2-0.1-6.2l1.2-3l-3.9-3.5l-2.8,1.5c-1.8,1-4.1,1.1-6.1,0.5c-2-0.7-3.6-2.3-4.5-4.2l-1.2-3l-5.2,0.2l-0.9,3.1
		c-0.6,1.9-1.9,3.5-3.6,4.5l0,0l-0.3,0.2c-1.9,0.9-4.2,1-6.1,0.1l-3.2-1.2l-3.5,3.9l1.5,2.8c1,1.9,1.2,4.1,0.5,6.1
		c-0.7,2-2.3,3.6-4.2,4.5l-3,1.2l0.2,5.2l3.1,0.9c2,0.6,3.7,2,4.7,4c0.9,1.9,1,4.2,0.1,6.1l-1.2,3l3.9,3.5l2.8-1.5
		C369.3,308.1,371.5,307.9,373.7,308.7L373.7,308.7z M380.5,301.2c-3,0-5.9-1.1-8.1-3.1c-2.4-2.2-3.9-5.1-4-8.4
		c-0.1-3.2,0.9-6.4,3.1-8.7c2.3-2.5,5.6-4,9-4c3,0,5.9,1.1,8.1,3.1c2.4,2.2,3.9,5.1,4,8.4c0.2,3.2-0.9,6.4-3.1,8.7
		C387.2,299.7,383.9,301.2,380.5,301.2z M380.5,280.4c-2.5,0-4.8,1-6.5,2.8c-1.6,1.7-2.4,4-2.3,6.2s1.1,4.4,2.8,6
		c1.6,1.5,3.6,2.3,5.8,2.3c2.5,0,4.8-1,6.5-2.8c1.6-1.7,2.4-4,2.3-6.2c-0.1-2.3-1.1-4.4-2.8-6C384.7,281.2,382.7,280.4,380.5,280.4z
		 M295.6,295.3c-5.2,0-10.3-1.9-14.2-5.5c-4.2-3.7-6.7-9-7-14.7c-0.3-5.7,1.6-11.1,5.5-15.3c4-4.4,9.8-7,15.8-7
		c5.2,0,10.3,1.9,14.2,5.5c8.7,7.8,9.4,21.4,1.6,30C307.4,292.6,301.6,295.3,295.6,295.3z M295.6,256.2c-5,0-9.9,2.2-13.3,5.9
		c-3.2,3.5-4.8,8.1-4.5,12.8c0.2,4.8,2.4,9.1,5.9,12.3c3.3,3,7.5,4.5,11.9,4.5c5.1,0,9.9-2.2,13.3-5.9c6.6-7.3,6-18.6-1.4-25.2
		C304.3,257.8,300.1,256.2,295.6,256.2z"/>
</g>
<g>
	<g enable-background="new    ">
		<path fill="#333333" d="M28.8,367.3l-1.8-4.7h-9.2l-1.7,4.7H9.8l9.9-23.7h5.6l9.8,23.7H28.8z M22.4,349.9l-3,8.1h6L22.4,349.9z"/>
		<path fill="#333333" d="M59.2,355.4c0,2.1-0.4,3.9-1.2,5.4c-0.8,1.5-1.8,2.7-3,3.7c-1.3,1-2.7,1.7-4.3,2.1
			c-1.6,0.5-3.2,0.7-4.8,0.7h-8.8v-23.7h8.6c1.7,0,3.3,0.2,5,0.6c1.6,0.4,3.1,1,4.4,1.9c1.3,0.9,2.3,2.1,3.1,3.6
			C58.9,351.3,59.2,353.2,59.2,355.4z M53.3,355.4c0-1.3-0.2-2.4-0.7-3.3c-0.4-0.9-1-1.6-1.7-2.1c-0.7-0.5-1.6-0.9-2.5-1.1
			c-0.9-0.2-1.9-0.3-2.9-0.3h-2.8v13.9h2.7c1,0,2-0.1,3-0.4s1.8-0.6,2.5-1.2c0.7-0.5,1.3-1.2,1.7-2.1
			C53.1,357.8,53.3,356.7,53.3,355.4z"/>
		<path fill="#333333" d="M84.5,367.3l0.1-16.8h-0.1l-6.2,16.8h-4l-6-16.8h-0.1l0.1,16.8H63v-23.7h8.1l5.4,15.2h0.1l5.2-15.2h8.3
			v23.7H84.5z"/>
		<path fill="#333333" d="M95,367.3v-23.7h5.8v23.7H95z"/>
		<path fill="#333333" d="M120.7,367.3l-9.5-15.5h-0.1l0.1,15.5h-5.6v-23.7h6.5l9.5,15.5h0.1l-0.1-15.5h5.6v23.7H120.7z"/>
		<path fill="#333333" d="M132.1,367.3v-23.7h5.8v23.7H132.1z"/>
		<path fill="#333333" d="M155.3,349.8c-0.5-0.6-1.1-1.1-1.9-1.5c-0.8-0.4-1.6-0.6-2.3-0.6c-0.4,0-0.8,0-1.2,0.1s-0.7,0.2-1.1,0.4
			c-0.3,0.2-0.6,0.4-0.8,0.7c-0.2,0.3-0.3,0.7-0.3,1.2c0,0.4,0.1,0.7,0.3,1s0.4,0.5,0.7,0.7c0.3,0.2,0.7,0.4,1.2,0.6
			c0.4,0.2,0.9,0.3,1.5,0.5c0.8,0.3,1.6,0.6,2.5,0.9c0.9,0.3,1.7,0.8,2.4,1.3c0.7,0.5,1.3,1.2,1.8,2c0.5,0.8,0.7,1.8,0.7,3
			c0,1.4-0.3,2.5-0.8,3.5c-0.5,1-1.2,1.8-2,2.5s-1.8,1.1-2.9,1.4c-1.1,0.3-2.2,0.5-3.4,0.5c-1.7,0-3.3-0.3-4.9-0.9
			c-1.6-0.6-2.9-1.4-4-2.5l3.7-3.8c0.6,0.7,1.3,1.3,2.3,1.8c0.9,0.5,1.9,0.7,2.8,0.7c0.4,0,0.8,0,1.2-0.1c0.4-0.1,0.8-0.2,1.1-0.4
			c0.3-0.2,0.5-0.5,0.7-0.8c0.2-0.3,0.3-0.7,0.3-1.2c0-0.4-0.1-0.8-0.3-1.1c-0.2-0.3-0.5-0.6-1-0.9c-0.4-0.3-0.9-0.5-1.5-0.7
			c-0.6-0.2-1.3-0.4-2.1-0.7c-0.8-0.2-1.5-0.5-2.2-0.9c-0.7-0.3-1.4-0.8-1.9-1.3c-0.6-0.5-1-1.2-1.4-1.9c-0.3-0.7-0.5-1.7-0.5-2.7
			c0-1.3,0.3-2.4,0.8-3.4c0.5-0.9,1.2-1.7,2.1-2.3c0.9-0.6,1.9-1,2.9-1.3c1.1-0.3,2.2-0.4,3.3-0.4c1.3,0,2.7,0.2,4.1,0.7
			c1.4,0.5,2.6,1.2,3.7,2.2L155.3,349.8z"/>
		<path fill="#333333" d="M172.2,348.5v18.8h-5.7v-18.8h-6.7v-4.9h19.1v4.9H172.2z"/>
		<path fill="#333333" d="M221.6,367.3l-1.8-4.7h-9.2l-1.7,4.7h-6.2l9.9-23.7h5.6l9.8,23.7H221.6z M215.2,349.9l-3,8.1h6
			L215.2,349.9z"/>
		<path fill="#333333" d="M238.1,348.5v18.8h-5.7v-18.8h-6.7v-4.9h19.1v4.9H238.1z"/>
		<path fill="#333333" d="M247.4,367.3v-23.7h5.8v23.7H247.4z"/>
		<path fill="#333333" d="M282.7,355.4c0,1.9-0.3,3.6-1,5.1c-0.6,1.6-1.5,2.9-2.7,4c-1.1,1.1-2.5,2-4.1,2.6
			c-1.6,0.6-3.3,0.9-5.2,0.9c-1.9,0-3.6-0.3-5.1-0.9s-2.9-1.5-4.1-2.6c-1.1-1.1-2-2.4-2.7-4c-0.6-1.6-1-3.3-1-5.1
			c0-1.9,0.3-3.6,1-5.1c0.6-1.5,1.5-2.8,2.7-3.9c1.1-1.1,2.5-1.9,4.1-2.5c1.6-0.6,3.3-0.9,5.1-0.9c1.9,0,3.6,0.3,5.2,0.9
			c1.6,0.6,3,1.4,4.1,2.5c1.1,1.1,2,2.4,2.7,3.9C282.4,351.7,282.7,353.5,282.7,355.4z M276.6,355.4c0-1-0.2-2-0.5-2.9
			c-0.3-0.9-0.8-1.7-1.4-2.3c-0.6-0.6-1.3-1.1-2.1-1.5s-1.8-0.6-2.8-0.6s-1.9,0.2-2.7,0.6s-1.5,0.9-2.1,1.5s-1.1,1.4-1.4,2.3
			c-0.3,0.9-0.5,1.9-0.5,2.9c0,1.1,0.2,2.1,0.5,3s0.8,1.7,1.4,2.3s1.3,1.2,2.1,1.5c0.8,0.4,1.7,0.6,2.7,0.6s1.9-0.2,2.7-0.6
			c0.8-0.4,1.5-0.9,2.1-1.5s1.1-1.4,1.4-2.3C276.4,357.4,276.6,356.4,276.6,355.4z"/>
		<path fill="#333333" d="M301.6,367.3l-9.5-15.5H292l0.1,15.5h-5.6v-23.7h6.5l9.5,15.5h0.1l-0.1-15.5h5.6v23.7H301.6z"/>
		<path fill="#333333" d="M321.3,367.3v-23.7h5.8v23.7H321.3z"/>
		<path fill="#333333" d="M347.1,367.3l-9.5-15.5h-0.1l0.1,15.5H332v-23.7h6.5l9.5,15.5h0.1l-0.1-15.5h5.6v23.7H347.1z"/>
		<path fill="#333333" d="M368.6,348.5v18.8h-5.7v-18.8h-6.7v-4.9h19.1v4.9H368.6z"/>
		<path fill="#333333" d="M377.9,367.3v-23.7h15.9v4.8h-10.4v4.5h9.8v4.6h-9.8v4.9h11v4.9H377.9z"/>
		<path fill="#333333" d="M410.9,367.3l-5.1-9.4h-2v9.4h-5.6v-23.7h9c1.1,0,2.2,0.1,3.3,0.4c1.1,0.2,2.1,0.6,2.9,1.2
			c0.9,0.6,1.5,1.3,2.1,2.2c0.5,0.9,0.8,2.1,0.8,3.4c0,1.6-0.4,3-1.3,4.1c-0.9,1.1-2.1,1.9-3.6,2.3l6.2,10.1H410.9z M410.7,350.9
			c0-0.6-0.1-1-0.4-1.4c-0.2-0.3-0.5-0.6-0.9-0.8s-0.8-0.3-1.2-0.4c-0.5-0.1-0.9-0.1-1.3-0.1h-3.1v5.5h2.7c0.5,0,1,0,1.4-0.1
			c0.5-0.1,0.9-0.2,1.3-0.4c0.4-0.2,0.7-0.5,1-0.9C410.5,352,410.7,351.5,410.7,350.9z"/>
		<path fill="#333333" d="M426.1,348.5v4.9h9.2v4.7h-9.2v9.2h-5.7v-23.7H436v4.9H426.1z"/>
		<path fill="#333333" d="M454,367.3l-1.8-4.7h-9.2l-1.7,4.7H435l9.9-23.7h5.6l9.8,23.7H454z M447.6,349.9l-3,8.1h6L447.6,349.9z"/>
		<path fill="#333333" d="M478.7,366.9c-1.5,0.7-3.3,1.1-5.3,1.1c-1.8,0-3.5-0.3-5.1-0.9c-1.6-0.6-2.9-1.5-4-2.6
			c-1.1-1.1-2-2.4-2.7-4c-0.6-1.5-1-3.2-1-5.1c0-1.9,0.3-3.6,1-5.2c0.7-1.5,1.6-2.9,2.7-3.9c1.2-1.1,2.5-1.9,4.1-2.5
			c1.6-0.6,3.2-0.9,5.1-0.9c1.7,0,3.3,0.3,4.9,0.9c1.6,0.6,2.9,1.5,3.9,2.6l-3.9,3.9c-0.5-0.7-1.2-1.3-2.1-1.6
			c-0.9-0.4-1.8-0.5-2.7-0.5c-1,0-1.9,0.2-2.8,0.6c-0.8,0.4-1.6,0.9-2.2,1.5c-0.6,0.6-1.1,1.4-1.4,2.3s-0.5,1.8-0.5,2.9
			c0,1.1,0.2,2.1,0.5,2.9c0.3,0.9,0.8,1.7,1.4,2.3c0.6,0.6,1.3,1.1,2.1,1.5c0.8,0.4,1.7,0.5,2.7,0.5c1.1,0,2.1-0.2,3-0.7
			c0.8-0.4,1.5-1,2-1.7l4,3.8C481.5,365.2,480.2,366.2,478.7,366.9z"/>
		<path fill="#333333" d="M485,367.3v-23.7h15.9v4.8h-10.4v4.5h9.8v4.6h-9.8v4.9h11v4.9H485z"/>
		<path fill="#333333" d="M538.4,355.4c0,1.9-0.3,3.6-1,5.1c-0.6,1.6-1.5,2.9-2.7,4c-1.2,1.1-2.5,2-4.1,2.6s-3.3,0.9-5.2,0.9
			s-3.6-0.3-5.1-0.9s-2.9-1.5-4.1-2.6s-2-2.4-2.7-4c-0.6-1.6-1-3.3-1-5.1c0-1.9,0.3-3.6,1-5.1c0.6-1.5,1.5-2.8,2.7-3.9
			s2.5-1.9,4.1-2.5c1.6-0.6,3.3-0.9,5.1-0.9s3.6,0.3,5.2,0.9c1.6,0.6,3,1.4,4.1,2.5c1.1,1.1,2,2.4,2.7,3.9
			C538.1,351.7,538.4,353.5,538.4,355.4z M532.3,355.4c0-1-0.2-2-0.5-2.9c-0.3-0.9-0.8-1.7-1.4-2.3c-0.6-0.6-1.3-1.1-2.1-1.5
			s-1.8-0.6-2.8-0.6c-1,0-1.9,0.2-2.7,0.6s-1.5,0.9-2.1,1.5s-1.1,1.4-1.4,2.3c-0.3,0.9-0.5,1.9-0.5,2.9c0,1.1,0.2,2.1,0.5,3
			c0.3,0.9,0.8,1.7,1.4,2.3s1.3,1.2,2.1,1.5c0.8,0.4,1.7,0.6,2.7,0.6c1,0,1.9-0.2,2.7-0.6c0.8-0.4,1.5-0.9,2.1-1.5s1.1-1.4,1.4-2.3
			S532.3,356.4,532.3,355.4z"/>
		<path fill="#333333" d="M547.8,348.5v4.9h9.2v4.7h-9.2v9.2h-5.7v-23.7h15.6v4.9H547.8z"/>
		<path fill="#333333" d="M582.5,367.3l-5.1-9.4h-2v9.4h-5.6v-23.7h9c1.1,0,2.2,0.1,3.3,0.4c1.1,0.2,2.1,0.6,2.9,1.2
			c0.9,0.6,1.5,1.3,2.1,2.2c0.5,0.9,0.8,2.1,0.8,3.4c0,1.6-0.4,3-1.3,4.1c-0.9,1.1-2.1,1.9-3.6,2.3l6.2,10.1H582.5z M582.3,350.9
			c0-0.6-0.1-1-0.4-1.4c-0.2-0.3-0.5-0.6-0.9-0.8s-0.8-0.3-1.2-0.4c-0.5-0.1-0.9-0.1-1.3-0.1h-3.1v5.5h2.7c0.5,0,1,0,1.4-0.1
			c0.5-0.1,0.9-0.2,1.3-0.4c0.4-0.2,0.7-0.5,1-0.9C582.2,352,582.3,351.5,582.3,350.9z"/>
		<path fill="#333333" d="M616.7,355.4c0,1.9-0.3,3.6-1,5.1c-0.6,1.6-1.5,2.9-2.7,4c-1.2,1.1-2.5,2-4.1,2.6s-3.3,0.9-5.2,0.9
			s-3.6-0.3-5.1-0.9s-2.9-1.5-4.1-2.6s-2-2.4-2.7-4c-0.6-1.6-1-3.3-1-5.1c0-1.9,0.3-3.6,1-5.1c0.6-1.5,1.5-2.8,2.7-3.9
			s2.5-1.9,4.1-2.5c1.6-0.6,3.3-0.9,5.1-0.9s3.6,0.3,5.2,0.9c1.6,0.6,3,1.4,4.1,2.5c1.1,1.1,2,2.4,2.7,3.9
			C616.4,351.7,616.7,353.5,616.7,355.4z M610.6,355.4c0-1-0.2-2-0.5-2.9c-0.3-0.9-0.8-1.7-1.4-2.3c-0.6-0.6-1.3-1.1-2.1-1.5
			s-1.8-0.6-2.8-0.6c-1,0-1.9,0.2-2.7,0.6s-1.5,0.9-2.1,1.5s-1.1,1.4-1.4,2.3c-0.3,0.9-0.5,1.9-0.5,2.9c0,1.1,0.2,2.1,0.5,3
			c0.3,0.9,0.8,1.7,1.4,2.3s1.3,1.2,2.1,1.5c0.8,0.4,1.7,0.6,2.7,0.6c1,0,1.9-0.2,2.7-0.6c0.8-0.4,1.5-0.9,2.1-1.5s1.1-1.4,1.4-2.3
			S610.6,356.4,610.6,355.4z"/>
		<path fill="#333333" d="M639.9,362.3c-0.5,1.2-1.2,2.2-2.1,3s-2,1.5-3.2,2c-1.3,0.5-2.7,0.7-4.2,0.7c-1.6,0-3-0.2-4.2-0.7
			c-1.3-0.5-2.3-1.1-3.2-2c-0.9-0.8-1.5-1.8-2-3s-0.7-2.5-0.7-3.9v-14.8h5.7v14.3c0,0.6,0.1,1.3,0.3,1.8c0.2,0.6,0.4,1.1,0.8,1.6
			c0.3,0.5,0.8,0.8,1.4,1.1c0.6,0.3,1.3,0.4,2.1,0.4c0.8,0,1.5-0.1,2.1-0.4c0.6-0.3,1-0.6,1.4-1.1c0.4-0.5,0.6-1,0.8-1.6
			c0.2-0.6,0.2-1.2,0.2-1.8v-14.3h5.7v14.8C640.6,359.8,640.4,361.1,639.9,362.3z"/>
		<path fill="#333333" d="M655.4,348.5v18.8h-5.7v-18.8H643v-4.9h19.1v4.9H655.4z"/>
		<path fill="#333333" d="M664.7,367.3v-23.7h15.9v4.8h-10.4v4.5h9.8v4.6h-9.8v4.9h11v4.9H664.7z"/>
		<path fill="#333333" d="M697.7,367.3l-5.1-9.4h-2v9.4H685v-23.7h9c1.1,0,2.2,0.1,3.3,0.4c1.1,0.2,2.1,0.6,2.9,1.2
			c0.9,0.6,1.5,1.3,2.1,2.2c0.5,0.9,0.8,2.1,0.8,3.4c0,1.6-0.4,3-1.3,4.1c-0.9,1.1-2.1,1.9-3.6,2.3l6.2,10.1H697.7z M697.5,350.9
			c0-0.6-0.1-1-0.4-1.4c-0.2-0.3-0.5-0.6-0.9-0.8s-0.8-0.3-1.2-0.4c-0.5-0.1-0.9-0.1-1.3-0.1h-3.1v5.5h2.7c0.5,0,1,0,1.4-0.1
			c0.5-0.1,0.9-0.2,1.3-0.4c0.4-0.2,0.7-0.5,1-0.9C697.3,352,697.5,351.5,697.5,350.9z"/>
		<path fill="#333333" d="M724.9,348.5v18.8h-5.7v-18.8h-6.7v-4.9h19.1v4.9H724.9z"/>
		<path fill="#333333" d="M753.6,362.3c-0.5,1.2-1.2,2.2-2.1,3s-2,1.5-3.2,2c-1.3,0.5-2.7,0.7-4.2,0.7c-1.6,0-3-0.2-4.2-0.7
			c-1.3-0.5-2.3-1.1-3.2-2c-0.9-0.8-1.5-1.8-2-3s-0.7-2.5-0.7-3.9v-14.8h5.7v14.3c0,0.6,0.1,1.3,0.3,1.8c0.2,0.6,0.4,1.1,0.8,1.6
			c0.3,0.5,0.8,0.8,1.4,1.1c0.6,0.3,1.3,0.4,2.1,0.4c0.8,0,1.5-0.1,2.1-0.4c0.6-0.3,1-0.6,1.4-1.1c0.4-0.5,0.6-1,0.8-1.6
			c0.2-0.6,0.2-1.2,0.2-1.8v-14.3h5.7v14.8C754.3,359.8,754.1,361.1,753.6,362.3z"/>
		<path fill="#333333" d="M771.6,367.3l-5.1-9.4h-2v9.4h-5.6v-23.7h9c1.1,0,2.2,0.1,3.3,0.4c1.1,0.2,2.1,0.6,2.9,1.2
			c0.9,0.6,1.5,1.3,2.1,2.2c0.5,0.9,0.8,2.1,0.8,3.4c0,1.6-0.4,3-1.3,4.1c-0.9,1.1-2.1,1.9-3.6,2.3l6.2,10.1H771.6z M771.4,350.9
			c0-0.6-0.1-1-0.4-1.4c-0.2-0.3-0.5-0.6-0.9-0.8s-0.8-0.3-1.2-0.4c-0.5-0.1-0.9-0.1-1.3-0.1h-3.1v5.5h2.7c0.5,0,1,0,1.4-0.1
			c0.5-0.1,0.9-0.2,1.3-0.4c0.4-0.2,0.7-0.5,1-0.9C771.3,352,771.4,351.5,771.4,350.9z"/>
		<path fill="#333333" d="M793.8,367.3l-5.1-9.4h-2v9.4h-5.6v-23.7h9c1.1,0,2.2,0.1,3.3,0.4c1.1,0.2,2.1,0.6,2.9,1.2
			c0.9,0.6,1.5,1.3,2.1,2.2c0.5,0.9,0.8,2.1,0.8,3.4c0,1.6-0.4,3-1.3,4.1c-0.9,1.1-2.1,1.9-3.6,2.3l6.2,10.1H793.8z M793.6,350.9
			c0-0.6-0.1-1-0.4-1.4c-0.2-0.3-0.5-0.6-0.9-0.8s-0.8-0.3-1.2-0.4c-0.5-0.1-0.9-0.1-1.3-0.1h-3.1v5.5h2.7c0.5,0,1,0,1.4-0.1
			c0.5-0.1,0.9-0.2,1.3-0.4c0.4-0.2,0.7-0.5,1-0.9C793.4,352,793.6,351.5,793.6,350.9z"/>
		<path fill="#333333" d="M803.3,367.3v-23.7h5.8v23.7H803.3z"/>
		<path fill="#333333" d="M826.5,349.8c-0.5-0.6-1.1-1.1-1.9-1.5s-1.6-0.6-2.3-0.6c-0.4,0-0.8,0-1.2,0.1s-0.7,0.2-1.1,0.4
			c-0.3,0.2-0.6,0.4-0.8,0.7c-0.2,0.3-0.3,0.7-0.3,1.2c0,0.4,0.1,0.7,0.3,1s0.4,0.5,0.7,0.7c0.3,0.2,0.7,0.4,1.2,0.6
			c0.4,0.2,0.9,0.3,1.5,0.5c0.8,0.3,1.6,0.6,2.5,0.9c0.9,0.3,1.7,0.8,2.4,1.3c0.7,0.5,1.3,1.2,1.8,2c0.5,0.8,0.7,1.8,0.7,3
			c0,1.4-0.3,2.5-0.8,3.5s-1.2,1.8-2,2.5c-0.8,0.6-1.8,1.1-2.9,1.4s-2.2,0.5-3.4,0.5c-1.7,0-3.3-0.3-4.9-0.9c-1.6-0.6-2.9-1.4-4-2.5
			l3.8-3.8c0.6,0.7,1.3,1.3,2.3,1.8c0.9,0.5,1.9,0.7,2.8,0.7c0.4,0,0.8,0,1.2-0.1c0.4-0.1,0.8-0.2,1.1-0.4c0.3-0.2,0.5-0.5,0.7-0.8
			c0.2-0.3,0.3-0.7,0.3-1.2c0-0.4-0.1-0.8-0.3-1.1c-0.2-0.3-0.5-0.6-1-0.9c-0.4-0.3-0.9-0.5-1.5-0.7c-0.6-0.2-1.3-0.4-2.1-0.7
			c-0.8-0.2-1.5-0.5-2.2-0.9c-0.7-0.3-1.4-0.8-1.9-1.3c-0.6-0.5-1-1.2-1.4-1.9c-0.3-0.7-0.5-1.7-0.5-2.7c0-1.3,0.3-2.4,0.8-3.4
			c0.5-0.9,1.2-1.7,2.1-2.3c0.9-0.6,1.9-1,2.9-1.3c1.1-0.3,2.2-0.4,3.3-0.4c1.3,0,2.7,0.2,4.1,0.7c1.4,0.5,2.6,1.2,3.7,2.2
			L826.5,349.8z"/>
		<path fill="#333333" d="M193.6,367.3l-5.1-9.4h-2v9.4h-5.6v-23.7h9c1.1,0,2.2,0.1,3.3,0.4c1.1,0.2,2.1,0.6,2.9,1.2
			c0.9,0.6,1.5,1.3,2.1,2.2c0.5,0.9,0.8,2.1,0.8,3.4c0,1.6-0.4,3-1.3,4.1c-0.9,1.1-2.1,1.9-3.6,2.3l6.2,10.1H193.6z M193.4,350.9
			c0-0.6-0.1-1-0.4-1.4c-0.2-0.3-0.5-0.6-0.9-0.8s-0.8-0.3-1.2-0.4c-0.5-0.1-0.9-0.1-1.3-0.1h-3.1v5.5h2.7c0.5,0,1,0,1.4-0.1
			c0.5-0.1,0.9-0.2,1.3-0.4c0.4-0.2,0.7-0.5,1-0.9C193.3,352,193.4,351.5,193.4,350.9z"/>
	</g>
</g>
</svg>
