<?xml version="1.0" encoding="UTF-8" standalone="no"?>
<!-- Created with Inkscape (http://www.inkscape.org/) -->

<svg
   xmlns:dc="http://purl.org/dc/elements/1.1/"
   xmlns:cc="http://creativecommons.org/ns#"
   xmlns:rdf="http://www.w3.org/1999/02/22-rdf-syntax-ns#"
   xmlns:svg="http://www.w3.org/2000/svg"
   xmlns="http://www.w3.org/2000/svg"
   version="1.1"
   width="100%"
   height="100%"
   viewBox="0 0 310.23031 50"
   id="Layer_1"
   xml:space="preserve"><metadata
     id="metadata51"><rdf:RDF><cc:Work
         rdf:about=""><dc:format>image/svg+xml</dc:format><dc:type
           rdf:resource="http://purl.org/dc/dcmitype/StillImage" /><dc:title></dc:title></cc:Work></rdf:RDF></metadata><defs
     id="defs49" /><g
     transform="matrix(0.35707909,0,0,0.35707909,-2.1067666,-1.4193901)"
     id="g3"><path
       d="m 101.7,128.8 c 0,-8.4 -6.8,-15.2 -15.2,-15.2 -8.4,0 -15.2,6.8 -15.2,15.2 0,8.4 6.9,15.2 15.2,15.2 8.4,0 15.2,-6.8 15.2,-15.2 z"
       id="path5" /><polygon
       points="53.1,59.8 14.9,93.9 79.1,142 97.5,118.4 "
       id="polygon7" /><path
       d="M 77.1,70.1 C 62,85.2 37.5,85.2 22.4,70.1 7.3,55 7.3,30.4 22.4,15.3 37.5,0.2 62,0.2 77.1,15.3 92.2,30.4 92.2,55 77.1,70.1 z"
       id="path9"
       style="fill:#cd232d" /><path
       d="M 49.9,55.9 C 60,66 60,82.3 49.9,92.4 39.8,102.5 23.5,102.5 13.5,92.4 3.4,82.3 3.4,66 13.5,55.9 c 10.1,-10 26.4,-10 36.4,0 z"
       id="path11"
       style="fill:#cd232d" /><polygon
       points="5.9,72.1 49,93.1 77.1,70.1 11.1,40.7 "
       id="polygon13"
       style="fill:#cd232d" /><g
       id="g15"><path
         d="m 175.9,58.1 c 0,2.7 -0.5,5 -1.5,7.1 -1,2.1 -2.3,3.8 -4,5.1 -1.7,1.4 -3.6,2.4 -5.8,3.1 -2.2,0.7 -4.6,1.1 -7.1,1.1 h -16.3 v 31 h -2 V 42.4 h 17.1 c 2.3,0 4.6,0.3 6.9,0.8 2.3,0.5 4.4,1.4 6.3,2.5 1.9,1.2 3.4,2.8 4.6,4.8 1.2,2 1.8,4.5 1.8,7.6 z m -1.9,0 c 0,-2.7 -0.5,-4.9 -1.5,-6.7 -1,-1.8 -2.3,-3.2 -3.9,-4.3 -1.6,-1.1 -3.4,-1.8 -5.4,-2.3 -2,-0.5 -4,-0.7 -5.9,-0.7 h -16 v 28.7 h 16.4 c 2,0 3.9,-0.3 5.9,-0.8 2,-0.5 3.7,-1.4 5.3,-2.6 1.5,-1.2 2.8,-2.7 3.7,-4.6 0.9,-1.9 1.4,-4.1 1.4,-6.7 z"
         id="path17" /><path
         d="M 226.2,105.5 207.1,73.6 h -14.8 v 31.9 h -2 V 42.4 h 17.5 c 2.3,0 4.7,0.2 7,0.6 2.4,0.4 4.5,1.2 6.4,2.4 1.9,1.2 3.4,2.8 4.6,4.8 1.2,2 1.8,4.6 1.8,7.9 0,3 -0.6,5.4 -1.7,7.4 -1.1,2 -2.6,3.6 -4.4,4.8 -1.8,1.2 -3.8,2.1 -5.9,2.6 -2.2,0.5 -4.3,0.8 -6.4,0.8 l 19.2,31.9 h -2.2 z M 225.6,58 c 0,-2.7 -0.5,-5 -1.6,-6.8 -1.1,-1.8 -2.5,-3.2 -4.2,-4.3 -1.8,-1 -3.8,-1.8 -6.1,-2.2 -2.3,-0.4 -4.6,-0.6 -7,-0.6 H 192.2 V 72 h 15.4 c 5.8,0 10.3,-1.2 13.3,-3.7 3.2,-2.4 4.7,-5.9 4.7,-10.3 z"
         id="path19" /><path
         d="m 305.2,73.9 c 0,4.9 -0.8,9.4 -2.5,13.4 -1.6,4.1 -3.9,7.6 -6.8,10.5 -2.9,2.9 -6.3,5.2 -10.3,6.9 -4,1.7 -8.3,2.5 -12.9,2.5 -4.6,0 -9,-0.8 -12.9,-2.5 -4,-1.7 -7.4,-4 -10.3,-6.9 -2.9,-2.9 -5.1,-6.5 -6.8,-10.5 -1.6,-4.1 -2.5,-8.5 -2.5,-13.4 0,-4.9 0.8,-9.4 2.5,-13.4 1.6,-4.1 3.9,-7.6 6.8,-10.5 2.9,-2.9 6.3,-5.2 10.3,-6.9 4,-1.7 8.3,-2.5 13,-2.5 4.7,0 9,0.8 13,2.5 4,1.7 7.4,4 10.3,6.9 2.9,2.9 5.1,6.5 6.8,10.5 1.5,4.1 2.3,8.6 2.3,13.4 z m -2,0 c 0,-4.4 -0.7,-8.5 -2.2,-12.4 -1.5,-3.8 -3.6,-7.2 -6.3,-10 -2.7,-2.9 -5.9,-5.1 -9.7,-6.7 -3.7,-1.6 -7.9,-2.5 -12.3,-2.5 -4.4,0 -8.6,0.8 -12.3,2.5 -3.7,1.6 -7,3.9 -9.7,6.7 -2.7,2.9 -4.8,6.2 -6.3,10 -1.5,3.8 -2.2,8 -2.2,12.4 0,4.4 0.7,8.5 2.2,12.4 1.5,3.8 3.5,7.2 6.2,10 2.7,2.9 5.9,5.1 9.6,6.7 3.7,1.6 7.9,2.5 12.5,2.5 4.6,0 8.7,-0.8 12.5,-2.5 3.7,-1.6 7,-3.9 9.6,-6.7 2.7,-2.9 4.7,-6.2 6.2,-10 1.5,-3.8 2.2,-7.9 2.2,-12.4 z"
         id="path21" /><path
         d="m 338.1,102.1 c -2.7,3.4 -6.7,5 -12.1,5 -3.7,0 -6.9,-1 -9.5,-2.9 -2.6,-1.9 -4.4,-4.3 -5.4,-7 l 1.7,-0.8 c 1.2,2.7 2.9,4.8 5.3,6.5 2.3,1.6 5,2.5 8,2.5 2.6,0 4.7,-0.4 6.5,-1.3 1.8,-0.9 3.2,-2.1 4.4,-3.6 1.1,-1.5 2,-3.4 2.5,-5.5 0.5,-2.1 0.8,-4.4 0.8,-6.9 V 42.4 h 2 v 45.9 c -0.2,5.8 -1.5,10.4 -4.2,13.8 z"
         id="path23" /><path
         d="M 360.7,105.5 V 42.4 h 36.8 v 1.8 h -34.9 v 27.7 h 32.8 v 1.8 h -32.8 v 30.1 H 399 v 1.8 h -38.3 z"
         id="path25" /><path
         d="m 455,105 c -4.1,1.6 -8.2,2.4 -12.4,2.4 -4.8,0 -9.1,-0.8 -13,-2.5 -3.9,-1.7 -7.3,-4 -10.2,-6.9 -2.9,-2.9 -5.1,-6.5 -6.6,-10.6 -1.6,-4.1 -2.4,-8.6 -2.4,-13.4 0,-4.8 0.8,-9.3 2.4,-13.4 1.6,-4.1 3.8,-7.6 6.6,-10.6 2.9,-2.9 6.3,-5.2 10.2,-6.9 4,-1.7 8.3,-2.5 13,-2.5 3.9,0 7.7,0.7 11.5,2 3.7,1.3 6.9,3.4 9.5,6.1 l -1.2,1.4 c -1.2,-1.3 -2.7,-2.5 -4.2,-3.4 -1.6,-1 -3.2,-1.8 -5,-2.5 -1.8,-0.7 -3.5,-1.1 -5.3,-1.4 -1.8,-0.3 -3.5,-0.4 -5.2,-0.4 -4.5,0 -8.6,0.8 -12.4,2.5 -3.7,1.6 -6.9,3.9 -9.5,6.7 -2.6,2.9 -4.7,6.2 -6.2,10 -1.5,3.8 -2.2,8 -2.2,12.4 0,4.4 0.7,8.5 2.1,12.4 1.4,3.8 3.5,7.2 6.1,10 2.6,2.9 5.8,5.1 9.5,6.7 3.7,1.6 7.9,2.5 12.4,2.5 3.9,0 7.8,-0.8 11.6,-2.3 3.8,-1.5 7,-3.8 9.5,-6.8 l 1.4,1.3 c -2.6,3.2 -6,5.6 -10,7.2 z"
         id="path27" /><path
         d="m 493,44.1 v 61.4 h -2 V 44.1 h -21.5 v -1.8 h 45 v 1.8 H 493 z"
         id="path29" /><path
         d="m 594.3,55.4 v 50.1 H 579 V 55.4 h -17.8 v -13 h 50.9 v 13 h -17.8 z"
         id="path31" /><path
         d="m 670.7,92.1 c -1.3,3.1 -3.1,5.8 -5.5,8 -2.4,2.2 -5.2,4 -8.6,5.2 -3.4,1.2 -7.1,1.9 -11.2,1.9 -4.2,0 -7.9,-0.6 -11.2,-1.9 -3.3,-1.2 -6.2,-3 -8.5,-5.2 -2.3,-2.2 -4.1,-4.9 -5.4,-8 -1.2,-3.1 -1.9,-6.6 -1.9,-10.4 V 42.4 h 15.2 v 38.1 c 0,1.7 0.2,3.4 0.7,4.9 0.5,1.5 1.1,2.9 2.1,4.1 0.9,1.2 2.1,2.2 3.7,2.9 1.6,0.7 3.3,1.1 5.5,1.1 2.2,0 4,-0.4 5.5,-1.1 1.5,-0.7 2.8,-1.7 3.7,-2.9 1,-1.2 1.6,-2.6 2.1,-4.1 0.4,-1.5 0.6,-3.2 0.6,-4.9 V 42.4 h 15.3 v 39.3 c -0.2,3.8 -0.8,7.3 -2.1,10.4 z"
         id="path33" /><path
         d="M 718.7,105.5 705,80.5 h -5.2 v 25.1 H 684.9 V 42.4 H 709 c 3,0 6,0.3 8.9,0.9 2.9,0.6 5.5,1.7 7.8,3.2 2.3,1.5 4.1,3.5 5.5,5.9 1.4,2.4 2.1,5.5 2.1,9.1 0,4.3 -1.2,7.9 -3.5,10.8 -2.3,2.9 -5.5,5 -9.6,6.2 l 16.5,27 h -18 z m -0.6,-43.8 c 0,-1.5 -0.3,-2.7 -0.9,-3.6 -0.6,-0.9 -1.4,-1.6 -2.4,-2.1 -1,-0.5 -2.1,-0.8 -3.3,-1 -1.2,-0.2 -2.4,-0.3 -3.5,-0.3 h -8.2 v 14.7 h 7.3 c 1.3,0 2.5,-0.1 3.9,-0.3 1.3,-0.2 2.5,-0.6 3.6,-1.1 1.1,-0.5 2,-1.3 2.6,-2.3 0.6,-1.1 0.9,-2.4 0.9,-4 z"
         id="path35" /><path
         d="M 777.9,105.5 764.2,80.4 H 759 v 25.1 H 744.1 V 42.4 h 24.1 c 3,0 6,0.3 8.9,0.9 2.9,0.6 5.5,1.7 7.8,3.2 2.3,1.5 4.1,3.5 5.5,5.9 1.4,2.4 2.1,5.5 2.1,9.1 0,4.3 -1.2,7.9 -3.5,10.8 -2.3,2.9 -5.5,5 -9.6,6.2 l 16.5,27 h -18 z m -0.6,-43.8 c 0,-1.5 -0.3,-2.7 -0.9,-3.6 -0.6,-0.9 -1.4,-1.6 -2.4,-2.1 -1,-0.5 -2.1,-0.8 -3.3,-1 -1.2,-0.2 -2.4,-0.3 -3.5,-0.3 H 759 v 14.7 h 7.3 c 1.3,0 2.5,-0.1 3.9,-0.3 1.3,-0.2 2.5,-0.6 3.6,-1.1 1.1,-0.5 2,-1.3 2.6,-2.3 0.5,-1.1 0.9,-2.4 0.9,-4 z"
         id="path37" /><path
         d="M 803.2,105.5 V 42.4 h 15.3 v 63.2 h -15.3 z"
         id="path39" /><path
         d="m 865,58.8 c -1.3,-1.7 -3,-3 -5.1,-4 -2.1,-1 -4.1,-1.5 -6.1,-1.5 -1,0 -2,0.1 -3.1,0.3 -1,0.2 -2,0.5 -2.8,1 -0.8,0.5 -1.5,1.2 -2.1,2 -0.6,0.8 -0.8,1.8 -0.8,3.1 0,1.1 0.2,2 0.7,2.7 0.5,0.7 1.1,1.3 2,1.9 0.9,0.5 1.9,1 3.1,1.5 1.2,0.4 2.5,0.9 4,1.4 2.1,0.7 4.4,1.5 6.7,2.4 2.3,0.9 4.4,2 6.3,3.4 1.9,1.4 3.5,3.2 4.7,5.3 1.2,2.1 1.9,4.7 1.9,7.9 0,3.6 -0.7,6.8 -2,9.4 -1.3,2.6 -3.1,4.8 -5.4,6.6 -2.3,1.7 -4.8,3 -7.8,3.8 -2.9,0.8 -5.9,1.2 -9,1.2 -4.5,0 -8.9,-0.8 -13.1,-2.4 -4.2,-1.6 -7.7,-3.8 -10.5,-6.7 l 10,-10.2 c 1.5,1.9 3.6,3.5 6.1,4.8 2.5,1.3 5,1.9 7.5,1.9 1.1,0 2.2,-0.1 3.3,-0.4 1.1,-0.2 2,-0.6 2.8,-1.2 0.8,-0.5 1.4,-1.2 1.9,-2.1 0.5,-0.9 0.7,-2 0.7,-3.2 0,-1.2 -0.3,-2.2 -0.9,-3 -0.6,-0.8 -1.4,-1.6 -2.5,-2.3 -1.1,-0.7 -2.5,-1.3 -4.1,-1.9 -1.6,-0.6 -3.5,-1.2 -5.6,-1.8 -2,-0.7 -4,-1.4 -5.9,-2.3 -1.9,-0.9 -3.7,-2 -5.2,-3.4 -1.5,-1.4 -2.7,-3.1 -3.7,-5.1 -0.9,-2 -1.4,-4.4 -1.4,-7.3 0,-3.5 0.7,-6.5 2.1,-9 1.4,-2.5 3.3,-4.5 5.6,-6.2 2.3,-1.6 4.9,-2.8 7.9,-3.5 2.9,-0.7 5.9,-1.1 8.8,-1.1 3.6,0 7.2,0.7 10.9,2 3.7,1.3 7,3.2 9.8,5.8 L 865,58.8 z"
         id="path41" /></g><path
       d="m 545,58 c 0,3.7 -3,6.7 -6.7,6.7 -3.7,0 -6.6,-3 -6.6,-6.7 0,-3.7 3,-6.7 6.6,-6.7 3.7,0 6.7,3 6.7,6.7 z"
       id="path43"
       style="fill:#cd232d" /><path
       d="m 545,90.1 c 0,3.7 -3,6.7 -6.7,6.7 -3.7,0 -6.6,-3 -6.6,-6.7 0,-3.7 3,-6.7 6.6,-6.7 3.7,0 6.7,3 6.7,6.7 z"
       id="path45"
       style="fill:#cd232d" /></g></svg>