<?xml version="1.0" encoding="UTF-8" standalone="no"?>
<!-- Created with Inkscape (http://www.inkscape.org/) -->

<svg
   xmlns:dc="http://purl.org/dc/elements/1.1/"
   xmlns:cc="http://creativecommons.org/ns#"
   xmlns:rdf="http://www.w3.org/1999/02/22-rdf-syntax-ns#"
   xmlns:svg="http://www.w3.org/2000/svg"
   xmlns="http://www.w3.org/2000/svg"
   xmlns:sodipodi="http://sodipodi.sourceforge.net/DTD/sodipodi-0.dtd"
   xmlns:inkscape="http://www.inkscape.org/namespaces/inkscape"
   version="1.1"
   width="100%"
   height="100%"
   viewBox="0 0 230 76"
   id="Layer_1"
   xml:space="preserve"
   sodipodi:docname="logo-turris.svg"
   inkscape:version="0.92.3 (2405546, 2018-03-11)"><sodipodi:namedview
   pagecolor="#ffffff"
   bordercolor="#666666"
   borderopacity="1"
   objecttolerance="10"
   gridtolerance="10"
   guidetolerance="10"
   inkscape:pageopacity="0"
   inkscape:pageshadow="2"
   inkscape:window-width="1920"
   inkscape:window-height="1080"
   id="namedview20"
   showgrid="false"
   inkscape:zoom="1.4521739"
   inkscape:cx="-81.257489"
   inkscape:cy="65.54491"
   inkscape:window-x="1920"
   inkscape:window-y="0"
   inkscape:window-maximized="0"
   inkscape:current-layer="Layer_1" /><metadata
   id="metadata3255"><rdf:RDF><cc:Work
       rdf:about=""><dc:format>image/svg+xml</dc:format><dc:type
         rdf:resource="http://purl.org/dc/dcmitype/StillImage" /><dc:title /></cc:Work></rdf:RDF></metadata><defs
   id="defs3253" /><style
   type="text/css"
   id="style3217" /><path
   d="M 95.7,3 V 13.4 H 92.5 V 3 H 88.8 V 0.3 H 99.3 V 3 h -3.6 z"
   id="path3233"
   style="fill:#00a2e2;fill-opacity:1" /><path
   d="m 112.3,10.6 c -0.3,0.6 -0.6,1.2 -1.1,1.7 -0.5,0.5 -1.1,0.8 -1.8,1.1 -0.7,0.3 -1.5,0.4 -2.3,0.4 -0.9,0 -1.6,-0.1 -2.3,-0.4 -0.7,-0.3 -1.3,-0.6 -1.8,-1.1 -0.5,-0.5 -0.8,-1 -1.1,-1.7 -0.3,-0.6 -0.4,-1.4 -0.4,-2.1 V 0.3 h 3.1 v 7.9 c 0,0.4 0,0.7 0.1,1 0.1,0.3 0.2,0.6 0.4,0.9 0.2,0.3 0.4,0.5 0.8,0.6 0.3,0.1 0.7,0.2 1.1,0.2 0.4,0 0.8,-0.1 1.1,-0.2 0.3,-0.1 0.6,-0.3 0.8,-0.6 0.2,-0.3 0.3,-0.5 0.4,-0.9 0.1,-0.3 0.1,-0.7 0.1,-1 V 0.3 h 3.2 v 8.1 c 0.1,0.8 0,1.6 -0.3,2.2 z"
   id="path3235"
   style="fill:#00a2e2;fill-opacity:1" /><path
   d="m 123.1,13.4 -2.8,-5.2 h -1.1 v 5.2 h -3.1 v -13 h 5 c 0.6,0 1.2,0.1 1.8,0.2 0.6,0.1 1.1,0.3 1.6,0.7 0.5,0.3 0.9,0.7 1.1,1.2 0.3,0.5 0.4,1.1 0.4,1.9 0,0.9 -0.2,1.6 -0.7,2.2 -0.5,0.6 -1.1,1 -2,1.3 l 3.4,5.6 h -3.6 z M 123,4.3 C 123,4 122.9,3.7 122.8,3.6 122.7,3.4 122.5,3.3 122.3,3.2 122.1,3.1 121.9,3 121.6,3 121.3,3 121.1,2.9 120.9,2.9 h -1.7 v 3 h 1.5 c 0.3,0 0.5,0 0.8,-0.1 0.3,0 0.5,-0.1 0.7,-0.2 0.2,-0.1 0.4,-0.3 0.5,-0.5 0.2,-0.2 0.3,-0.4 0.3,-0.8 z"
   id="path3237"
   style="fill:#00a2e2;fill-opacity:1" /><path
   d="m 136.1,13.4 -2.8,-5.2 h -1.1 v 5.2 h -3.1 v -13 h 5 c 0.6,0 1.2,0.1 1.8,0.2 0.6,0.1 1.1,0.3 1.6,0.7 0.5,0.3 0.9,0.7 1.1,1.2 0.2,0.5 0.4,1.1 0.4,1.9 0,0.9 -0.2,1.6 -0.7,2.2 -0.5,0.6 -1.1,1 -2,1.3 l 3.4,5.6 h -3.6 z M 136,4.3 C 136,4 135.9,3.7 135.8,3.6 135.7,3.4 135.5,3.3 135.3,3.2 135.1,3.1 134.9,3 134.6,3 134.3,3 134.1,2.9 133.9,2.9 h -1.7 v 3 h 1.5 c 0.3,0 0.5,0 0.8,-0.1 0.3,0 0.5,-0.1 0.7,-0.2 0.2,-0.1 0.4,-0.3 0.5,-0.5 0.2,-0.2 0.3,-0.4 0.3,-0.8 z"
   id="path3239"
   style="fill:#00a2e2;fill-opacity:1" /><path
   d="m 142.1,13.4 v -13 h 3.2 v 13 h -3.2 z"
   id="path3241"
   style="fill:#00a2e2;fill-opacity:1" /><path
   d="m 155.7,3.7 c -0.3,-0.3 -0.6,-0.6 -1.1,-0.8 -0.4,-0.2 -0.9,-0.3 -1.3,-0.3 -0.2,0 -0.4,0 -0.6,0.1 -0.2,0 -0.4,0.1 -0.6,0.2 -0.2,0.1 -0.3,0.2 -0.4,0.4 -0.1,0.2 -0.2,0.4 -0.2,0.6 0,0.2 0,0.4 0.1,0.6 0.1,0.1 0.2,0.3 0.4,0.4 0.2,0.1 0.4,0.2 0.6,0.3 0.2,0.1 0.5,0.2 0.8,0.3 0.4,0.1 0.9,0.3 1.4,0.5 0.5,0.2 0.9,0.4 1.3,0.7 0.4,0.3 0.7,0.7 1,1.1 0.3,0.4 0.4,1 0.4,1.6 0,0.7 -0.1,1.4 -0.4,1.9 -0.3,0.5 -0.6,1 -1.1,1.4 -0.5,0.4 -1,0.6 -1.6,0.8 -0.6,0.2 -1.2,0.3 -1.9,0.3 -0.9,0 -1.8,-0.2 -2.7,-0.5 -0.9,-0.3 -1.6,-0.8 -2.2,-1.4 l 2.1,-2.1 c 0.3,0.4 0.7,0.7 1.3,1 0.5,0.3 1,0.4 1.6,0.4 0.2,0 0.5,0 0.7,-0.1 0.2,0 0.4,-0.1 0.6,-0.2 0.2,-0.1 0.3,-0.3 0.4,-0.4 0.1,-0.2 0.1,-0.4 0.1,-0.7 0,-0.2 -0.1,-0.5 -0.2,-0.6 -0.1,-0.2 -0.3,-0.3 -0.5,-0.5 -0.2,-0.2 -0.5,-0.3 -0.8,-0.4 -0.3,-0.1 -0.7,-0.2 -1.2,-0.4 -0.4,-0.1 -0.8,-0.3 -1.2,-0.5 -0.4,-0.2 -0.8,-0.4 -1.1,-0.7 -0.3,-0.3 -0.6,-0.6 -0.8,-1 -0.2,-0.4 -0.3,-0.9 -0.3,-1.5 0,-0.7 0.1,-1.3 0.4,-1.9 0.3,-0.5 0.7,-0.9 1.2,-1.3 0.5,-0.3 1,-0.6 1.6,-0.7 0.6,-0.2 1.2,-0.2 1.8,-0.2 0.7,0 1.5,0.1 2.3,0.4 0.8,0.3 1.4,0.7 2,1.2 l -1.9,2 z"
   id="path3243"
   style="fill:#00a2e2;fill-opacity:1" /><polygon
   points="39.9,41.5 39.8,41.5 0,41.5 8,55.3 31.9,55.3 43.9,76 59.8,76 39.9,41.5 "
   id="polygon3245"
   style="fill:#1d1d1b" /><polygon
   points="73.7,17.4 65.7,3.6 45.8,38.1 65.8,72.6 73.7,58.8 61.8,38.1 "
   id="polygon3247"
   style="fill:#1d1d1b" /><polygon
   points="51.8,13.9 59.8,0.1 20,0.1 0,34.6 16,34.6 27.9,13.9 "
   id="polygon3249"
   style="fill:#00a2e2;fill-opacity:1" /><text
   xml:space="preserve"
   style="font-style:normal;font-weight:normal;font-size:40px;line-height:1.25;font-family:sans-serif;letter-spacing:0px;word-spacing:0px;fill:#000000;fill-opacity:1;stroke:none"
   x="88"
   y="42.700001"
   id="text948"><tspan
     sodipodi:role="line"
     id="tspan946"
     x="88"
     y="78.090622" /></text>




<text
   xml:space="preserve"
   style="font-style:normal;font-weight:bold;font-size:40px;line-height:1.25;font-family:Roboto;letter-spacing:0px;word-spacing:0px;fill:#000000;fill-opacity:1;stroke:none;-inkscape-font-specification:'Roboto Bold';font-stretch:normal;font-variant:normal;"
   x="99.850296"
   y="48.45509"
   id="text3726"><tspan
     sodipodi:role="line"
     id="tspan3724"
     x="99.850296"
     y="83.845718" /></text>


<text
   xml:space="preserve"
   style="font-style:normal;font-variant:normal;font-weight:normal;font-stretch:normal;font-size:40px;line-height:1.25;font-family:Roboto;-inkscape-font-specification:Roboto;letter-spacing:0px;word-spacing:0px;fill:#000000;fill-opacity:1;stroke:none"
   x="88.11377"
   y="46.718563"
   id="text3730"><tspan
     sodipodi:role="line"
     id="tspan3728"
     x="88.11377"
     y="46.718563"
     style="font-weight:bold">MOX</tspan></text>


</svg>