<?xml version="1.0" encoding="utf-8"?>
<!-- Generator: Adobe Illustrator 17.1.0, SVG Export Plug-In . SVG Version: 6.00 Build 0)  -->
<!DOCTYPE svg PUBLIC "-//W3C//DTD SVG 1.1//EN" "http://www.w3.org/Graphics/SVG/1.1/DTD/svg11.dtd">
<svg version="1.1" id="Layer_1" xmlns="http://www.w3.org/2000/svg" xmlns:xlink="http://www.w3.org/1999/xlink" x="0px" y="0px"
	 viewBox="0 0 882 150" enable-background="new 0 0 882 150" xml:space="preserve">
<g>
	<path d="M101.7,128.8c0-8.4-6.8-15.2-15.2-15.2c-8.4,0-15.2,6.8-15.2,15.2S78.2,144,86.5,144C94.9,144,101.7,137.2,101.7,128.8z"/>
	<polygon points="97.5,118.4 53.1,59.8 14.9,93.9 79.1,142 	"/>
	<path fill="#CD232D" d="M77.1,70.1c-15.1,15.1-39.6,15.1-54.7,0C7.3,55,7.3,30.4,22.4,15.3C37.5,0.2,62,0.2,77.1,15.3
		C92.2,30.4,92.2,55,77.1,70.1z"/>
	<path fill="#CD232D" d="M49.9,55.9C60,66,60,82.3,49.9,92.4c-10.1,10.1-26.4,10.1-36.4,0C3.4,82.3,3.4,66,13.5,55.9
		C23.6,45.9,39.9,45.9,49.9,55.9z"/>
	<polygon fill="#CD232D" points="11.1,40.7 5.9,72.1 49,93.1 77.1,70.1 	"/>
	<g>
		<path d="M175.9,58.1c0,2.7-0.5,5-1.5,7.1c-1,2.1-2.3,3.8-4,5.1c-1.7,1.4-3.6,2.4-5.8,3.1s-4.6,1.1-7.1,1.1h-16.3v31h-2V42.4h17.1
			c2.3,0,4.6,0.3,6.9,0.8c2.3,0.5,4.4,1.4,6.3,2.5c1.9,1.2,3.4,2.8,4.6,4.8C175.3,52.5,175.9,55,175.9,58.1z M174,58.1
			c0-2.7-0.5-4.9-1.5-6.7c-1-1.8-2.3-3.2-3.9-4.3c-1.6-1.1-3.4-1.8-5.4-2.3c-2-0.5-4-0.7-5.9-0.7h-16v28.7h16.4c2,0,3.9-0.3,5.9-0.8
			c2-0.5,3.7-1.4,5.3-2.6c1.5-1.2,2.8-2.7,3.7-4.6C173.5,62.9,174,60.7,174,58.1z"/>
		<path d="M226.2,105.5l-19.1-31.9h-14.8v31.9h-2V42.4h17.5c2.3,0,4.7,0.2,7,0.6c2.4,0.4,4.5,1.2,6.4,2.4c1.9,1.2,3.4,2.8,4.6,4.8
			c1.2,2,1.8,4.6,1.8,7.9c0,3-0.6,5.4-1.7,7.4c-1.1,2-2.6,3.6-4.4,4.8c-1.8,1.2-3.8,2.1-5.9,2.6c-2.2,0.5-4.3,0.8-6.4,0.8l19.2,31.9
			H226.2z M225.6,58c0-2.7-0.5-5-1.6-6.8c-1.1-1.8-2.5-3.2-4.2-4.3c-1.8-1-3.8-1.8-6.1-2.2c-2.3-0.4-4.6-0.6-7-0.6h-14.5V72h15.4
			c5.8,0,10.3-1.2,13.3-3.7C224.1,65.9,225.6,62.4,225.6,58z"/>
		<path d="M305.2,73.9c0,4.9-0.8,9.4-2.5,13.4c-1.6,4.1-3.9,7.6-6.8,10.5c-2.9,2.9-6.3,5.2-10.3,6.9c-4,1.7-8.3,2.5-12.9,2.5
			s-9-0.8-12.9-2.5c-4-1.7-7.4-4-10.3-6.9c-2.9-2.9-5.1-6.5-6.8-10.5c-1.6-4.1-2.5-8.5-2.5-13.4c0-4.9,0.8-9.4,2.5-13.4
			c1.6-4.1,3.9-7.6,6.8-10.5c2.9-2.9,6.3-5.2,10.3-6.9c4-1.7,8.3-2.5,13-2.5c4.7,0,9,0.8,13,2.5c4,1.7,7.4,4,10.3,6.9
			c2.9,2.9,5.1,6.5,6.8,10.5C304.4,64.6,305.2,69.1,305.2,73.9z M303.2,73.9c0-4.4-0.7-8.5-2.2-12.4c-1.5-3.8-3.6-7.2-6.3-10
			c-2.7-2.9-5.9-5.1-9.7-6.7c-3.7-1.6-7.9-2.5-12.3-2.5s-8.6,0.8-12.3,2.5c-3.7,1.6-7,3.9-9.7,6.7c-2.7,2.9-4.8,6.2-6.3,10
			c-1.5,3.8-2.2,8-2.2,12.4c0,4.4,0.7,8.5,2.2,12.4c1.5,3.8,3.5,7.2,6.2,10c2.7,2.9,5.9,5.1,9.6,6.7c3.7,1.6,7.9,2.5,12.5,2.5
			c4.6,0,8.7-0.8,12.5-2.5c3.7-1.6,7-3.9,9.6-6.7c2.7-2.9,4.7-6.2,6.2-10C302.5,82.5,303.2,78.4,303.2,73.9z"/>
		<path d="M338.1,102.1c-2.7,3.4-6.7,5-12.1,5c-3.7,0-6.9-1-9.5-2.9c-2.6-1.9-4.4-4.3-5.4-7l1.7-0.8c1.2,2.7,2.9,4.8,5.3,6.5
			c2.3,1.6,5,2.5,8,2.5c2.6,0,4.7-0.4,6.5-1.3s3.2-2.1,4.4-3.6c1.1-1.5,2-3.4,2.5-5.5c0.5-2.1,0.8-4.4,0.8-6.9V42.4h2v45.9
			C342.1,94.1,340.8,98.7,338.1,102.1z"/>
		<path d="M360.7,105.5V42.4h36.8v1.8h-34.9v27.7h32.8v1.8h-32.8v30.1H399v1.8H360.7z"/>
		<path d="M455,105c-4.1,1.6-8.2,2.4-12.4,2.4c-4.8,0-9.1-0.8-13-2.5c-3.9-1.7-7.3-4-10.2-6.9c-2.9-2.9-5.1-6.5-6.6-10.6
			c-1.6-4.1-2.4-8.6-2.4-13.4c0-4.8,0.8-9.3,2.4-13.4c1.6-4.1,3.8-7.6,6.6-10.6c2.9-2.9,6.3-5.2,10.2-6.9c4-1.7,8.3-2.5,13-2.5
			c3.9,0,7.7,0.7,11.5,2c3.7,1.3,6.9,3.4,9.5,6.1l-1.2,1.4c-1.2-1.3-2.7-2.5-4.2-3.4c-1.6-1-3.2-1.8-5-2.5c-1.8-0.7-3.5-1.1-5.3-1.4
			c-1.8-0.3-3.5-0.4-5.2-0.4c-4.5,0-8.6,0.8-12.4,2.5c-3.7,1.6-6.9,3.9-9.5,6.7c-2.6,2.9-4.7,6.2-6.2,10c-1.5,3.8-2.2,8-2.2,12.4
			c0,4.4,0.7,8.5,2.1,12.4c1.4,3.8,3.5,7.2,6.1,10c2.6,2.9,5.8,5.1,9.5,6.7c3.7,1.6,7.9,2.5,12.4,2.5c3.9,0,7.8-0.8,11.6-2.3
			c3.8-1.5,7-3.8,9.5-6.8l1.4,1.3C462.4,101,459,103.4,455,105z"/>
		<path d="M493,44.1v61.4h-2V44.1h-21.5v-1.8h45v1.8H493z"/>
		<path d="M594.3,55.4v50.1H579V55.4h-17.8v-13h50.9v13H594.3z"/>
		<path d="M670.7,92.1c-1.3,3.1-3.1,5.8-5.5,8c-2.4,2.2-5.2,4-8.6,5.2s-7.1,1.9-11.2,1.9c-4.2,0-7.9-0.6-11.2-1.9
			c-3.3-1.2-6.2-3-8.5-5.2s-4.1-4.9-5.4-8c-1.2-3.1-1.9-6.6-1.9-10.4V42.4h15.2v38.1c0,1.7,0.2,3.4,0.7,4.9s1.1,2.9,2.1,4.1
			c0.9,1.2,2.1,2.2,3.7,2.9s3.3,1.1,5.5,1.1s4-0.4,5.5-1.1c1.5-0.7,2.8-1.7,3.7-2.9c1-1.2,1.6-2.6,2.1-4.1c0.4-1.5,0.6-3.2,0.6-4.9
			V42.4h15.3v39.3C672.6,85.5,672,89,670.7,92.1z"/>
		<path d="M718.7,105.5L705,80.5h-5.2v25.1h-14.9V42.4H709c3,0,6,0.3,8.9,0.9c2.9,0.6,5.5,1.7,7.8,3.2c2.3,1.5,4.1,3.5,5.5,5.9
			c1.4,2.4,2.1,5.5,2.1,9.1c0,4.3-1.2,7.9-3.5,10.8c-2.3,2.9-5.5,5-9.6,6.2l16.5,27H718.7z M718.1,61.7c0-1.5-0.3-2.7-0.9-3.6
			c-0.6-0.9-1.4-1.6-2.4-2.1c-1-0.5-2.1-0.8-3.3-1c-1.2-0.2-2.4-0.3-3.5-0.3h-8.2v14.7h7.3c1.3,0,2.5-0.1,3.9-0.3
			c1.3-0.2,2.5-0.6,3.6-1.1c1.1-0.5,2-1.3,2.6-2.3C717.8,64.6,718.1,63.3,718.1,61.7z"/>
		<path d="M777.9,105.5l-13.7-25.1H759v25.1h-14.9V42.4h24.1c3,0,6,0.3,8.9,0.9c2.9,0.6,5.5,1.7,7.8,3.2c2.3,1.5,4.1,3.5,5.5,5.9
			c1.4,2.4,2.1,5.5,2.1,9.1c0,4.3-1.2,7.9-3.5,10.8c-2.3,2.9-5.5,5-9.6,6.2l16.5,27H777.9z M777.3,61.7c0-1.5-0.3-2.7-0.9-3.6
			c-0.6-0.9-1.4-1.6-2.4-2.1c-1-0.5-2.1-0.8-3.3-1c-1.2-0.2-2.4-0.3-3.5-0.3h-8.2v14.7h7.3c1.3,0,2.5-0.1,3.9-0.3
			c1.3-0.2,2.5-0.6,3.6-1.1c1.1-0.5,2-1.3,2.6-2.3C776.9,64.6,777.3,63.3,777.3,61.7z"/>
		<path d="M803.2,105.5V42.4h15.3v63.2H803.2z"/>
		<path d="M865,58.8c-1.3-1.7-3-3-5.1-4c-2.1-1-4.1-1.5-6.1-1.5c-1,0-2,0.1-3.1,0.3c-1,0.2-2,0.5-2.8,1c-0.8,0.5-1.5,1.2-2.1,2
			c-0.6,0.8-0.8,1.8-0.8,3.1c0,1.1,0.2,2,0.7,2.7s1.1,1.3,2,1.9c0.9,0.5,1.9,1,3.1,1.5c1.2,0.4,2.5,0.9,4,1.4
			c2.1,0.7,4.4,1.5,6.7,2.4c2.3,0.9,4.4,2,6.3,3.4c1.9,1.4,3.5,3.2,4.7,5.3c1.2,2.1,1.9,4.7,1.9,7.9c0,3.6-0.7,6.8-2,9.4
			c-1.3,2.6-3.1,4.8-5.4,6.6c-2.3,1.7-4.8,3-7.8,3.8c-2.9,0.8-5.9,1.2-9,1.2c-4.5,0-8.9-0.8-13.1-2.4c-4.2-1.6-7.7-3.8-10.5-6.7
			l10-10.2c1.5,1.9,3.6,3.5,6.1,4.8c2.5,1.3,5,1.9,7.5,1.9c1.1,0,2.2-0.1,3.3-0.4c1.1-0.2,2-0.6,2.8-1.2c0.8-0.5,1.4-1.2,1.9-2.1
			c0.5-0.9,0.7-2,0.7-3.2c0-1.2-0.3-2.2-0.9-3c-0.6-0.8-1.4-1.6-2.5-2.3c-1.1-0.7-2.5-1.3-4.1-1.9c-1.6-0.6-3.5-1.2-5.6-1.8
			c-2-0.7-4-1.4-5.9-2.3c-1.9-0.9-3.7-2-5.2-3.4c-1.5-1.4-2.7-3.1-3.7-5.1c-0.9-2-1.4-4.4-1.4-7.3c0-3.5,0.7-6.5,2.1-9
			c1.4-2.5,3.3-4.5,5.6-6.2c2.3-1.6,4.9-2.8,7.9-3.5c2.9-0.7,5.9-1.1,8.8-1.1c3.6,0,7.2,0.7,10.9,2c3.7,1.3,7,3.2,9.8,5.8L865,58.8z
			"/>
	</g>
	<path fill="#CD232D" d="M545,58c0,3.7-3,6.7-6.7,6.7c-3.7,0-6.6-3-6.6-6.7c0-3.7,3-6.7,6.6-6.7C542,51.3,545,54.3,545,58z"/>
	<path fill="#CD232D" d="M545,90.1c0,3.7-3,6.7-6.7,6.7c-3.7,0-6.6-3-6.6-6.7c0-3.7,3-6.7,6.6-6.7C542,83.4,545,86.4,545,90.1z"/>
</g>
</svg>
