<?xml version="1.0" encoding="UTF-8" standalone="no"?>
<!-- Created with Inkscape (http://www.inkscape.org/) -->

<svg
   xmlns:dc="http://purl.org/dc/elements/1.1/"
   xmlns:cc="http://creativecommons.org/ns#"
   xmlns:rdf="http://www.w3.org/1999/02/22-rdf-syntax-ns#"
   xmlns:svg="http://www.w3.org/2000/svg"
   xmlns="http://www.w3.org/2000/svg"
   version="1.1"
   width="100%"
   height="100%"
   viewBox="0 0 230 76"
   id="Layer_1"
   xml:space="preserve"><metadata
     id="metadata3255"><rdf:RDF><cc:Work
         rdf:about=""><dc:format>image/svg+xml</dc:format><dc:type
           rdf:resource="http://purl.org/dc/dcmitype/StillImage" /><dc:title></dc:title></cc:Work></rdf:RDF></metadata><defs
     id="defs3253" /><style
     type="text/css"
     id="style3217" /><path
     d="m 116.5,36.8 c 0,2.1 -0.4,4.1 -1.1,5.9 -0.7,1.8 -1.8,3.3 -3.1,4.6 -1.3,1.3 -2.9,2.2 -4.7,2.9 -1.8,0.7 -3.8,1 -5.9,1 -2.1,0 -4.1,-0.3 -5.9,-1 C 94,49.5 92.4,48.5 91.1,47.3 89.8,46 88.8,44.5 88,42.7 87.4,40.9 87,39 87,36.8 c 0,-2.2 0.4,-4.1 1.1,-5.9 0.7,-1.7 1.8,-3.2 3.1,-4.5 1.3,-1.2 2.9,-2.2 4.7,-2.8 1.8,-0.7 3.8,-1 5.9,-1 2.1,0 4.1,0.3 5.9,1 1.8,0.7 3.4,1.6 4.7,2.8 1.3,1.2 2.3,2.7 3.1,4.5 0.7,1.8 1,3.7 1,5.9 z m -7,0 c 0,-1.2 -0.2,-2.3 -0.6,-3.3 -0.4,-1 -0.9,-1.9 -1.6,-2.6 -0.7,-0.7 -1.5,-1.3 -2.4,-1.7 -1,-0.4 -2,-0.6 -3.2,-0.6 -1.1,0 -2.2,0.2 -3.1,0.6 -0.9,0.4 -1.8,1 -2.5,1.7 -0.7,0.7 -1.2,1.6 -1.6,2.6 -0.4,1 -0.6,2.1 -0.6,3.3 0,1.2 0.2,2.4 0.6,3.4 0.4,1 0.9,1.9 1.6,2.7 0.7,0.7 1.5,1.3 2.4,1.7 0.9,0.4 2,0.6 3.1,0.6 1.1,0 2.2,-0.2 3.1,-0.6 0.9,-0.4 1.8,-1 2.4,-1.7 0.7,-0.7 1.2,-1.6 1.6,-2.7 0.6,-1 0.8,-2.2 0.8,-3.4 z"
     id="path3221"
     style="fill:#1d1d1b" /><path
     d="m 146.4,50.5 0.2,-19.2 h -0.1 l -7,19.2 h -4.6 L 128,31.3 h -0.1 l 0.2,19.2 h -6.2 V 23.4 h 9.3 l 6.2,17.4 h 0.2 l 5.9,-17.4 h 9.5 v 27.1 h -6.6 z"
     id="path3223"
     style="fill:#1d1d1b" /><path
     d="M 176.8,50.5 165.9,32.8 h -0.1 l 0.2,17.7 h -6.4 V 23.4 h 7.5 L 178,41.1 h 0.1 l -0.2,-17.7 h 6.4 v 27.1 h -7.5 z"
     id="path3225"
     style="fill:#1d1d1b" /><path
     d="M 190.9,50.5 V 23.4 h 6.6 v 27.1 h -6.6 z"
     id="path3227"
     style="fill:#1d1d1b" /><path
     d="m 222.7,50.5 -2.1,-5.3 h -10.5 l -2,5.3 H 201 l 11.4,-27.1 h 6.4 L 230,50.5 h -7.3 z m -7.2,-19.9 -3.4,9.3 h 6.8 l -3.4,-9.3 z"
     id="path3229"
     style="fill:#1d1d1b" /><path
     d="M 95.7,3 V 13.4 H 92.5 V 3 H 88.8 V 0.3 H 99.3 V 3 h -3.6 z"
     id="path3233"
     style="fill:#00a2e2" /><path
     d="m 112.3,10.6 c -0.3,0.6 -0.6,1.2 -1.1,1.7 -0.5,0.5 -1.1,0.8 -1.8,1.1 -0.7,0.3 -1.5,0.4 -2.3,0.4 -0.9,0 -1.6,-0.1 -2.3,-0.4 -0.7,-0.3 -1.3,-0.6 -1.8,-1.1 -0.5,-0.5 -0.8,-1 -1.1,-1.7 -0.3,-0.6 -0.4,-1.4 -0.4,-2.1 V 0.3 h 3.1 v 7.9 c 0,0.4 0,0.7 0.1,1 0.1,0.3 0.2,0.6 0.4,0.9 0.2,0.3 0.4,0.5 0.8,0.6 0.3,0.1 0.7,0.2 1.1,0.2 0.4,0 0.8,-0.1 1.1,-0.2 0.3,-0.1 0.6,-0.3 0.8,-0.6 0.2,-0.3 0.3,-0.5 0.4,-0.9 0.1,-0.3 0.1,-0.7 0.1,-1 V 0.3 h 3.2 v 8.1 c 0.1,0.8 0,1.6 -0.3,2.2 z"
     id="path3235"
     style="fill:#00a2e2" /><path
     d="m 123.1,13.4 -2.8,-5.2 h -1.1 v 5.2 h -3.1 v -13 h 5 c 0.6,0 1.2,0.1 1.8,0.2 0.6,0.1 1.1,0.3 1.6,0.7 0.5,0.3 0.9,0.7 1.1,1.2 0.3,0.5 0.4,1.1 0.4,1.9 0,0.9 -0.2,1.6 -0.7,2.2 -0.5,0.6 -1.1,1 -2,1.3 l 3.4,5.6 h -3.6 z M 123,4.3 C 123,4 122.9,3.7 122.8,3.6 122.7,3.4 122.5,3.3 122.3,3.2 122.1,3.1 121.9,3 121.6,3 121.3,3 121.1,2.9 120.9,2.9 h -1.7 v 3 h 1.5 c 0.3,0 0.5,0 0.8,-0.1 0.3,0 0.5,-0.1 0.7,-0.2 0.2,-0.1 0.4,-0.3 0.5,-0.5 0.2,-0.2 0.3,-0.4 0.3,-0.8 z"
     id="path3237"
     style="fill:#00a2e2" /><path
     d="m 136.1,13.4 -2.8,-5.2 h -1.1 v 5.2 h -3.1 v -13 h 5 c 0.6,0 1.2,0.1 1.8,0.2 0.6,0.1 1.1,0.3 1.6,0.7 0.5,0.3 0.9,0.7 1.1,1.2 0.2,0.5 0.4,1.1 0.4,1.9 0,0.9 -0.2,1.6 -0.7,2.2 -0.5,0.6 -1.1,1 -2,1.3 l 3.4,5.6 h -3.6 z M 136,4.3 C 136,4 135.9,3.7 135.8,3.6 135.7,3.4 135.5,3.3 135.3,3.2 135.1,3.1 134.9,3 134.6,3 134.3,3 134.1,2.9 133.9,2.9 h -1.7 v 3 h 1.5 c 0.3,0 0.5,0 0.8,-0.1 0.3,0 0.5,-0.1 0.7,-0.2 0.2,-0.1 0.4,-0.3 0.5,-0.5 0.2,-0.2 0.3,-0.4 0.3,-0.8 z"
     id="path3239"
     style="fill:#00a2e2" /><path
     d="m 142.1,13.4 v -13 h 3.2 v 13 h -3.2 z"
     id="path3241"
     style="fill:#00a2e2" /><path
     d="m 155.7,3.7 c -0.3,-0.3 -0.6,-0.6 -1.1,-0.8 -0.4,-0.2 -0.9,-0.3 -1.3,-0.3 -0.2,0 -0.4,0 -0.6,0.1 -0.2,0 -0.4,0.1 -0.6,0.2 -0.2,0.1 -0.3,0.2 -0.4,0.4 -0.1,0.2 -0.2,0.4 -0.2,0.6 0,0.2 0,0.4 0.1,0.6 0.1,0.1 0.2,0.3 0.4,0.4 0.2,0.1 0.4,0.2 0.6,0.3 0.2,0.1 0.5,0.2 0.8,0.3 0.4,0.1 0.9,0.3 1.4,0.5 0.5,0.2 0.9,0.4 1.3,0.7 0.4,0.3 0.7,0.7 1,1.1 0.3,0.4 0.4,1 0.4,1.6 0,0.7 -0.1,1.4 -0.4,1.9 -0.3,0.5 -0.6,1 -1.1,1.4 -0.5,0.4 -1,0.6 -1.6,0.8 -0.6,0.2 -1.2,0.3 -1.9,0.3 -0.9,0 -1.8,-0.2 -2.7,-0.5 -0.9,-0.3 -1.6,-0.8 -2.2,-1.4 l 2.1,-2.1 c 0.3,0.4 0.7,0.7 1.3,1 0.5,0.3 1,0.4 1.6,0.4 0.2,0 0.5,0 0.7,-0.1 0.2,0 0.4,-0.1 0.6,-0.2 0.2,-0.1 0.3,-0.3 0.4,-0.4 0.1,-0.2 0.1,-0.4 0.1,-0.7 0,-0.2 -0.1,-0.5 -0.2,-0.6 -0.1,-0.2 -0.3,-0.3 -0.5,-0.5 -0.2,-0.2 -0.5,-0.3 -0.8,-0.4 -0.3,-0.1 -0.7,-0.2 -1.2,-0.4 -0.4,-0.1 -0.8,-0.3 -1.2,-0.5 -0.4,-0.2 -0.8,-0.4 -1.1,-0.7 -0.3,-0.3 -0.6,-0.6 -0.8,-1 -0.2,-0.4 -0.3,-0.9 -0.3,-1.5 0,-0.7 0.1,-1.3 0.4,-1.9 0.3,-0.5 0.7,-0.9 1.2,-1.3 0.5,-0.3 1,-0.6 1.6,-0.7 0.6,-0.2 1.2,-0.2 1.8,-0.2 0.7,0 1.5,0.1 2.3,0.4 0.8,0.3 1.4,0.7 2,1.2 l -1.9,2 z"
     id="path3243"
     style="fill:#00a2e2" /><polygon
     points="39.9,41.5 39.8,41.5 0,41.5 8,55.3 31.9,55.3 43.9,76 59.8,76 39.9,41.5 "
     id="polygon3245"
     style="fill:#1d1d1b" /><polygon
     points="73.7,17.4 65.7,3.6 45.8,38.1 65.8,72.6 73.7,58.8 61.8,38.1 "
     id="polygon3247"
     style="fill:#1d1d1b" /><polygon
     points="51.8,13.9 59.8,0.1 20,0.1 0,34.6 16,34.6 27.9,13.9 "
     id="polygon3249"
     style="fill:#00a2e2" /></svg>
