<?xml version="1.0" encoding="utf-8"?>
<!-- Generator: Adobe Illustrator 17.1.0, SVG Export Plug-In . SVG Version: 6.00 Build 0)  -->
<!DOCTYPE svg PUBLIC "-//W3C//DTD SVG 1.1//EN" "http://www.w3.org/Graphics/SVG/1.1/DTD/svg11.dtd">
<svg version="1.1" id="Layer_1" xmlns="http://www.w3.org/2000/svg" xmlns:xlink="http://www.w3.org/1999/xlink" x="0px" y="0px"
	 viewBox="0 147.4 841.9 300.5" enable-background="new 0 147.4 841.9 300.5" xml:space="preserve">
<g>
	<g>
		<path fill="#CE1126" d="M35.1,354.2v16.7h31.3V387H35.1v31.5H15.7v-81.1h53.3v16.7h-34V354.2z"/>
		<path fill="#CE1126" d="M166,377.6c0,6.4-1.1,12.3-3.3,17.6c-2.2,5.3-5.3,9.8-9.2,13.6c-3.9,3.7-8.6,6.7-14,8.7
			c-5.5,2-11.2,3.1-17.6,3.1c-6.4,0-12.2-1.1-17.6-3.1c-5.3-2-10-5-14-8.7c-3.9-3.7-7-8.3-9.2-13.6s-3.3-11.2-3.3-17.6
			c0-6.5,1.1-12.3,3.3-17.6c2.2-5.3,5.3-9.7,9.2-13.3c3.9-3.6,8.6-6.5,14-8.4c5.3-2,11.2-3,17.6-3c6.4,0,12.2,0.9,17.6,3
			c5.5,2,10.1,4.8,14,8.4c3.9,3.6,7,8.1,9.2,13.3C164.9,365.3,166,371.1,166,377.6z M145.1,377.6c0-3.4-0.6-6.9-1.7-9.8
			c-1.1-3.1-2.8-5.6-4.7-7.8c-2-2.2-4.5-3.9-7.3-5.1c-2.8-1.2-6.1-1.9-9.5-1.9s-6.5,0.6-9.4,1.9c-2.8,1.2-5.3,3-7.3,5.1
			s-3.6,4.8-4.7,7.8c-1.1,3.1-1.7,6.4-1.7,9.8c0,3.6,0.6,7,1.7,10.1c1.1,3.1,2.7,5.8,4.7,8c2,2.2,4.4,3.9,7.3,5.1
			c2.8,1.2,5.9,1.9,9.4,1.9s6.5-0.6,9.4-1.9c2.8-1.2,5.3-3,7.3-5.1c2-2.2,3.6-4.8,4.8-8C144.5,384.6,145.1,381.4,145.1,377.6z"/>
		<path fill="#CE1126" d="M222.3,418.5l-17.6-32.1H198v32.1h-19.2v-81.1h30.9c3.9,0,7.6,0.5,11.4,1.2c3.7,0.8,7,2.2,10,4.1
			c3,1.9,5.3,4.4,7,7.5c1.7,3.1,2.7,7,2.7,11.7c0,5.5-1.6,10.1-4.5,13.9c-3,3.7-7,6.4-12.3,8l21.2,34.6h-22.8V418.5z M221.5,362.3
			c0-1.9-0.5-3.4-1.2-4.7c-0.8-1.2-1.9-2-3.1-2.8c-1.2-0.6-2.7-1.1-4.2-1.2c-1.6-0.2-3.1-0.3-4.5-0.3H198v18.9h9.4
			c1.6,0,3.3-0.2,5-0.5c1.7-0.3,3.3-0.8,4.5-1.4c1.4-0.6,2.5-1.7,3.4-3C221.1,366.1,221.5,364.4,221.5,362.3z"/>
		<path fill="#CE1126" d="M254.7,418.5v-81.1h19.6v81.1H254.7z"/>
		<path fill="#CE1126" d="M333.9,358.4c-1.7-2.2-3.9-3.9-6.5-5.1s-5.3-1.9-7.8-1.9c-1.2,0-2.7,0.2-3.9,0.3c-1.4,0.2-2.5,0.6-3.6,1.2
			s-2,1.6-2.7,2.5c-0.8,1.1-1.1,2.3-1.1,3.9c0,1.4,0.3,2.5,0.8,3.4c0.5,0.9,1.4,1.7,2.5,2.3c1.1,0.6,2.5,1.2,3.9,1.9
			c1.6,0.6,3.3,1.1,5.1,1.7c2.8,0.9,5.6,1.9,8.6,3c3,1.1,5.6,2.7,8.1,4.4c2.5,1.9,4.5,4.1,6.1,6.9c1.6,2.7,2.3,6.1,2.3,10.1
			c0,4.7-0.8,8.7-2.7,12c-1.7,3.4-4.1,6.2-6.9,8.4c-3,2.2-6.2,3.9-10,5s-7.6,1.6-11.5,1.6c-5.8,0-11.4-0.9-16.8-3
			c-5.5-2-10-4.8-13.6-8.6l12.8-13.1c2,2.5,4.5,4.5,7.8,6.1c3.3,1.7,6.4,2.5,9.7,2.5c1.4,0,2.8-0.2,4.2-0.5c1.4-0.3,2.7-0.8,3.6-1.6
			c0.9-0.8,1.9-1.6,2.5-2.8c0.6-1.1,0.9-2.5,0.9-4.1s-0.3-2.8-1.1-3.9c-0.8-1.1-1.9-2-3.3-3c-1.4-0.9-3.1-1.7-5.3-2.3
			c-2-0.8-4.5-1.6-7.2-2.3c-2.7-0.8-5.1-1.9-7.6-3s-4.7-2.7-6.7-4.4c-1.9-1.7-3.6-3.9-4.7-6.5c-1.2-2.5-1.7-5.6-1.7-9.4
			c0-4.5,0.9-8.4,2.8-11.5c1.9-3.3,4.2-5.8,7.2-8c3-2,6.4-3.6,10.1-4.5c3.7-0.9,7.5-1.4,11.4-1.4c4.5,0,9.2,0.8,14,2.5
			c4.8,1.7,8.9,4.2,12.5,7.5L333.9,358.4z"/>
	</g>
	<g id="gear-9-icon_8_">
		<path fill="#B3B3B3" d="M588.4,325.2c4.7,2.3,8.3,6.4,9.7,11.5l0,0c1.4,5,0.6,10.4-2,14.8l-7.2,11.5l14.8,18.7l12.9-4.5
			c4.8-1.7,10.3-1.2,14.8,1.4l0,0c4.5,2.5,8,7,9,12l3.1,13.3l23.7,2.7l6.1-12.3c2.3-4.7,6.4-8.1,11.5-9.7l0,0c5-1.4,10.4-0.6,14.8,2
			l11.5,7.2l18.7-14.8l-4.4-12.9c-1.7-5-1.2-10.4,1.2-15l0,0c2.5-4.5,6.9-7.8,12-9l13.3-3.1l2.7-23.7l-12.3-6.1
			c-4.7-2.3-8.1-6.4-9.7-11.5l0,0c-1.4-5-0.6-10.4,2-14.8l7.2-11.5l-14.8-18.7l-12.9,4.4c-5,1.7-10.3,1.2-15-1.4l0,0
			c-4.5-2.5-7.8-6.9-9-12l-3.1-13.3l-23.5-2l-6.1,12.3c-2.3,4.7-6.4,8.1-11.5,9.7l0,0c-5,1.4-10.4,0.6-14.8-2l-11.5-7.2l-18.7,14.8
			l4.4,12.9c1.7,5,1.2,10.3-1.4,15l0,0c-2.5,4.5-6.9,7.8-12,9l-13.3,3.1l-2.7,23.7L588.4,325.2z M633.1,313.9
			c2-17.8,18.1-30.6,35.9-28.5c17.8,2,30.6,18.1,28.5,35.9c-2,17.8-18.1,30.6-35.9,28.5C643.9,347.7,631.1,331.6,633.1,313.9z
			 M495.3,382.9c2.5,1.2,4.4,3.4,5.1,6.1l0,0c0.8,2.7,0.3,5.5-1.1,8l-3.9,6.2l8,10l6.9-2.3c2.7-0.9,5.5-0.6,7.8,0.6l0,0
			c2.5,1.4,4.2,3.7,4.8,6.4l1.6,7l12.6,1.4l3.3-6.5c1.2-2.5,3.4-4.4,6.1-5.1l0,0c2.7-0.8,5.6-0.3,8,1.1l6.1,3.9l10-8l-2.3-6.9
			c-0.9-2.7-0.6-5.5,0.8-8l0,0c1.4-2.5,3.6-4.2,6.4-4.8l7-1.7l1.4-12.6l-6.5-3.3c-2.5-1.2-4.4-3.4-5.1-6.1l0,0
			c-0.8-2.7-0.3-5.6,1.1-8l3.9-6.2l-8-10l-6.9,2.3c-2.7,0.9-5.5,0.6-8-0.8l0,0c-2.5-1.4-4.2-3.6-4.8-6.4l-1.7-7l-12.6-1.4l-3.3,6.5
			c-1.2,2.5-3.4,4.4-6.1,5.1l0,0c-2.7,0.8-5.5,0.3-8-1.1l-6.2-3.9l-10,8l2.3,6.9c0.9,2.7,0.6,5.5-0.8,8l0,0
			c-1.4,2.5-3.6,4.2-6.4,4.8l-7,1.7l-1.4,12.6L495.3,382.9z M519.2,376.8c1.1-9.5,9.7-16.2,19-15.1c9.5,1.1,16.2,9.7,15.1,19
			c-1.1,9.5-9.7,16.2-19,15.1C524.9,394.8,518.1,386.4,519.2,376.8z"/>
		<path fill="#4D4D4D" d="M538.6,428.9l-16.1-1.8l-1.9-8.8c-0.5-2-1.8-3.7-3.6-4.8c-1.7-0.9-3.9-1.1-5.7-0.4l-8.6,2.9l-10.2-12.7
			l4.8-7.7c1.1-2,1.4-4.1,0.8-6c-0.6-2-2-3.6-3.9-4.5l-8.6-4.2l1.8-16.1l8.7-2.1c2.1-0.5,3.7-1.7,4.8-3.6c1.1-1.9,1.3-4,0.6-5.9
			l-2.9-8.6l12.7-10.2l7.7,4.8c2,1.1,4.1,1.4,6,0.8c2-0.6,3.6-2,4.5-3.9l4.1-8.1l16.1,1.8l2.1,8.7c0.5,2.1,1.7,3.7,3.6,4.8
			c1.9,1.1,4,1.3,5.9,0.6l8.6-2.9l10.2,12.7l-4.8,7.7c-1.1,1.8-1.4,4-0.8,5.9c0.6,2,2,3.6,3.9,4.5l8.1,4.1l-1.8,16.1l-8.7,2.1
			c-2.1,0.5-3.7,1.7-4.8,3.6c-1.1,1.9-1.3,4-0.6,5.9l2.9,8.6l-12.8,10.2l-7.6-4.9c-1.7-1-4-1.4-5.9-0.8c-2,0.6-3.6,2-4.5,3.9
			L538.6,428.9z M526.5,422.6l9.1,1l2.5-5c1.6-3.1,4.3-5.5,7.6-6.4c3.2-1,7-0.4,9.9,1.3l4.6,3l7.2-5.7l-1.8-5.2
			c-1.2-3.3-0.8-6.8,1-10c1.8-3.2,4.6-5.3,8-6l5.3-1.3l1-9.2l-5-2.5c-3.1-1.6-5.5-4.3-6.4-7.6c-1-3.2-0.4-7,1.3-9.9l3-4.8l-5.8-7.2
			l-5.2,1.8c-3.2,1.1-6.9,0.8-10-1c-3.2-1.8-5.3-4.6-6-8l-1.3-5.3l-9.2-1l-2.5,5c-1.6,3.1-4.3,5.5-7.6,6.4c-3.2,0.9-6.7,0.5-9.9-1.3
			l-0.1-0.1l-4.7-3l-7.2,5.8l1.8,5.2c1.2,3.3,0.8,6.8-1,10c-1.8,3.2-4.6,5.3-8,6l-5.3,1.3l-1,9.1l5.4,2.7c3.1,1.6,5.5,4.3,6.4,7.6
			c0.9,3.2,0.5,6.7-1.3,9.9l-0.1,0.1l-3,4.7l5.8,7.2l5.2-1.8c3.1-1.1,6.8-0.8,9.8,0.8c3.1,1.7,5.3,4.7,6.1,8L526.5,422.6z
			 M668.7,409.3l-27.2-3l-3.5-15c-0.9-4.3-3.9-8.2-7.8-10.4c-3.9-2.3-8.6-2.7-12.8-1.2l-14.6,5.1l-17-21.5l8.1-13
			c2.3-3.8,2.9-8.6,1.7-12.8c-1.2-4.3-4.1-7.8-8.3-10l-14.1-6.3l3-27.3l15-3.5c4.5-1.1,8.2-3.9,10.4-7.8c2.3-4,2.7-8.6,1.2-12.9
			l-4.9-14.6l21.5-17l13,8.1c2.5,1.5,5.4,2.3,8.5,2.3c1.5,0,2.9-0.2,4.3-0.6c4.4-1.3,7.9-4.3,10-8.4l6.8-13.8l27,2.3l3.5,15
			c1.1,4.5,3.9,8.2,7.8,10.4c4.1,2.3,8.6,2.7,12.9,1.2l14.6-4.9l17,21.5l-8.1,13c-2.3,3.8-2.9,8.6-1.7,12.8c1.3,4.4,4.3,7.9,8.4,10
			l13.9,6.9l-3,27.2l-15,3.5c-4.5,1.1-8.2,3.9-10.4,7.8c-2.2,3.9-2.6,8.6-1.1,12.9l4.9,14.6l-21.5,17l-13-8.1
			c-2.5-1.5-5.4-2.3-8.5-2.3c-1.5,0-2.9,0.2-4.3,0.6c-4.4,1.3-7.9,4.3-10,8.4L668.7,409.3z M645.6,401.7l20.2,2.3l5.3-10.7
			c2.7-5.3,7.3-9.2,13.1-11c5.7-1.6,11.9-0.7,16.8,2.3l10.1,6.3l16-12.6l-3.8-11.3c-1.9-5.6-1.4-11.8,1.4-17
			c2.8-5.1,7.8-8.9,13.6-10.3l11.6-2.7l2.3-20.2l-10.7-5.3c-5.3-2.7-9.2-7.3-11-13.1c-1.6-5.7-0.8-11.8,2.3-16.8l6.3-10.1l-12.6-16
			l-11.3,3.8c-2.2,0.8-4.5,1.1-6.8,1.1c-3.6,0-7-0.9-10.2-2.7c-5.1-2.8-8.8-7.8-10.2-13.6l-2.7-11.5l-20-1.7l-5.3,10.8
			c-2.7,5.3-7.3,9.2-13.1,11c-5.7,1.6-11.9,0.7-16.8-2.3l-10.1-6.3l-15.9,12.6l3.8,11.3c2,5.7,1.4,11.7-1.6,17
			c-2.8,5.1-7.8,8.8-13.6,10.2l-11.6,2.7l-2.3,20.1l10.9,4.9c5.5,2.8,9.4,7.4,11,13.1c1.6,5.6,0.7,11.7-2.3,16.8l-6.3,10.1
			l12.6,15.9l11.3-3.9c5.5-1.9,11.8-1.4,16.9,1.6c5.1,2.8,9,7.9,10.2,13.6L645.6,401.7z M536.3,398.5c-0.8,0-1.5,0-2.3-0.1
			c-10.8-1.3-18.6-11-17.3-21.8c1.1-10,9.5-17.5,19.5-17.5c0.8,0,1.5,0,2.3,0.1c5.2,0.6,9.9,3.2,13.2,7.3c3.3,4.1,4.7,9.3,4.1,14.5
			C554.7,391,546.3,398.5,536.3,398.5z M536.2,364.1c-7.4,0-13.7,5.6-14.5,13c-0.9,8,4.9,15.3,12.9,16.3c0.6,0.1,1.1,0.1,1.7,0.1
			c7.4,0,13.7-5.6,14.5-13c0.5-3.9-0.6-7.7-3.1-10.8c-2.4-3.1-5.9-5-9.9-5.5C537.3,364.1,536.8,364.1,536.2,364.1z M665.4,352.4
			c-1.3,0-2.7-0.1-4-0.2c-19.1-2.2-32.9-19.5-30.7-38.6c2-17.6,16.9-31,34.6-31c1.3,0,2.7,0.1,4,0.2c19.1,2.2,32.9,19.5,30.7,38.6
			C698,339.1,683.1,352.4,665.4,352.4z M665.3,287.6c-15.2,0-27.9,11.4-29.7,26.5c-1.9,16.4,9.9,31.2,26.3,33.1
			c1.1,0.1,2.3,0.2,3.4,0.2c15.2,0,27.9-11.4,29.7-26.5c1.9-16.4-9.9-31.2-26.3-33.1C667.6,287.7,666.4,287.6,665.3,287.6z"/>
	</g>
	<g>
		<path fill="#333333" d="M40.2,210.5l-3.1-8H21.4l-3,8H7.8l17-40.5h9.5l16.8,40.5H40.2z M29.3,180.9l-5.1,13.9h10.1L29.3,180.9z"/>
		<path fill="#333333" d="M93.4,190.2c0,3.6-0.6,6.5-2,9.2c-1.4,2.7-3.1,4.7-5.1,6.4c-2.2,1.7-4.5,2.8-7.3,3.6
			c-2.7,0.8-5.5,1.2-8.3,1.2H55.5v-40.5h14.7c2.8,0,5.6,0.3,8.4,0.9c2.8,0.6,5.3,1.7,7.5,3.3c2.2,1.6,3.9,3.6,5.3,6.2
			S93.4,186.3,93.4,190.2z M83.3,190.2c0-2.3-0.3-4.2-1.1-5.8c-0.8-1.6-1.7-2.7-3-3.6c-1.2-0.9-2.7-1.6-4.2-1.9
			c-1.7-0.5-3.3-0.6-5-0.6h-4.8v23.7h4.7c1.7,0,3.4-0.2,5-0.6c1.6-0.5,3.1-1.1,4.4-2s2.2-2.2,3-3.6
			C82.8,194.3,83.3,192.4,83.3,190.2z"/>
		<path fill="#333333" d="M137.8,210.5l0.2-28.7h-0.2l-10.6,28.7h-6.9l-10.3-28.7h-0.2l0.2,28.7h-9.2V170h13.9l9.2,26h0.2l8.9-26
			h14.2v40.5H137.8z"/>
		<path fill="#333333" d="M156.8,210.5V170h9.8v40.5H156.8z"/>
		<path fill="#333333" d="M201.9,210.5L185.5,184h-0.2l0.2,26.5h-9.4V170h11.2l16.2,26.5h0.2l-0.2-26.5h9.5v40.5H201.9z"/>
		<path fill="#333333" d="M222.5,210.5V170h9.8v40.5H222.5z"/>
		<path fill="#333333" d="M263.2,180.6c-0.8-1.1-1.9-1.9-3.3-2.5c-1.4-0.6-2.7-0.9-3.9-0.9c-0.6,0-1.2,0-2,0.2
			c-0.8,0.2-1.2,0.3-1.9,0.6c-0.5,0.3-0.9,0.8-1.4,1.2c-0.3,0.5-0.5,1.2-0.5,2c0,0.6,0.2,1.2,0.5,1.7c0.3,0.5,0.8,0.8,1.2,1.2
			c0.6,0.3,1.2,0.6,2,0.9s1.6,0.6,2.7,0.9c1.4,0.5,2.8,0.9,4.4,1.6c1.6,0.6,2.8,1.2,4.1,2.2c1.2,0.9,2.2,2,3,3.4
			c0.8,1.4,1.2,3.1,1.2,5c0,2.3-0.5,4.4-1.2,6.1c-0.8,1.7-2,3.1-3.4,4.2c-1.4,1.1-3.1,1.9-5,2.5c-1.9,0.5-3.7,0.8-5.8,0.8
			c-3,0-5.8-0.5-8.4-1.6c-2.7-0.9-5-2.5-6.7-4.4l6.4-6.5c0.9,1.2,2.3,2.2,3.9,3.1c1.6,0.8,3.3,1.2,4.8,1.2c0.8,0,1.4,0,2.2-0.2
			c0.6-0.2,1.2-0.5,1.9-0.8c0.5-0.3,0.9-0.8,1.2-1.4s0.5-1.2,0.5-2c0-0.8-0.2-1.4-0.6-1.9c-0.3-0.5-0.9-1.1-1.6-1.4
			c-0.8-0.5-1.6-0.8-2.7-1.2c-1.1-0.3-2.2-0.8-3.6-1.2c-1.2-0.5-2.5-0.9-3.7-1.6c-1.2-0.6-2.3-1.2-3.3-2.2c-0.9-0.9-1.7-2-2.3-3.3
			c-0.6-1.2-0.9-2.8-0.9-4.7c0-2.2,0.5-4.2,1.4-5.8c0.9-1.6,2.2-3,3.6-3.9c1.4-0.9,3.1-1.7,5-2.2c1.9-0.5,3.7-0.8,5.6-0.8
			c2.3,0,4.7,0.5,7,1.2s4.5,2,6.2,3.7L263.2,180.6z"/>
		<path fill="#333333" d="M293.4,178.4v32.1h-9.8v-32.1h-11.4V170H305v8.4H293.4z"/>
		<path fill="#333333" d="M332.1,210.5l-8.7-16.1h-3.3v16.1h-9.5V170H326c1.9,0,3.9,0.2,5.8,0.6c1.9,0.5,3.4,1.1,5,2
			c1.4,0.9,2.7,2.2,3.6,3.7c0.9,1.6,1.2,3.4,1.2,5.8c0,2.8-0.8,5-2.2,6.9c-1.6,1.9-3.6,3.3-6.2,4.1l10.6,17.3h-11.7V210.5z
			 M331.6,182.4c0-0.9-0.2-1.7-0.6-2.3s-0.9-1.1-1.6-1.4c-0.6-0.3-1.4-0.5-2.2-0.6c-0.8-0.2-1.6-0.2-2.3-0.2h-5.3v9.5h4.7
			c0.8,0,1.6,0,2.5-0.2c0.8-0.2,1.6-0.3,2.3-0.8c0.6-0.3,1.2-0.8,1.7-1.6C331.5,184.3,331.6,183.5,331.6,182.4z"/>
		<path fill="#333333" d="M377,210.5l-3.1-8h-15.7l-3,8h-10.6l17-40.5h9.5l16.8,40.5H377z M366.1,180.9l-5.1,13.9h10.1L366.1,180.9z
			"/>
		<path fill="#333333" d="M426.9,204.9c-1.7,2-4.1,3.7-6.7,4.8s-5.6,1.9-9,1.9c-3.1,0-6.1-0.5-8.7-1.6c-2.7-1.1-5-2.5-6.9-4.4
			c-1.9-1.9-3.4-4.2-4.5-6.7c-1.1-2.7-1.7-5.5-1.7-8.7s0.6-6.2,1.7-8.9c1.1-2.7,2.7-4.8,4.7-6.7c2-1.9,4.4-3.3,7-4.2
			c2.7-0.9,5.6-1.6,8.6-1.6c2.8,0,5.6,0.5,8.4,1.6c2.8,0.9,5,2.5,6.7,4.4l-6.7,6.7c-0.9-1.2-2.2-2.2-3.6-2.8c-1.6-0.6-3-0.9-4.5-0.9
			c-1.7,0-3.3,0.3-4.7,0.9c-1.4,0.6-2.7,1.6-3.7,2.7c-1.1,1.1-1.9,2.3-2.3,3.9c-0.6,1.6-0.9,3.1-0.9,5s0.3,3.6,0.9,5
			c0.6,1.6,1.4,2.8,2.3,3.9c0.9,1.1,2.2,1.9,3.6,2.5c1.4,0.6,3,0.9,4.7,0.9c1.9,0,3.6-0.3,5.1-1.1c1.4-0.8,2.7-1.7,3.4-3
			L426.9,204.9z M415.8,166.8h-8.4l-7-8.3h7.5l3.9,4.7l3.9-4.7h7.3L415.8,166.8z"/>
		<path fill="#333333" d="M457.9,210.5L441.5,184h-0.2l0.2,26.5H432V170h11.2l16.2,26.5h0.2l-0.2-26.5h9.5v40.5H457.9z"/>
		<path fill="#333333" d="M485.6,166.8h-7l5.9-8.3h9.5L485.6,166.8z M478.6,210.5V170h9.8v40.5H478.6z"/>
		<path fill="#333333" d="M535.1,210.5l-8.7-16.1h-3.3v16.1h-9.5V170H529c1.9,0,3.9,0.2,5.8,0.6c1.9,0.5,3.4,1.1,5,2
			c1.4,0.9,2.7,2.2,3.6,3.7c0.9,1.6,1.2,3.4,1.2,5.8c0,2.8-0.8,5-2.2,6.9c-1.6,1.9-3.6,3.3-6.2,4.1l10.6,17.3h-11.7V210.5z
			 M534.6,182.4c0-0.9-0.2-1.7-0.6-2.3c-0.5-0.6-0.9-1.1-1.6-1.4s-1.4-0.5-2.2-0.6c-0.8-0.2-1.6-0.2-2.3-0.2h-5.3v9.5h4.7
			c0.8,0,1.6,0,2.5-0.2c0.8-0.2,1.6-0.3,2.3-0.8c0.6-0.3,1.2-0.8,1.7-1.6C534.4,184.3,534.6,183.5,534.6,182.4z"/>
		<path fill="#333333" d="M594.6,190.1c0,3.3-0.6,6.1-1.7,8.7c-1.1,2.7-2.7,5-4.7,6.9c-2,1.9-4.4,3.3-7,4.4
			c-2.7,1.1-5.6,1.6-8.9,1.6c-3.1,0-6.1-0.5-8.7-1.6c-2.7-1.1-5-2.5-7-4.4c-2-1.9-3.4-4.2-4.7-6.9c-1.1-2.7-1.7-5.6-1.7-8.7
			c0-3.3,0.6-6.2,1.7-8.7c1.1-2.7,2.7-4.8,4.7-6.7c2-1.9,4.4-3.3,7-4.2c2.7-0.9,5.6-1.6,8.7-1.6c3.1,0,6.1,0.5,8.9,1.6
			c2.7,0.9,5,2.3,7,4.2c2,1.9,3.4,4.1,4.7,6.7C594,184,594.6,186.8,594.6,190.1z M584.2,190.1c0-1.7-0.3-3.4-0.9-5
			c-0.6-1.6-1.4-2.8-2.3-3.9s-2.2-1.9-3.6-2.7c-1.4-0.6-3-0.9-4.7-0.9s-3.3,0.3-4.7,0.9c-1.4,0.6-2.7,1.6-3.6,2.7
			c-1.1,1.1-1.9,2.3-2.3,3.9c-0.6,1.6-0.8,3.1-0.8,5s0.3,3.6,0.9,5c0.6,1.6,1.4,2.8,2.3,3.9c0.9,1.1,2.2,2,3.6,2.7s3,0.9,4.7,0.9
			s3.3-0.3,4.7-0.9s2.7-1.6,3.6-2.7c1.1-1.1,1.9-2.5,2.3-3.9S584.2,191.9,584.2,190.1z"/>
		<path fill="#333333" d="M599,210.5v-8.4l19.3-23.9h-18.9V170h31v7.8l-19.8,24.2h20.1v8.4H599V210.5z"/>
		<path fill="#333333" d="M663.8,210.5v-16.8h-15.7v17h-9.8v-40.5h9.8v15.3h15.7v-15.3h9.8v40.5h-9.8V210.5z"/>
		<path fill="#333333" d="M704.8,210.5l-8.7-16.1h-3.3v16.1h-9.5V170h15.4c1.9,0,3.9,0.2,5.8,0.6c1.9,0.5,3.4,1.1,5,2
			c1.4,0.9,2.7,2.2,3.6,3.7c0.9,1.6,1.2,3.4,1.2,5.8c0,2.8-0.8,5-2.2,6.9c-1.6,1.9-3.6,3.3-6.2,4.1l10.6,17.3h-11.7V210.5z
			 M704.4,182.4c0-0.9-0.2-1.7-0.6-2.3c-0.5-0.6-0.9-1.1-1.6-1.4s-1.4-0.5-2.2-0.6c-0.8-0.2-1.6-0.2-2.3-0.2h-5.3v9.5h4.7
			c0.8,0,1.6,0,2.5-0.2c0.8-0.2,1.6-0.3,2.3-0.8c0.6-0.3,1.2-0.8,1.7-1.6C704.2,184.3,704.4,183.5,704.4,182.4z"/>
		<path fill="#333333" d="M749.7,210.5l-3.1-8h-15.7l-3,8h-10.6l17-40.5h9.5l16.8,40.5H749.7z M738.8,180.9l-5.1,13.9h10.1
			L738.8,180.9z"/>
		<path fill="#333333" d="M790.8,210.5L774.4,184h-0.2l0.2,26.5h-9.5V170h11.2l16.2,26.5h0.2l-0.2-26.5h9.5v40.5H790.8z"/>
		<path fill="#333333" d="M818.5,166.8h-7l5.9-8.3h9.5L818.5,166.8z M811.5,210.5V170h9.8v40.5H811.5z"/>
		<path fill="#333333" d="M34.5,296.4l-8.7-16.1h-3.3v16.1h-9.7v-40.5h15.4c1.9,0,3.9,0.2,5.8,0.6c1.9,0.5,3.4,1.1,5,2
			c1.4,0.9,2.7,2.2,3.6,3.7c0.9,1.6,1.1,3.4,1.1,5.8c0,2.8-0.8,5-2.2,6.9c-1.6,1.9-3.6,3.3-6.2,4.1l10.6,17.3H34.5V296.4z M34,268.2
			c0-0.9-0.2-1.7-0.6-2.3s-0.9-1.1-1.6-1.4c-0.6-0.3-1.4-0.5-2.2-0.6c-0.8-0.2-1.6-0.2-2.3-0.2H22v9.5h4.7c0.8,0,1.6,0,2.5-0.2
			c0.8-0.2,1.6-0.3,2.3-0.8c0.6-0.3,1.2-0.8,1.7-1.6C33.8,270,34,269.3,34,268.2z"/>
		<path fill="#333333" d="M94,276c0,3.3-0.6,6.1-1.7,8.7s-2.7,5-4.7,6.9s-4.4,3.3-7,4.4c-2.7,1.1-5.6,1.6-8.9,1.6
			c-3.1,0-6.1-0.5-8.7-1.6c-2.7-1.1-5-2.5-7-4.4s-3.4-4.2-4.7-6.9c-1.1-2.7-1.7-5.6-1.7-8.7c0-3.3,0.6-6.2,1.7-8.7
			c1.1-2.7,2.7-4.8,4.7-6.7s4.4-3.3,7-4.2c2.7-0.9,5.6-1.6,8.7-1.6c3.1,0,6.1,0.5,8.9,1.6c2.7,0.9,5,2.3,7,4.2
			c2,1.9,3.4,4.1,4.7,6.7C93.5,269.7,94,272.7,94,276z M83.6,276c0-1.7-0.3-3.4-0.9-5c-0.6-1.6-1.4-2.8-2.3-3.9
			c-0.9-1.1-2.2-1.9-3.6-2.7c-1.4-0.6-3-0.9-4.7-0.9s-3.3,0.3-4.7,0.9s-2.7,1.6-3.6,2.7c-1.1,1.1-1.9,2.3-2.3,3.9
			c-0.6,1.6-0.8,3.1-0.8,5c0,1.9,0.3,3.6,0.9,5c0.6,1.6,1.4,2.8,2.3,3.9s2.2,2,3.6,2.7c1.4,0.6,3,0.9,4.7,0.9s3.3-0.3,4.7-0.9
			s2.7-1.6,3.6-2.7c1.1-1.1,1.9-2.5,2.3-3.9C83.3,279.4,83.6,277.7,83.6,276z"/>
		<path fill="#333333" d="M134.7,287.7c-0.8,2-2,3.7-3.6,5.1c-1.6,1.4-3.4,2.5-5.5,3.3c-2,0.8-4.5,1.2-7.2,1.2s-5.1-0.5-7.2-1.2
			c-2-0.8-3.9-1.9-5.5-3.3c-1.6-1.4-2.7-3.1-3.4-5.1c-0.8-2-1.2-4.2-1.2-6.7v-25.1h9.7v24.5c0,1.1,0.2,2.2,0.5,3.1
			c0.3,0.9,0.8,1.9,1.2,2.7c0.6,0.8,1.4,1.4,2.3,1.9c0.9,0.5,2.2,0.6,3.6,0.6s2.5-0.2,3.6-0.6c0.9-0.5,1.7-1.1,2.3-1.9
			c0.6-0.8,1.1-1.7,1.2-2.7c0.3-0.9,0.5-2,0.5-3.1v-24.5h9.8v25.3C135.9,283.5,135.6,285.6,134.7,287.7z"/>
		<path fill="#333333" d="M162.3,264.1v32.1h-9.8v-32.1h-11.4v-8.4h32.7v8.4H162.3z"/>
		<path fill="#333333" d="M179.4,296.4v-40.5h27.3v8.3H189v7.6h16.8v7.8H189v8.4h18.9v8.4H179.4L179.4,296.4z"/>
		<path fill="#333333" d="M237,296.4l-8.7-16.1H225v16.1h-9.5v-40.5h15.4c1.9,0,3.9,0.2,5.8,0.6c1.9,0.5,3.4,1.1,5,2
			c1.4,0.9,2.7,2.2,3.6,3.7s1.2,3.4,1.2,5.8c0,2.8-0.8,5-2.2,6.9c-1.6,1.9-3.6,3.3-6.2,4.1l10.6,17.3H237V296.4z M236.5,268.2
			c0-0.9-0.2-1.7-0.6-2.3c-0.5-0.6-0.9-1.1-1.6-1.4c-0.6-0.3-1.4-0.5-2.2-0.6c-0.8-0.2-1.6-0.2-2.3-0.2h-5.3v9.5h4.7
			c0.8,0,1.6,0,2.5-0.2c0.8-0.2,1.6-0.3,2.3-0.8c0.6-0.3,1.2-0.8,1.7-1.6C236.4,270,236.5,269.3,236.5,268.2z"/>
		<path fill="#333333" d="M287.5,287.7c-0.8,2-2,3.7-3.6,5.1c-1.6,1.4-3.4,2.5-5.5,3.3c-2,0.8-4.5,1.2-7.2,1.2
			c-2.7,0-5.1-0.5-7.2-1.2c-2-0.8-3.9-1.9-5.5-3.3c-1.6-1.4-2.7-3.1-3.4-5.1c-0.8-2-1.2-4.2-1.2-6.7v-25.1h9.7v24.5
			c0,1.1,0.2,2.2,0.5,3.1c0.3,0.9,0.8,1.9,1.2,2.7c0.6,0.8,1.4,1.4,2.3,1.9c0.9,0.5,2.2,0.6,3.6,0.6c1.4,0,2.5-0.2,3.6-0.6
			c0.9-0.5,1.7-1.1,2.3-1.9c0.6-0.8,1.1-1.7,1.2-2.7c0.3-0.9,0.5-2,0.5-3.1v-24.5h9.8v25.3C288.6,283.5,288.3,285.6,287.5,287.7z"/>
		<path fill="#333333" d="M329.1,264.1v32.1h-9.8v-32.1h-11.4v-8.4h32.7v8.4H329.1z"/>
		<path fill="#333333" d="M379.2,287.7c-0.8,2-2,3.7-3.6,5.1c-1.6,1.4-3.4,2.5-5.5,3.3c-2,0.8-4.5,1.2-7.2,1.2
			c-2.7,0-5.1-0.5-7.2-1.2c-2-0.8-3.9-1.9-5.5-3.3c-1.6-1.4-2.7-3.1-3.4-5.1c-0.8-2-1.2-4.2-1.2-6.7v-25.1h9.7v24.5
			c0,1.1,0.2,2.2,0.5,3.1c0.3,0.9,0.8,1.9,1.2,2.7c0.6,0.8,1.4,1.4,2.3,1.9c0.9,0.5,2.2,0.6,3.6,0.6c1.4,0,2.5-0.2,3.6-0.6
			c0.9-0.5,1.7-1.1,2.3-1.9c0.6-0.8,1.1-1.7,1.2-2.7c0.3-0.9,0.5-2,0.5-3.1v-24.5h9.8v25.3C380.4,283.5,380.1,285.6,379.2,287.7z"/>
		<path fill="#333333" d="M411.1,296.4l-8.7-16.1h-3.3v16.1h-9.5v-40.5H405c1.9,0,3.9,0.2,5.8,0.6c1.9,0.5,3.4,1.1,5,2
			c1.4,0.9,2.7,2.2,3.6,3.7s1.2,3.4,1.2,5.8c0,2.8-0.8,5-2.2,6.9c-1.6,1.9-3.6,3.3-6.2,4.1l10.6,17.3h-11.7V296.4z M410.8,268.2
			c0-0.9-0.2-1.7-0.6-2.3c-0.5-0.6-0.9-1.1-1.6-1.4c-0.6-0.3-1.4-0.5-2.2-0.6c-0.8-0.2-1.6-0.2-2.3-0.2h-5.3v9.5h4.7
			c0.8,0,1.6,0,2.5-0.2c0.8-0.2,1.6-0.3,2.3-0.8c0.6-0.3,1.2-0.8,1.7-1.6C410.5,270,410.8,269.3,410.8,268.2z"/>
		<path fill="#333333" d="M450.3,296.4l-8.7-16.1h-3.4v16.1h-9.5v-40.5H444c1.9,0,3.9,0.2,5.8,0.6c1.9,0.5,3.4,1.1,5,2
			c1.4,0.9,2.7,2.2,3.6,3.7s1.2,3.4,1.2,5.8c0,2.8-0.8,5-2.2,6.9c-1.6,1.9-3.6,3.3-6.2,4.1l10.6,17.3h-11.5V296.4z M449.8,268.2
			c0-0.9-0.2-1.7-0.6-2.3c-0.5-0.6-0.9-1.1-1.6-1.4c-0.6-0.3-1.4-0.5-2.2-0.6c-0.8-0.2-1.6-0.2-2.3-0.2h-5v9.5h4.7
			c0.8,0,1.6,0,2.5-0.2c0.8-0.2,1.6-0.3,2.3-0.8c0.6-0.3,1.2-0.8,1.7-1.6C449.6,270,449.8,269.3,449.8,268.2z"/>
		<path fill="#333333" d="M467.6,296.4v-40.5h9.8v40.5H467.6z"/>
		<path fill="#333333" d="M508.4,266.3c-0.8-1.1-1.9-1.9-3.3-2.5s-2.7-0.9-3.9-0.9c-0.6,0-1.2,0-2,0.2c-0.8,0.2-1.2,0.3-1.9,0.6
			c-0.5,0.3-0.9,0.8-1.4,1.2c-0.3,0.5-0.5,1.2-0.5,2c0,0.6,0.2,1.2,0.5,1.7c0.3,0.5,0.8,0.8,1.2,1.2c0.6,0.3,1.2,0.6,2,0.9
			c0.8,0.3,1.6,0.6,2.7,0.9c1.4,0.5,2.8,0.9,4.4,1.6s2.8,1.2,4.1,2.2s2.2,2,3,3.4c0.8,1.4,1.2,3.1,1.2,5c0,2.3-0.5,4.4-1.2,6.1
			c-0.8,1.7-2,3.1-3.4,4.2s-3.1,1.9-5,2.5c-1.9,0.5-3.7,0.8-5.8,0.8c-3,0-5.8-0.5-8.4-1.6c-2.7-0.9-5-2.5-6.7-4.4l6.4-6.5
			c0.9,1.2,2.3,2.2,3.9,3.1c1.6,0.8,3.3,1.2,4.8,1.2c0.8,0,1.4,0,2.2-0.2c0.6-0.2,1.2-0.5,1.9-0.8c0.5-0.3,0.9-0.8,1.2-1.4
			c0.3-0.6,0.5-1.2,0.5-2c0-0.8-0.2-1.4-0.6-1.9c-0.3-0.5-0.9-1.1-1.6-1.4c-0.8-0.5-1.6-0.8-2.7-1.2c-1.1-0.3-2.2-0.8-3.6-1.2
			c-1.2-0.5-2.5-0.9-3.7-1.6s-2.3-1.2-3.3-2.2c-0.9-0.9-1.7-2-2.3-3.3c-0.6-1.2-0.9-2.8-0.9-4.7c0-2.2,0.5-4.2,1.4-5.8
			s2.2-3,3.6-3.9s3.1-1.7,5-2.2c1.9-0.5,3.7-0.8,5.6-0.8c2.3,0,4.7,0.5,7,1.2c2.3,0.8,4.5,2,6.2,3.7L508.4,266.3z"/>
	</g>
</g>
</svg>
