<?xml version="1.0" encoding="utf-8"?>
<!-- Generator: Adobe Illustrator 17.1.0, SVG Export Plug-In . SVG Version: 6.00 Build 0)  -->
<!DOCTYPE svg PUBLIC "-//W3C//DTD SVG 1.1//EN" "http://www.w3.org/Graphics/SVG/1.1/DTD/svg11.dtd">
<svg version="1.1" id="Layer_1" xmlns="http://www.w3.org/2000/svg" xmlns:xlink="http://www.w3.org/1999/xlink" x="0px" y="0px"
	 viewBox="0 209.3 841.9 170.1" enable-background="new 0 209.3 841.9 170.1" xml:space="preserve">
<g enable-background="new    ">
	<path fill="#CE1126" d="M24.9,261.7v10.2h19.2v9.9H24.9V301H13.1v-49.6h32.6v10.2H24.9z"/>
	<path fill="#CE1126" d="M105.1,276.1c0,3.9-0.7,7.5-2,10.7c-1.4,3.2-3.2,6-5.6,8.3c-2.4,2.3-5.3,4.1-8.6,5.4
		c-3.3,1.3-6.9,1.9-10.8,1.9c-3.9,0-7.5-0.6-10.7-1.9c-3.3-1.3-6.1-3-8.5-5.4c-2.4-2.3-4.3-5.1-5.6-8.3c-1.4-3.2-2-6.8-2-10.7
		c0-4,0.7-7.5,2-10.7c1.4-3.2,3.2-5.9,5.6-8.2c2.4-2.2,5.3-4,8.5-5.2c3.3-1.2,6.9-1.8,10.7-1.8c3.9,0,7.5,0.6,10.8,1.8
		c3.3,1.2,6.2,2.9,8.6,5.2c2.4,2.2,4.3,5,5.6,8.2C104.4,268.5,105.1,272.1,105.1,276.1z M92.2,276.1c0-2.1-0.4-4.2-1.1-6
		c-0.7-1.9-1.7-3.5-2.9-4.8c-1.2-1.3-2.7-2.4-4.5-3.2c-1.8-0.8-3.7-1.2-5.8-1.2c-2.1,0-4,0.4-5.7,1.2c-1.7,0.8-3.2,1.8-4.5,3.2
		s-2.2,2.9-2.9,4.8c-0.7,1.9-1,3.9-1,6c0,2.2,0.4,4.3,1.1,6.2c0.7,1.9,1.7,3.5,2.9,4.9c1.2,1.4,2.7,2.4,4.4,3.2
		c1.7,0.8,3.6,1.2,5.7,1.2c2.1,0,4-0.4,5.7-1.2c1.7-0.8,3.2-1.8,4.5-3.2c1.3-1.4,2.2-3,2.9-4.9C91.9,280.4,92.2,278.3,92.2,276.1z"
		/>
	<path fill="#CE1126" d="M139.5,301l-10.8-19.7h-4.1V301H113v-49.6h18.9c2.4,0,4.7,0.2,7,0.7c2.3,0.5,4.3,1.3,6.1,2.5
		c1.8,1.2,3.2,2.7,4.3,4.6c1.1,1.9,1.6,4.3,1.6,7.1c0,3.4-0.9,6.2-2.7,8.5c-1.8,2.3-4.3,3.9-7.6,4.9l13,21.2H139.5z M139,266.7
		c0-1.2-0.2-2.1-0.7-2.8c-0.5-0.7-1.1-1.3-1.9-1.7c-0.8-0.4-1.6-0.7-2.6-0.8s-1.9-0.2-2.8-0.2h-6.4v11.6h5.7c1,0,2-0.1,3-0.2
		c1-0.2,2-0.5,2.8-0.9c0.8-0.4,1.5-1,2.1-1.8C138.7,269,139,267.9,139,266.7z"/>
	<path fill="#CE1126" d="M159.4,301v-49.6h12V301H159.4z"/>
	<path fill="#CE1126" d="M207.8,264.4c-1-1.3-2.4-2.3-4-3.1c-1.7-0.8-3.3-1.2-4.8-1.2c-0.8,0-1.6,0.1-2.4,0.2
		c-0.8,0.1-1.6,0.4-2.2,0.8c-0.7,0.4-1.2,0.9-1.6,1.5c-0.4,0.6-0.7,1.4-0.7,2.4c0,0.8,0.2,1.5,0.5,2.1s0.9,1.1,1.5,1.5
		c0.7,0.4,1.5,0.8,2.4,1.2c0.9,0.4,2,0.7,3.2,1.1c1.7,0.6,3.4,1.2,5.3,1.9c1.8,0.7,3.5,1.6,5,2.7c1.5,1.1,2.7,2.5,3.7,4.2
		c1,1.7,1.5,3.7,1.5,6.2c0,2.8-0.5,5.3-1.6,7.4c-1.1,2.1-2.5,3.8-4.2,5.1c-1.8,1.4-3.8,2.4-6.1,3c-2.3,0.7-4.6,1-7.1,1
		c-3.5,0-7-0.6-10.3-1.9c-3.3-1.2-6.1-3-8.3-5.3l7.8-8c1.2,1.5,2.8,2.7,4.8,3.7c2,1,4,1.5,5.9,1.5c0.9,0,1.8-0.1,2.6-0.3
		c0.8-0.2,1.6-0.5,2.2-0.9c0.6-0.4,1.1-1,1.5-1.7c0.4-0.7,0.6-1.5,0.6-2.5c0-0.9-0.2-1.7-0.7-2.4c-0.5-0.7-1.1-1.2-2-1.8
		c-0.9-0.5-1.9-1-3.2-1.5c-1.3-0.4-2.7-0.9-4.4-1.4c-1.6-0.5-3.1-1.1-4.7-1.8c-1.5-0.7-2.9-1.6-4.1-2.7c-1.2-1.1-2.1-2.4-2.9-4
		c-0.7-1.6-1.1-3.5-1.1-5.7c0-2.8,0.6-5.1,1.7-7.1c1.1-2,2.6-3.6,4.4-4.8s3.9-2.2,6.2-2.8c2.3-0.6,4.6-0.9,6.9-0.9
		c2.8,0,5.7,0.5,8.6,1.5c2.9,1,5.5,2.5,7.7,4.6L207.8,264.4z"/>
</g>
<g id="gear-9-icon_7_">
	<path fill="#B3B3B3" d="M336.2,297.1c-1.5-2.7-1.7-6-0.7-9l0,0c1-3,3.3-5.3,6.2-6.6l7.6-3.2l-0.8-14.3l-8-2.4c-3-0.9-5.5-3-6.8-5.8
		l0,0c-1.4-2.8-1.5-6.1-0.2-9.1l3.1-7.6l-10.7-9.7l-7.3,4c-2.7,1.5-6,1.7-9,0.7l0,0c-3-1-5.3-3.3-6.6-6.2l-3.2-7.5l-14.3,0.8
		l-2.4,7.8c-0.9,3.1-3.1,5.6-5.9,6.8l0,0c-2.8,1.4-6.1,1.5-9,0.2l-7.6-3.2l-9.7,10.7l3.9,7.3c1.5,2.7,1.7,6,0.7,9l0,0
		c-1,3-3.3,5.3-6.2,6.6l-7.6,3.2l0.8,14.3l7.8,2.4c3.1,0.9,5.6,3.1,6.8,5.9l0,0c1.4,2.8,1.5,6.1,0.2,9l-3.2,7.6l10.7,9.7l7.3-4
		c2.7-1.5,6-1.7,9-0.7l0,0c3,1,5.3,3.3,6.6,6.2l3.2,7.6l14.3-0.8l2.4-7.8c0.9-3.1,3.1-5.6,5.9-6.8l0,0c2.8-1.4,6.1-1.5,9-0.2
		l7.6,3.2l9.7-10.7L336.2,297.1z M310.2,287.1c-7.3,8.1-19.5,8.6-27.6,1.5c-8.1-7.3-8.6-19.5-1.5-27.6c7.3-8.1,19.5-8.6,27.6-1.5
		C316.8,266.7,317.3,279,310.2,287.1z M402,301.3c-0.8-1.5-0.9-3.2-0.3-4.8l0,0c0.6-1.6,1.7-2.8,3.3-3.5l4.1-1.7l-0.5-7.6l-4.2-1.2
		c-1.6-0.5-3-1.6-3.6-3.1l0,0c-0.7-1.5-0.8-3.3-0.1-4.9l1.7-4l-5.7-5.1l-3.9,2c-1.5,0.8-3.2,0.9-4.8,0.3l0,0
		c-1.6-0.6-2.8-1.7-3.5-3.3l-1.7-4.1l-7.6,0.5l-1.2,4.2c-0.5,1.6-1.6,3-3.1,3.6l0,0c-1.5,0.7-3.3,0.8-4.8,0.1l-4.1-1.7l-5.1,5.7
		l2,3.9c0.8,1.5,0.9,3.2,0.3,4.8l0,0c-0.6,1.6-1.7,2.8-3.3,3.5l-4.1,1.7l0.5,7.6l4.2,1.2c1.6,0.5,3,1.6,3.6,3.1l0,0
		c0.7,1.5,0.8,3.3,0.1,4.8l-1.7,4.1l5.7,5.1l3.9-2c1.5-0.8,3.2-0.9,4.8-0.3l0,0c1.6,0.6,2.8,1.7,3.5,3.3l1.7,4.1l7.6-0.5l1.2-4.2
		c0.5-1.6,1.6-3,3.1-3.6l0,0c1.5-0.7,3.3-0.8,4.8-0.1l4.1,1.7l5.1-5.7L402,301.3z M388.2,295.9c-3.9,4.3-10.5,4.7-14.7,0.8
		c-4.3-3.9-4.7-10.5-0.8-14.7c3.9-4.3,10.5-4.7,14.7-0.8C391.6,285.1,392,291.7,388.2,295.9z"/>
	<path fill="#4D4D4D" d="M290.2,329.3l-3.6-8.7c-1-2.5-3.1-4.4-5.6-5.2l-0.2-0.1c-2.4-0.8-5.1-0.6-7.4,0.7l-8.3,4.5l-12.5-11.2
		l3.6-8.7c1-2.4,0.9-5.1-0.1-7.5l-0.1-0.1c-1.1-2.4-3.3-4.2-5.8-5l-9.1-2.7l-0.9-16.7l8.7-3.6c2.4-1,4.3-3,5.2-5.5v-0.1
		c0.9-2.5,0.7-5.3-0.6-7.6l-4.5-8.3l11.2-12.5l8.7,3.6c2.4,1,5.1,0.9,7.5-0.1h0.1c2.4-1.1,4.2-3.3,5-5.8l2.7-9.1l16.7-0.9l3.6,8.7
		c1,2.5,3.1,4.4,5.6,5.2l0.2,0.1c2.4,0.8,5.1,0.6,7.4-0.7l8.3-4.5l12.5,11.2l-3.5,8.6c-1,2.5-0.9,5.3,0.2,7.7v0.1
		c1.1,2.3,3.2,4.1,5.7,4.8l9.1,2.7l0.9,16.7l-8.7,3.6c-2.5,1-4.3,3.1-5.2,5.6c-0.9,2.5-0.7,5.3,0.6,7.6l4.5,8.3L331,317l-8.7-3.6
		c-2.4-1-5.1-0.9-7.4,0.1l-0.2,0.1c-2.4,1.1-4.2,3.3-5,5.8l-2.7,9.1L290.2,329.3z M282.4,312.3c3.2,1.2,5.8,3.7,7.2,7l2.7,6.5
		l11.9-0.7l2-6.7c1-3.3,3.3-6.1,6.4-7.7l0,0l0.5-0.2c3.2-1.6,7-1.6,10.5-0.2l6.5,2.7l8-8.9l-3.3-6.1c-1.7-3.2-2-6.9-0.8-10.3
		c1.2-3.4,3.9-6.1,7.2-7.6l6.5-2.7l-0.7-11.9l-6.8-2c-3.4-1-6.1-3.3-7.7-6.5l-0.3-0.3v-0.3c-1.4-3.2-1.5-6.8-0.1-10.1l2.6-6.5
		l-8.9-8l-6.1,3.3c-3.2,1.7-6.9,2-10.3,0.8l-0.2-0.1c-3.3-1.2-5.9-3.7-7.3-7l-2.8-6.4l-11.9,0.7l-2,6.7c-1,3.3-3.2,6-6.2,7.6l0,0
		l-0.6,0.2c-3.2,1.6-7,1.6-10.5,0.2l-6.5-2.7l-8,8.9l3.3,6.1c1.7,3.1,2,6.7,0.9,10.1l0,0l-0.1,0.2c-1.2,3.4-3.9,6.1-7.2,7.6
		l-6.5,2.7l0.7,11.9l6.7,2c3.4,1,6.2,3.4,7.8,6.5l0,0l0.1,0.2c1.6,3.3,1.7,7,0.2,10.5l-2.7,6.5l8.9,8l6.1-3.3c3.2-1.7,7-2,10.3-0.8
		L282.4,312.3z M377.1,319.3l-2.2-5.1c-0.5-1.1-1.4-1.9-2.5-2.4l0,0c-1.1-0.3-2.4-0.2-3.4,0.2l-4.9,2.6l-7.5-6.7l2.2-5.1
		c0.5-1.1,0.5-2.4-0.1-3.4c-0.6-1-1.5-1.9-2.6-2.3l-5.3-1.6l-0.6-10l5.1-2.2c1.1-0.5,1.9-1.4,2.4-2.5c0.3-1.1,0.3-2.4-0.2-3.4
		l-2.6-4.9l6.7-7.5l5.1,2.2c1,0.5,2.3,0.5,3.3,0l0.1-0.1c1-0.5,1.9-1.5,2.3-2.6l1.6-5.3l10-0.6l2.2,5.1c0.5,1.1,1.4,1.9,2.5,2.4
		c1.1,0.3,2.4,0.3,3.4-0.2l4.9-2.6l7.5,6.7l-2.2,5.1c-0.5,1.1-0.5,2.4,0.1,3.4c0.5,1,1.5,1.8,2.6,2.2l5.3,1.6l0.6,10l-5.1,2.2
		c-1.1,0.5-1.9,1.4-2.4,2.5c-0.3,1.1-0.3,2.4,0.2,3.4l2.6,4.9l-6.7,7.5l-5.1-2.2c-1.1-0.5-2.4-0.5-3.4,0.1s-1.9,1.5-2.3,2.6
		l-1.6,5.3L377.1,319.3z M373.7,308.7c1.9,0.7,3.5,2.3,4.4,4.2l1.2,3l5.2-0.2l0.9-3.1c0.6-2,2-3.7,4-4.7c1.9-0.9,4.2-1,6.1-0.1
		l3,1.2l3.5-3.9l-1.5-2.8c-1-1.9-1.2-4.1-0.5-6.1c0.7-2,2.3-3.6,4.2-4.5l3-1.2l-0.2-5.2l-3.1-0.9c-2-0.6-3.7-2-4.7-4
		c-0.9-1.9-1-4.2-0.1-6.2l1.2-3l-3.9-3.5l-2.8,1.5c-1.8,1-4.1,1.1-6.1,0.5c-2-0.7-3.6-2.3-4.5-4.2l-1.2-3l-5.2,0.2l-0.9,3.1
		c-0.6,1.9-1.9,3.5-3.6,4.5l0,0l-0.3,0.2c-1.9,0.9-4.2,1-6.1,0.1l-3.2-1.2l-3.5,3.9l1.5,2.8c1,1.9,1.2,4.1,0.5,6.1
		c-0.7,2-2.3,3.6-4.2,4.5l-3,1.2l0.2,5.2l3.1,0.9c2,0.6,3.7,2,4.7,4c0.9,1.9,1,4.2,0.1,6.1l-1.2,3l3.9,3.5l2.8-1.5
		C369.3,308.1,371.5,307.9,373.7,308.7L373.7,308.7z M380.5,301.2c-3,0-5.9-1.1-8.1-3.1c-2.4-2.2-3.9-5.1-4-8.4
		c-0.1-3.2,0.9-6.4,3.1-8.7c2.3-2.5,5.6-4,9-4c3,0,5.9,1.1,8.1,3.1c2.4,2.2,3.9,5.1,4,8.4c0.2,3.2-0.9,6.4-3.1,8.7
		C387.2,299.7,383.9,301.2,380.5,301.2z M380.5,280.4c-2.5,0-4.8,1-6.5,2.8c-1.6,1.7-2.4,4-2.3,6.2s1.1,4.4,2.8,6
		c1.6,1.5,3.6,2.3,5.8,2.3c2.5,0,4.8-1,6.5-2.8c1.6-1.7,2.4-4,2.3-6.2s-1.1-4.4-2.8-6C384.7,281.2,382.7,280.4,380.5,280.4z
		 M295.6,295.3c-5.2,0-10.3-1.9-14.2-5.5c-4.2-3.7-6.7-9-7-14.7c-0.3-5.7,1.6-11.1,5.5-15.3c4-4.4,9.8-7,15.8-7
		c5.2,0,10.3,1.9,14.2,5.5c8.7,7.8,9.4,21.4,1.6,30C307.4,292.6,301.6,295.3,295.6,295.3z M295.6,256.2c-5,0-9.9,2.2-13.3,5.9
		c-3.2,3.5-4.8,8.1-4.5,12.8c0.2,4.8,2.4,9.1,5.9,12.3c3.3,3,7.5,4.5,11.9,4.5c5.1,0,9.9-2.2,13.3-5.9c6.6-7.3,6-18.6-1.4-25.2
		C304.3,257.8,300.1,256.2,295.6,256.2z"/>
</g>
<g enable-background="new    ">
	<path fill="#333333" d="M29.6,370.4l-1.9-4.9h-9.6l-1.8,4.9H9.7l10.4-24.8h5.8l10.3,24.8H29.6z M22.9,352.2l-3.2,8.5H26L22.9,352.2
		z"/>
	<path fill="#333333" d="M61.4,357.9c0,2.2-0.4,4-1.2,5.6c-0.8,1.6-1.9,2.9-3.2,3.9s-2.8,1.8-4.5,2.2c-1.7,0.5-3.3,0.7-5,0.7h-9.2
		v-24.8h9c1.8,0,3.5,0.2,5.2,0.6c1.7,0.4,3.2,1.1,4.6,2c1.3,0.9,2.4,2.2,3.2,3.8C61,353.6,61.4,355.6,61.4,357.9z M55.2,357.9
		c0-1.4-0.2-2.6-0.7-3.5s-1.1-1.7-1.8-2.2c-0.8-0.5-1.6-0.9-2.6-1.2c-1-0.2-2-0.4-3-0.4h-3v14.5H47c1.1,0,2.1-0.1,3.1-0.4
		c1-0.2,1.9-0.6,2.6-1.2c0.8-0.6,1.4-1.3,1.8-2.2C55,360.4,55.2,359.3,55.2,357.9z"/>
	<path fill="#333333" d="M87.9,370.4l0.1-17.5h-0.1l-6.4,17.5h-4.2L71,352.8h-0.1l0.1,17.5h-5.6v-24.8h8.5l5.6,15.9h0.1l5.4-15.9
		h8.7v24.8H87.9z"/>
	<path fill="#333333" d="M98.8,370.4v-24.8h6v24.8H98.8z"/>
	<path fill="#333333" d="M125.7,370.4l-10-16.2h-0.1l0.1,16.2H110v-24.8h6.8l9.9,16.2h0.1l-0.1-16.2h5.8v24.8H125.7z"/>
	<path fill="#333333" d="M137.6,370.4v-24.8h6v24.8H137.6z"/>
	<path fill="#333333" d="M161.8,352c-0.5-0.7-1.2-1.2-2-1.6c-0.8-0.4-1.6-0.6-2.4-0.6c-0.4,0-0.8,0-1.2,0.1
		c-0.4,0.1-0.8,0.2-1.1,0.4c-0.3,0.2-0.6,0.5-0.8,0.8c-0.2,0.3-0.3,0.7-0.3,1.2c0,0.4,0.1,0.8,0.3,1c0.2,0.3,0.4,0.5,0.8,0.7
		c0.3,0.2,0.7,0.4,1.2,0.6c0.5,0.2,1,0.4,1.6,0.5c0.8,0.3,1.7,0.6,2.6,0.9c0.9,0.3,1.7,0.8,2.5,1.3c0.7,0.6,1.4,1.3,1.9,2.1
		c0.5,0.8,0.7,1.9,0.7,3.1c0,1.4-0.3,2.7-0.8,3.7c-0.5,1-1.2,1.9-2.1,2.6c-0.9,0.7-1.9,1.2-3,1.5c-1.1,0.3-2.3,0.5-3.5,0.5
		c-1.8,0-3.5-0.3-5.1-0.9c-1.7-0.6-3-1.5-4.1-2.6l3.9-4c0.6,0.7,1.4,1.4,2.4,1.9c1,0.5,2,0.8,3,0.8c0.4,0,0.9,0,1.3-0.1
		c0.4-0.1,0.8-0.2,1.1-0.5c0.3-0.2,0.6-0.5,0.8-0.8c0.2-0.3,0.3-0.8,0.3-1.3c0-0.5-0.1-0.9-0.4-1.2c-0.2-0.3-0.6-0.6-1-0.9
		c-0.4-0.3-1-0.5-1.6-0.7c-0.6-0.2-1.4-0.5-2.2-0.7c-0.8-0.3-1.6-0.6-2.3-0.9c-0.8-0.3-1.4-0.8-2-1.3c-0.6-0.5-1.1-1.2-1.4-2
		c-0.4-0.8-0.5-1.7-0.5-2.9c0-1.4,0.3-2.6,0.8-3.5c0.6-1,1.3-1.8,2.2-2.4c0.9-0.6,1.9-1.1,3.1-1.4c1.1-0.3,2.3-0.4,3.5-0.4
		c1.4,0,2.8,0.3,4.3,0.8c1.5,0.5,2.7,1.3,3.8,2.3L161.8,352z"/>
	<path fill="#333333" d="M179.6,350.7v19.7h-6v-19.7h-7v-5.1h20v5.1H179.6z"/>
	<path fill="#333333" d="M202.6,370.4l-5.4-9.8h-2v9.8h-5.8v-24.8h9.5c1.2,0,2.4,0.1,3.5,0.4c1.1,0.2,2.1,0.7,3,1.2
		c0.9,0.6,1.6,1.4,2.2,2.3c0.5,1,0.8,2.1,0.8,3.6c0,1.7-0.5,3.1-1.4,4.2c-0.9,1.1-2.2,2-3.8,2.5l6.5,10.6H202.6z M202.3,353.2
		c0-0.6-0.1-1.1-0.4-1.4c-0.2-0.4-0.6-0.6-0.9-0.8c-0.4-0.2-0.8-0.3-1.3-0.4c-0.5-0.1-0.9-0.1-1.4-0.1h-3.2v5.8h2.8
		c0.5,0,1,0,1.5-0.1s1-0.2,1.4-0.4c0.4-0.2,0.8-0.5,1-0.9C202.2,354.3,202.3,353.8,202.3,353.2z"/>
	<path fill="#333333" d="M229.3,370.4l-1.9-4.9h-9.6l-1.8,4.9h-6.5l10.4-24.8h5.8l10.3,24.8H229.3z M222.7,352.2l-3.2,8.5h6.2
		L222.7,352.2z"/>
	<path fill="#333333" d="M259.2,366.9c-1.1,1.3-2.5,2.3-4.1,3s-3.5,1.1-5.6,1.1c-1.9,0-3.7-0.3-5.3-0.9s-3-1.5-4.2-2.7
		c-1.2-1.2-2.1-2.5-2.8-4.1c-0.7-1.6-1-3.4-1-5.3c0-2,0.3-3.8,1-5.4c0.7-1.6,1.6-3,2.9-4.1c1.2-1.1,2.6-2,4.3-2.6
		c1.6-0.6,3.4-0.9,5.3-0.9c1.8,0,3.5,0.3,5.2,0.9c1.7,0.6,3.1,1.5,4.1,2.7l-4.1,4.1c-0.6-0.8-1.3-1.3-2.2-1.7
		c-0.9-0.4-1.8-0.6-2.8-0.6c-1.1,0-2,0.2-2.9,0.6c-0.9,0.4-1.6,0.9-2.3,1.6c-0.6,0.7-1.1,1.5-1.5,2.4s-0.5,1.9-0.5,3
		c0,1.1,0.2,2.1,0.5,3.1s0.8,1.7,1.5,2.4c0.6,0.7,1.4,1.2,2.2,1.6c0.9,0.4,1.8,0.6,2.8,0.6c1.2,0,2.2-0.2,3.1-0.7
		c0.9-0.5,1.6-1.1,2.1-1.8L259.2,366.9z M252.4,343.6h-5.1l-4.3-5h4.6l2.4,2.8l2.4-2.8h4.5L252.4,343.6z"/>
	<path fill="#333333" d="M277.5,370.4l-10-16.2h-0.1l0.1,16.2h-5.8v-24.8h6.8l9.9,16.2h0.1l-0.1-16.2h5.8v24.8H277.5z"/>
	<path fill="#333333" d="M293.8,343.6h-4.3l3.6-5h5.8L293.8,343.6z M289.4,370.4v-24.8h6v24.8H289.4z"/>
	<path fill="#333333" d="M322.6,370.4l-5.4-9.8h-2v9.8h-5.8v-24.8h9.5c1.2,0,2.4,0.1,3.5,0.4c1.1,0.2,2.1,0.7,3,1.2
		c0.9,0.6,1.6,1.4,2.2,2.3c0.5,1,0.8,2.1,0.8,3.6c0,1.7-0.5,3.1-1.4,4.2c-0.9,1.1-2.2,2-3.8,2.5l6.5,10.6H322.6z M322.3,353.2
		c0-0.6-0.1-1.1-0.4-1.4c-0.2-0.4-0.6-0.6-0.9-0.8c-0.4-0.2-0.8-0.3-1.3-0.4c-0.5-0.1-0.9-0.1-1.4-0.1h-3.2v5.8h2.8
		c0.5,0,1,0,1.5-0.1s1-0.2,1.4-0.4c0.4-0.2,0.8-0.5,1-0.9C322.2,354.3,322.3,353.8,322.3,353.2z"/>
	<path fill="#333333" d="M358.4,357.9c0,2-0.3,3.8-1,5.4c-0.7,1.6-1.6,3-2.8,4.2c-1.2,1.2-2.6,2-4.3,2.7s-3.5,0.9-5.4,0.9
		c-1.9,0-3.7-0.3-5.4-0.9c-1.6-0.6-3.1-1.5-4.3-2.7c-1.2-1.2-2.1-2.5-2.8-4.2c-0.7-1.6-1-3.4-1-5.4c0-2,0.3-3.8,1-5.4
		c0.7-1.6,1.6-3,2.8-4.1c1.2-1.1,2.6-2,4.3-2.6c1.6-0.6,3.4-0.9,5.4-0.9c1.9,0,3.7,0.3,5.4,0.9c1.7,0.6,3.1,1.5,4.3,2.6
		c1.2,1.1,2.1,2.5,2.8,4.1C358,354.1,358.4,355.9,358.4,357.9z M352,357.9c0-1.1-0.2-2.1-0.5-3s-0.8-1.7-1.5-2.4
		c-0.6-0.7-1.4-1.2-2.2-1.6c-0.9-0.4-1.8-0.6-2.9-0.6c-1.1,0-2,0.2-2.9,0.6c-0.9,0.4-1.6,0.9-2.2,1.6c-0.6,0.7-1.1,1.5-1.5,2.4
		c-0.3,0.9-0.5,1.9-0.5,3c0,1.1,0.2,2.2,0.5,3.1s0.8,1.8,1.5,2.4c0.6,0.7,1.4,1.2,2.2,1.6c0.9,0.4,1.8,0.6,2.9,0.6
		c1,0,2-0.2,2.9-0.6c0.9-0.4,1.6-0.9,2.2-1.6c0.6-0.7,1.1-1.5,1.5-2.4S352,359,352,357.9z"/>
	<path fill="#333333" d="M360.3,370.4v-5.2l11.8-14.6h-11.5v-5h19v4.8l-12.1,14.8h12.3v5.2H360.3z"/>
	<path fill="#333333" d="M399.4,370.4V360h-9.7v10.4h-6v-24.8h6v9.4h9.7v-9.4h6v24.8H399.4z"/>
	<path fill="#333333" d="M423.7,370.4l-5.4-9.8h-2v9.8h-5.8v-24.8h9.5c1.2,0,2.4,0.1,3.5,0.4s2.1,0.7,3,1.2c0.9,0.6,1.6,1.4,2.2,2.3
		c0.5,1,0.8,2.1,0.8,3.6c0,1.7-0.5,3.1-1.4,4.2c-0.9,1.1-2.2,2-3.8,2.5l6.5,10.6H423.7z M423.5,353.2c0-0.6-0.1-1.1-0.4-1.4
		c-0.2-0.4-0.6-0.6-0.9-0.8c-0.4-0.2-0.8-0.3-1.3-0.4c-0.5-0.1-0.9-0.1-1.4-0.1h-3.2v5.8h2.8c0.5,0,1,0,1.5-0.1
		c0.5-0.1,1-0.2,1.4-0.4c0.4-0.2,0.8-0.5,1-0.9C423.3,354.3,423.5,353.8,423.5,353.2z"/>
	<path fill="#333333" d="M450.5,370.4l-1.9-4.9h-9.6l-1.8,4.9h-6.5l10.4-24.8h5.8l10.3,24.8H450.5z M443.8,352.2l-3.2,8.5h6.2
		L443.8,352.2z"/>
	<path fill="#333333" d="M474.9,370.4l-10-16.2h-0.1l0.1,16.2h-5.8v-24.8h6.8l9.9,16.2h0.1l-0.1-16.2h5.8v24.8H474.9z"/>
	<path fill="#333333" d="M491.2,343.6h-4.3l3.6-5h5.8L491.2,343.6z M486.8,370.4v-24.8h6v24.8H486.8z"/>
	<path fill="#333333" d="M520,370.4l-5.4-9.8h-2v9.8h-5.8v-24.8h9.5c1.2,0,2.4,0.1,3.5,0.4s2.1,0.7,3,1.2c0.9,0.6,1.6,1.4,2.2,2.3
		c0.5,1,0.8,2.1,0.8,3.6c0,1.7-0.5,3.1-1.4,4.2c-0.9,1.1-2.2,2-3.8,2.5l6.5,10.6H520z M519.7,353.2c0-0.6-0.1-1.1-0.4-1.4
		c-0.2-0.4-0.6-0.6-0.9-0.8c-0.4-0.2-0.8-0.3-1.3-0.4c-0.5-0.1-0.9-0.1-1.4-0.1h-3.2v5.8h2.8c0.5,0,1,0,1.5-0.1
		c0.5-0.1,1-0.2,1.4-0.4c0.4-0.2,0.8-0.5,1-0.9C519.6,354.3,519.7,353.8,519.7,353.2z"/>
	<path fill="#333333" d="M555.8,357.9c0,2-0.3,3.8-1,5.4s-1.6,3-2.8,4.2s-2.6,2-4.3,2.7s-3.5,0.9-5.4,0.9c-1.9,0-3.7-0.3-5.4-0.9
		c-1.6-0.6-3.1-1.5-4.3-2.7s-2.1-2.5-2.8-4.2s-1-3.4-1-5.4c0-2,0.3-3.8,1-5.4c0.7-1.6,1.6-3,2.8-4.1s2.6-2,4.3-2.6
		c1.6-0.6,3.4-0.9,5.4-0.9c1.9,0,3.7,0.3,5.4,0.9c1.7,0.6,3.1,1.5,4.3,2.6s2.1,2.5,2.8,4.1C555.4,354.1,555.8,355.9,555.8,357.9z
		 M549.4,357.9c0-1.1-0.2-2.1-0.5-3s-0.8-1.7-1.5-2.4c-0.6-0.7-1.4-1.2-2.2-1.6c-0.9-0.4-1.8-0.6-2.9-0.6c-1.1,0-2,0.2-2.9,0.6
		c-0.9,0.4-1.6,0.9-2.2,1.6c-0.6,0.7-1.1,1.5-1.5,2.4c-0.3,0.9-0.5,1.9-0.5,3c0,1.1,0.2,2.2,0.5,3.1c0.3,0.9,0.8,1.8,1.5,2.4
		s1.4,1.2,2.2,1.6c0.9,0.4,1.8,0.6,2.9,0.6c1,0,2-0.2,2.9-0.6c0.9-0.4,1.6-0.9,2.2-1.6c0.6-0.7,1.1-1.5,1.5-2.4
		S549.4,359,549.4,357.9z"/>
	<path fill="#333333" d="M580,365.1c-0.5,1.2-1.2,2.3-2.2,3.2c-0.9,0.9-2.1,1.6-3.4,2s-2.8,0.7-4.4,0.7c-1.6,0-3.1-0.2-4.4-0.7
		c-1.3-0.5-2.4-1.2-3.3-2s-1.6-1.9-2.1-3.2s-0.7-2.6-0.7-4.1v-15.4h6v14.9c0,0.7,0.1,1.3,0.3,1.9c0.2,0.6,0.4,1.1,0.8,1.6
		c0.4,0.5,0.8,0.9,1.4,1.1c0.6,0.3,1.3,0.4,2.2,0.4c0.8,0,1.6-0.1,2.2-0.4c0.6-0.3,1.1-0.7,1.5-1.1c0.4-0.5,0.6-1,0.8-1.6
		s0.2-1.2,0.2-1.9v-14.9h6V361C580.7,362.5,580.5,363.9,580,365.1z"/>
	<path fill="#333333" d="M596.2,350.7v19.7h-6v-19.7h-7v-5.1h20v5.1H596.2z"/>
	<path fill="#333333" d="M605.9,370.4v-24.8h16.7v5h-10.9v4.7H622v4.8h-10.3v5.1h11.5v5.1H605.9z"/>
	<path fill="#333333" d="M640.4,370.4l-5.4-9.8h-2v9.8h-5.8v-24.8h9.5c1.2,0,2.4,0.1,3.5,0.4s2.1,0.7,3,1.2c0.9,0.6,1.6,1.4,2.2,2.3
		c0.5,1,0.8,2.1,0.8,3.6c0,1.7-0.5,3.1-1.4,4.2c-0.9,1.1-2.2,2-3.8,2.5l6.5,10.6H640.4z M640.2,353.2c0-0.6-0.1-1.1-0.4-1.4
		c-0.2-0.4-0.6-0.6-0.9-0.8c-0.4-0.2-0.8-0.3-1.3-0.4c-0.5-0.1-0.9-0.1-1.4-0.1H633v5.8h2.8c0.5,0,1,0,1.5-0.1
		c0.5-0.1,1-0.2,1.4-0.4c0.4-0.2,0.8-0.5,1-0.9C640,354.3,640.2,353.8,640.2,353.2z"/>
	<path fill="#333333" d="M670.6,365.1c-0.5,1.2-1.2,2.3-2.2,3.2c-0.9,0.9-2.1,1.6-3.4,2s-2.8,0.7-4.4,0.7c-1.6,0-3.1-0.2-4.4-0.7
		c-1.3-0.5-2.4-1.2-3.3-2s-1.6-1.9-2.1-3.2s-0.7-2.6-0.7-4.1v-15.4h6v14.9c0,0.7,0.1,1.3,0.3,1.9c0.2,0.6,0.4,1.1,0.8,1.6
		c0.4,0.5,0.8,0.9,1.4,1.1c0.6,0.3,1.3,0.4,2.2,0.4c0.8,0,1.6-0.1,2.2-0.4c0.6-0.3,1.1-0.7,1.5-1.1c0.4-0.5,0.6-1,0.8-1.6
		s0.2-1.2,0.2-1.9v-14.9h6V361C671.4,362.5,671.1,363.9,670.6,365.1z"/>
	<path fill="#333333" d="M694.7,350.7v19.7h-6v-19.7h-7v-5.1h20v5.1H694.7z"/>
	<path fill="#333333" d="M724.7,365.1c-0.5,1.2-1.2,2.3-2.2,3.2c-0.9,0.9-2.1,1.6-3.4,2s-2.8,0.7-4.4,0.7c-1.6,0-3.1-0.2-4.4-0.7
		c-1.3-0.5-2.4-1.2-3.3-2s-1.6-1.9-2.1-3.2s-0.7-2.6-0.7-4.1v-15.4h6v14.9c0,0.7,0.1,1.3,0.3,1.9c0.2,0.6,0.4,1.1,0.8,1.6
		c0.4,0.5,0.8,0.9,1.4,1.1c0.6,0.3,1.3,0.4,2.2,0.4c0.8,0,1.6-0.1,2.2-0.4c0.6-0.3,1.1-0.7,1.5-1.1c0.4-0.5,0.6-1,0.8-1.6
		s0.2-1.2,0.2-1.9v-14.9h6V361C725.4,362.5,725.2,363.9,724.7,365.1z"/>
	<path fill="#333333" d="M743.5,370.4l-5.4-9.8h-2v9.8h-5.8v-24.8h9.5c1.2,0,2.4,0.1,3.5,0.4s2.1,0.7,3,1.2c0.9,0.6,1.6,1.4,2.2,2.3
		c0.5,1,0.8,2.1,0.8,3.6c0,1.7-0.5,3.1-1.4,4.2c-0.9,1.1-2.2,2-3.8,2.5l6.5,10.6H743.5z M743.3,353.2c0-0.6-0.1-1.1-0.4-1.4
		c-0.2-0.4-0.6-0.6-0.9-0.8c-0.4-0.2-0.8-0.3-1.3-0.4c-0.5-0.1-0.9-0.1-1.4-0.1h-3.2v5.8h2.8c0.5,0,1,0,1.5-0.1
		c0.5-0.1,1-0.2,1.4-0.4c0.4-0.2,0.8-0.5,1-0.9C743.2,354.3,743.3,353.8,743.3,353.2z"/>
	<path fill="#333333" d="M766.7,370.4l-5.4-9.8h-2v9.8h-5.8v-24.8h9.5c1.2,0,2.4,0.1,3.5,0.4s2.1,0.7,3,1.2c0.9,0.6,1.6,1.4,2.2,2.3
		c0.5,1,0.8,2.1,0.8,3.6c0,1.7-0.5,3.1-1.4,4.2c-0.9,1.1-2.2,2-3.8,2.5l6.5,10.6H766.7z M766.5,353.2c0-0.6-0.1-1.1-0.4-1.4
		c-0.2-0.4-0.6-0.6-0.9-0.8c-0.4-0.2-0.8-0.3-1.3-0.4c-0.5-0.1-0.9-0.1-1.4-0.1h-3.2v5.8h2.8c0.5,0,1,0,1.5-0.1
		c0.5-0.1,1-0.2,1.4-0.4c0.4-0.2,0.8-0.5,1-0.9C766.4,354.3,766.5,353.8,766.5,353.2z"/>
	<path fill="#333333" d="M776.7,370.4v-24.8h6v24.8H776.7z"/>
	<path fill="#333333" d="M800.9,352c-0.5-0.7-1.2-1.2-2-1.6s-1.6-0.6-2.4-0.6c-0.4,0-0.8,0-1.2,0.1c-0.4,0.1-0.8,0.2-1.1,0.4
		c-0.3,0.2-0.6,0.5-0.8,0.8s-0.3,0.7-0.3,1.2c0,0.4,0.1,0.8,0.3,1s0.4,0.5,0.8,0.7c0.3,0.2,0.7,0.4,1.2,0.6c0.5,0.2,1,0.4,1.6,0.5
		c0.8,0.3,1.7,0.6,2.6,0.9c0.9,0.3,1.7,0.8,2.5,1.3c0.7,0.6,1.4,1.3,1.9,2.1c0.5,0.8,0.7,1.9,0.7,3.1c0,1.4-0.3,2.7-0.8,3.7
		c-0.5,1-1.2,1.9-2.1,2.6s-1.9,1.2-3,1.5c-1.1,0.3-2.3,0.5-3.5,0.5c-1.8,0-3.5-0.3-5.1-0.9c-1.7-0.6-3-1.5-4.1-2.6l3.9-4
		c0.6,0.7,1.4,1.4,2.4,1.9c1,0.5,2,0.8,3,0.8c0.4,0,0.9,0,1.3-0.1c0.4-0.1,0.8-0.2,1.1-0.5c0.3-0.2,0.6-0.5,0.8-0.8
		c0.2-0.3,0.3-0.8,0.3-1.3c0-0.5-0.1-0.9-0.3-1.2c-0.2-0.3-0.6-0.6-1-0.9c-0.4-0.3-1-0.5-1.6-0.7c-0.6-0.2-1.4-0.5-2.2-0.7
		c-0.8-0.3-1.6-0.6-2.3-0.9c-0.8-0.3-1.4-0.8-2-1.3c-0.6-0.5-1.1-1.2-1.4-2c-0.4-0.8-0.5-1.7-0.5-2.9c0-1.4,0.3-2.6,0.8-3.5
		c0.6-1,1.3-1.8,2.2-2.4c0.9-0.6,1.9-1.1,3.1-1.4c1.1-0.3,2.3-0.4,3.5-0.4c1.4,0,2.8,0.3,4.3,0.8c1.5,0.5,2.7,1.3,3.8,2.3L800.9,352
		z"/>
</g>
</svg>
